<svg width="15" height="10" viewBox="0 0 15 10" fill="none" xmlns="http://www.w3.org/2000/svg">
<path d="M14.7028 1.56466C14.5393 0.948776 14.0573 0.463724 13.4454 0.299115C12.3363 0 7.88889 0 7.88889 0C7.88889 0 3.44149 0 2.33235 0.299115C1.72045 0.46375 1.23853 0.948776 1.07496 1.56466C0.777771 2.68099 0.777771 5.0101 0.777771 5.0101C0.777771 5.0101 0.777771 7.33922 1.07496 8.45555C1.23853 9.07143 1.72045 9.53628 2.33235 9.70089C3.44149 10 7.88889 10 7.88889 10C7.88889 10 12.3363 10 13.4454 9.70089C14.0573 9.53628 14.5393 9.07143 14.7028 8.45555C15 7.33922 15 5.0101 15 5.0101C15 5.0101 15 2.68099 14.7028 1.56466ZM6.43433 7.12477V2.89544L10.1515 5.01016L6.43433 7.12477Z" fill="white"/>
</svg>
