<svg width="11" height="10" viewBox="0 0 11 10" fill="none" xmlns="http://www.w3.org/2000/svg">
<path d="M5.77774 2.43613C4.35858 2.43613 3.21387 3.58083 3.21387 5C3.21387 6.41917 4.35858 7.56387 5.77774 7.56387C7.19691 7.56387 8.34162 6.41917 8.34162 5C8.34162 3.58083 7.19691 2.43613 5.77774 2.43613ZM5.77774 6.66685C4.86064 6.66685 4.11089 5.91934 4.11089 5C4.11089 4.08067 4.85841 3.33315 5.77774 3.33315C6.69708 3.33315 7.4446 4.08067 7.4446 5C7.4446 5.91934 6.69485 6.66685 5.77774 6.66685ZM9.04451 2.33125C9.04451 2.66373 8.77674 2.92927 8.44649 2.92927C8.11402 2.92927 7.84848 2.6615 7.84848 2.33125C7.84848 2.001 8.11625 1.73324 8.44649 1.73324C8.77674 1.73324 9.04451 2.001 9.04451 2.33125ZM10.7426 2.93819C10.7047 2.13712 10.5217 1.42754 9.93483 0.84291C9.35021 0.258284 8.64062 0.0753096 7.83955 0.0351445C7.01394 -0.0117148 4.53932 -0.0117148 3.7137 0.0351445C2.91486 0.0730782 2.20528 0.256053 1.61842 0.840678C1.03157 1.4253 0.850822 2.13489 0.810657 2.93596C0.763798 3.76158 0.763798 6.23619 0.810657 7.06181C0.848591 7.86288 1.03157 8.57246 1.61842 9.15709C2.20528 9.74172 2.91263 9.92469 3.7137 9.96486C4.53932 10.0117 7.01394 10.0117 7.83955 9.96486C8.64062 9.92692 9.35021 9.74395 9.93483 9.15709C10.5195 8.57246 10.7024 7.86288 10.7426 7.06181C10.7895 6.23619 10.7895 3.76381 10.7426 2.93819ZM9.67599 7.94767C9.50194 8.38503 9.165 8.72197 8.72542 8.89825C8.06716 9.15932 6.50518 9.09907 5.77774 9.09907C5.05031 9.09907 3.4861 9.15709 2.83007 8.89825C2.39272 8.7242 2.05578 8.38726 1.8795 7.94767C1.61842 7.28941 1.67867 5.72744 1.67867 5C1.67867 4.27256 1.62065 2.70836 1.8795 2.05233C2.05354 1.61497 2.39049 1.27803 2.83007 1.10175C3.48833 0.840678 5.05031 0.900926 5.77774 0.900926C6.50518 0.900926 8.06939 0.84291 8.72542 1.10175C9.16277 1.2758 9.49971 1.61274 9.67599 2.05233C9.93707 2.71059 9.87682 4.27256 9.87682 5C9.87682 5.72744 9.93707 7.29164 9.67599 7.94767Z" fill="white"/>
</svg>
