<svg width="375" height="91" viewBox="0 0 375 91" fill="none" xmlns="http://www.w3.org/2000/svg">
<path d="M44.4918 27.3V35.05H27.0418V71H17.8418V35.05H0.341797V27.3H44.4918ZM49.7559 71V27.3H58.8059V71H49.7559ZM110.961 34.35L100.911 71H83.7113L72.5613 34.35C72.5613 35.15 72.5613 36.35 72.5613 37.85C72.6113 39.4 72.6113 40.6 72.6113 41.45V71H64.1113V27.3H79.5613L92.3113 70.55L103.911 27.3H119.411V71H110.861V41.45C110.861 40.6 110.911 39.4 110.911 37.85C110.911 36.35 110.961 35.15 110.961 34.35Z" fill="#EB0028"/>
<path d="M262.237 64.15V72H226.037V28.3H235.137V64.15H262.237ZM267.492 72V28.3H276.542V72H267.492ZM317.498 58.8V28.3H325.998V72H316.848L290.348 41V72H281.848V28.3H291.398L317.498 58.8ZM369.661 64.15V72H331.311V28.3H368.611V36.05H340.211V45.35H366.711V52.9H340.211V64.15H369.661Z" fill="#EB0028"/>
<rect x="136.6" y="28" width="82.3143" height="7.37143" fill="#EB0028"/>
<rect x="128" y="63.6285" width="90.9143" height="7.37143" fill="#EB0028"/>
<rect x="128" y="45.2" width="83.5429" height="7.37143" fill="#EB0028"/>
<rect x="128" y="28" width="8.6" height="43" fill="#EB0028"/>
<path d="M18.874 16.546V20H2V0.772H18.412V4.182H5.916V8.274H17.576V11.596H5.916V16.546H18.874ZM28.313 19.45L31.613 5.172H35.485L32.119 20H24.529L21.207 5.172H25.123L28.313 19.45ZM40.8793 11.244H49.6133C49.4593 10.452 49.1073 9.814 48.5573 9.286C47.7873 8.538 46.6653 8.164 45.2353 8.164C43.8273 8.164 42.7053 8.538 41.9353 9.286C41.3853 9.814 41.0333 10.452 40.8793 11.244ZM49.7013 12.674L45.5653 12.652H40.7913C40.8353 13.774 41.2313 14.676 41.9353 15.358C42.7053 16.128 43.8053 16.502 45.2353 16.502C46.6653 16.502 47.7873 16.128 48.5573 15.358C48.6233 15.292 48.6893 15.226 48.7553 15.16H52.9133C52.6273 16.15 52.1433 16.964 51.4833 17.624C50.0533 19.208 47.9633 20 45.2353 20C42.4633 20 40.3953 19.208 38.9873 17.624C37.8213 16.436 37.2273 14.72 37.2273 12.476C37.2273 10.232 37.8213 8.516 38.9873 7.328C40.3953 5.744 42.4633 4.952 45.2353 4.952C47.9633 4.952 50.0533 5.744 51.4833 7.328C52.6713 8.516 53.2653 10.232 53.2653 12.476C53.2653 12.52 53.2653 12.564 53.2653 12.608V12.674H49.7013ZM69.104 7.02C69.588 7.548 69.874 8.098 69.984 8.648C70.094 9.22 70.138 10.122 70.138 11.398V19.956H66.046V11.09C66.046 10.342 65.21 8.274 62.658 8.252C61.47 8.252 60.568 8.582 59.952 9.242C59.336 9.902 59.006 10.826 59.006 12.058V19.956H58.94H56.19H55.002C55.002 16.568 55.002 5.15 55.002 5.15H58.874L57.884 10.54L58.632 8.45C59.072 7.24 59.93 6.228 61.096 5.744C61.162 5.7 61.228 5.678 61.294 5.656C62.174 5.326 63.076 5.15 64.022 5.15C65.1 5.15 66.068 5.304 66.948 5.612C67.828 5.92 68.532 6.382 69.104 7.02ZM77.9033 15.908C78.2333 16.612 78.8713 16.964 79.8173 16.964C80.6533 16.964 81.3133 16.722 81.7973 16.26V18.856C81.3353 19.208 80.8953 19.472 80.4773 19.626C79.9493 19.802 79.3333 19.89 78.6293 19.89C76.6273 19.89 75.2633 19.164 74.5593 17.712C74.1633 16.898 73.9653 15.71 73.9653 14.148V6.888H72.1173V5.612H73.9653V2.752H77.6393V5.612H79.8393V6.888H77.6393V14.148C77.6393 14.94 77.7273 15.512 77.9033 15.908Z" fill="white"/>
</svg>
