<svg width="1254" height="127" viewBox="0 0 1254 127" fill="none" xmlns="http://www.w3.org/2000/svg">
<path d="M134 25L1114 29" stroke="white" stroke-width="10"/>
<circle cx="117" cy="26" r="25" fill="#EB0028"/>
<circle cx="1139" cy="29" r="25" fill="#EB0028"/>
<circle cx="624" cy="25" r="25" fill="#EB0028"/>
<path d="M1078.91 76.874L1074.49 93H1066.92L1062.01 76.874C1062.01 77.226 1062.01 77.754 1062.01 78.414C1062.03 79.096 1062.03 79.624 1062.03 79.998V93H1058.29V73.772H1065.09L1070.7 92.802L1075.81 73.772H1082.63V93H1078.86V79.998C1078.86 79.624 1078.89 79.096 1078.89 78.414C1078.89 77.754 1078.91 77.226 1078.91 76.874ZM1090.06 88.424C1089.55 90.426 1094.06 91.504 1096.07 88.138C1096.07 87.302 1096.07 86.444 1096.07 85.652C1094.09 86.026 1090.61 86.158 1090.06 88.424ZM1087.07 79.206C1087.07 79.206 1096.88 76.236 1099.74 81.098C1100.18 81.846 1100.27 82.748 1100.27 83.606V93.154H1096.07L1096.75 88.974C1096.7 89.084 1096.66 89.194 1096.59 89.282C1094.09 94.298 1083.99 94.958 1085.24 88.952C1086.08 84.926 1092.15 83.892 1096.02 83.65C1095.45 79.118 1087.05 82.33 1087.05 82.33L1087.07 79.206ZM1103.24 74.96H1106.89V76.632H1103.24V74.96ZM1103.24 93V78.15H1106.89V93H1103.24ZM1123.36 80.02C1123.84 80.548 1124.13 81.098 1124.24 81.648C1124.35 82.22 1124.39 83.122 1124.39 84.398V92.956H1120.3V84.09C1120.3 83.342 1119.46 81.274 1116.91 81.252C1115.72 81.252 1114.82 81.582 1114.2 82.242C1113.59 82.902 1113.26 83.826 1113.26 85.058V92.956H1113.19H1110.44H1109.25C1109.25 89.568 1109.25 78.15 1109.25 78.15H1113.13L1112.14 83.54L1112.88 81.45C1113.32 80.24 1114.18 79.228 1115.35 78.744C1115.41 78.7 1115.48 78.678 1115.55 78.656C1116.43 78.326 1117.33 78.15 1118.27 78.15C1119.35 78.15 1120.32 78.304 1121.2 78.612C1122.08 78.92 1122.78 79.382 1123.36 80.02ZM1156.36 89.546V93H1139.48V73.772H1155.9V77.182H1143.4V81.274H1155.06V84.596H1143.4V89.546H1156.36ZM1165.8 92.45L1169.1 78.172H1172.97L1169.6 93H1162.01L1158.69 78.172H1162.61L1165.8 92.45ZM1178.36 84.244H1187.1C1186.94 83.452 1186.59 82.814 1186.04 82.286C1185.27 81.538 1184.15 81.164 1182.72 81.164C1181.31 81.164 1180.19 81.538 1179.42 82.286C1178.87 82.814 1178.52 83.452 1178.36 84.244ZM1187.18 85.674L1183.05 85.652H1178.27C1178.32 86.774 1178.71 87.676 1179.42 88.358C1180.19 89.128 1181.29 89.502 1182.72 89.502C1184.15 89.502 1185.27 89.128 1186.04 88.358C1186.11 88.292 1186.17 88.226 1186.24 88.16H1190.4C1190.11 89.15 1189.63 89.964 1188.97 90.624C1187.54 92.208 1185.45 93 1182.72 93C1179.95 93 1177.88 92.208 1176.47 90.624C1175.3 89.436 1174.71 87.72 1174.71 85.476C1174.71 83.232 1175.3 81.516 1176.47 80.328C1177.88 78.744 1179.95 77.952 1182.72 77.952C1185.45 77.952 1187.54 78.744 1188.97 80.328C1190.15 81.516 1190.75 83.232 1190.75 85.476C1190.75 85.52 1190.75 85.564 1190.75 85.608V85.674H1187.18ZM1206.59 80.02C1207.07 80.548 1207.36 81.098 1207.47 81.648C1207.58 82.22 1207.62 83.122 1207.62 84.398V92.956H1203.53V84.09C1203.53 83.342 1202.69 81.274 1200.14 81.252C1198.95 81.252 1198.05 81.582 1197.44 82.242C1196.82 82.902 1196.49 83.826 1196.49 85.058V92.956H1196.42H1193.67H1192.49C1192.49 89.568 1192.49 78.15 1192.49 78.15H1196.36L1195.37 83.54L1196.12 81.45C1196.56 80.24 1197.41 79.228 1198.58 78.744C1198.65 78.7 1198.71 78.678 1198.78 78.656C1199.66 78.326 1200.56 78.15 1201.51 78.15C1202.58 78.15 1203.55 78.304 1204.43 78.612C1205.31 78.92 1206.02 79.382 1206.59 80.02ZM1215.39 88.908C1215.72 89.612 1216.35 89.964 1217.3 89.964C1218.14 89.964 1218.8 89.722 1219.28 89.26V91.856C1218.82 92.208 1218.38 92.472 1217.96 92.626C1217.43 92.802 1216.82 92.89 1216.11 92.89C1214.11 92.89 1212.75 92.164 1212.04 90.712C1211.65 89.898 1211.45 88.71 1211.45 87.148V79.888H1209.6V78.612H1211.45V75.752H1215.12V78.612H1217.32V79.888H1215.12V87.148C1215.12 87.94 1215.21 88.512 1215.39 88.908ZM1026.46 115.062C1027.09 113.786 1028.63 112.444 1031.08 110.992C1033.19 109.76 1034.55 108.858 1035.17 108.33C1036.14 107.494 1036.6 106.57 1036.6 105.58C1036.6 104.766 1036.33 104.084 1035.78 103.534C1035.23 103.006 1034.46 102.742 1033.43 102.742C1032.04 102.742 1031.1 103.16 1030.59 104.018C1030.31 104.524 1030.13 105.294 1030.09 106.372H1025.62C1025.71 104.744 1026.06 103.424 1026.7 102.412C1027.93 100.498 1030.11 99.53 1033.23 99.53C1035.7 99.53 1037.65 100.102 1039.11 101.224C1040.58 102.346 1041.31 103.842 1041.31 105.712C1041.31 107.12 1040.78 108.396 1039.74 109.496C1039.08 110.222 1037.96 111.036 1036.42 111.938L1034.57 113.016C1033.43 113.698 1032.64 114.182 1032.22 114.468C1031.8 114.776 1031.45 115.128 1031.16 115.524H1041.33V118.846H1025.38C1025.42 117.46 1025.77 116.206 1026.46 115.062ZM1057.48 106.02C1057.96 106.548 1058.25 107.098 1058.36 107.648C1058.47 108.22 1058.51 109.122 1058.51 110.398V118.956H1054.42V110.09C1054.42 109.342 1053.58 107.274 1051.03 107.252C1049.84 107.252 1048.94 107.582 1048.32 108.242C1047.71 108.902 1047.38 109.826 1047.38 111.058V118.956H1047.31H1044.56H1043.37C1043.37 115.568 1043.37 104.15 1043.37 104.15H1047.25L1046.26 109.54L1047 107.45C1047.44 106.24 1048.3 105.228 1049.47 104.744C1049.53 104.7 1049.6 104.678 1049.67 104.656C1050.55 104.326 1051.45 104.15 1052.39 104.15C1053.47 104.15 1054.44 104.304 1055.32 104.612C1056.2 104.92 1056.9 105.382 1057.48 106.02ZM1072.13 115.04C1072.85 114.248 1073.23 113.148 1073.23 111.696C1073.23 110.244 1072.85 109.144 1072.13 108.374C1071.4 107.582 1070.37 107.186 1069 107.186C1067.66 107.186 1066.63 107.582 1065.9 108.374C1065.2 109.144 1064.82 110.244 1064.82 111.696C1064.82 113.148 1065.2 114.248 1065.9 115.04C1066.63 115.832 1067.66 116.206 1069 116.206C1070.37 116.206 1071.4 115.832 1072.13 115.04ZM1073.27 107.472C1073.27 103.952 1073.27 100.344 1073.27 99.794H1077.25V118.89H1073.27L1074.08 114.05C1074.08 114.05 1074.06 114.072 1074.04 114.094C1073.75 115.106 1073.31 116.03 1072.65 116.844C1071.53 118.274 1069.84 119 1067.57 119C1065.31 119 1063.59 118.274 1062.49 116.844C1061.37 115.436 1060.82 113.698 1060.82 111.696C1060.82 109.716 1061.37 108 1062.49 106.57C1063.59 105.118 1065.31 104.392 1067.57 104.392C1069.84 104.392 1071.53 105.118 1072.65 106.57C1072.87 106.856 1073.09 107.164 1073.27 107.472ZM1103.84 115.92C1104.99 115.524 1105.56 114.776 1105.56 113.676C1105.56 113.06 1105.27 112.554 1104.7 112.202C1104.15 111.872 1102.68 111.564 1101.47 111.3L1098.8 110.86C1096.76 110.398 1095.35 109.914 1094.58 109.386C1093.28 108.484 1092.64 107.098 1092.64 105.206C1092.64 103.49 1093.28 102.06 1094.54 100.916C1095.81 99.772 1098.25 99.2 1100.7 99.2C1102.76 99.2 1105.1 99.75 1106.53 100.828C1107.98 101.906 1108.75 103.446 1108.81 105.492H1104.94C1104.88 104.348 1104.37 103.512 1103.4 103.028C1102.76 102.72 1101.38 102.544 1100.43 102.544C1099.38 102.544 1097.95 102.764 1097.31 103.182C1096.67 103.6 1096.36 104.172 1096.36 104.92C1096.36 105.624 1096.67 106.13 1097.29 106.46C1097.7 106.702 1099.13 106.966 1100.43 107.274L1104.37 108.066C1105.87 108.418 1106.97 108.88 1107.71 109.452C1108.86 110.354 1109.43 111.674 1109.43 113.39C1109.43 115.15 1108.75 116.602 1107.38 117.768C1106.04 118.934 1103.53 119.506 1101.05 119.506C1098.52 119.506 1095.94 118.934 1094.49 117.79C1093.04 116.646 1092.34 115.084 1092.34 113.082H1096.16C1096.3 113.94 1096.54 114.6 1096.89 115.04C1097.57 115.832 1099.29 116.228 1100.89 116.228C1101.86 116.228 1103.23 116.118 1103.84 115.92ZM1116 110.244H1124.74C1124.58 109.452 1124.23 108.814 1123.68 108.286C1122.91 107.538 1121.79 107.164 1120.36 107.164C1118.95 107.164 1117.83 107.538 1117.06 108.286C1116.51 108.814 1116.16 109.452 1116 110.244ZM1124.83 111.674L1120.69 111.652H1115.92C1115.96 112.774 1116.36 113.676 1117.06 114.358C1117.83 115.128 1118.93 115.502 1120.36 115.502C1121.79 115.502 1122.91 115.128 1123.68 114.358C1123.75 114.292 1123.81 114.226 1123.88 114.16H1128.04C1127.75 115.15 1127.27 115.964 1126.61 116.624C1125.18 118.208 1123.09 119 1120.36 119C1117.59 119 1115.52 118.208 1114.11 116.624C1112.95 115.436 1112.35 113.72 1112.35 111.476C1112.35 109.232 1112.95 107.516 1114.11 106.328C1115.52 104.744 1117.59 103.952 1120.36 103.952C1123.09 103.952 1125.18 104.744 1126.61 106.328C1127.8 107.516 1128.39 109.232 1128.39 111.476C1128.39 111.52 1128.39 111.564 1128.39 111.608V111.674H1124.83ZM1142.4 115.37C1143.13 114.6 1143.48 113.478 1143.48 112.048C1143.48 110.596 1143.13 109.474 1142.4 108.704C1141.68 107.912 1140.64 107.516 1139.3 107.516C1137.96 107.516 1136.9 107.912 1136.18 108.704C1135.45 109.474 1135.1 110.596 1135.1 112.048C1135.1 113.478 1135.45 114.6 1136.18 115.37C1136.9 116.162 1137.96 116.536 1139.3 116.536C1140.64 116.536 1141.68 116.162 1142.4 115.37ZM1140.73 104.744C1143.02 104.744 1144.71 105.448 1145.83 106.878C1146.93 108.308 1147.51 110.024 1147.51 112.048C1147.51 114.006 1146.93 115.722 1145.83 117.174C1144.71 118.626 1143.02 119.352 1140.73 119.352C1138.46 119.352 1136.77 118.626 1135.65 117.174C1135.43 116.888 1135.23 116.58 1135.05 116.272C1135.03 119.792 1135.03 123.4 1135.03 123.928H1131.05V104.656H1135.05L1134.22 109.694C1134.22 109.694 1134.24 109.672 1134.28 109.65C1134.55 108.616 1135.01 107.714 1135.65 106.878C1136.77 105.448 1138.46 104.744 1140.73 104.744ZM1154.68 114.908C1155.01 115.612 1155.65 115.964 1156.6 115.964C1157.43 115.964 1158.09 115.722 1158.58 115.26V117.856C1158.11 118.208 1157.67 118.472 1157.26 118.626C1156.73 118.802 1156.11 118.89 1155.41 118.89C1153.41 118.89 1152.04 118.164 1151.34 116.712C1150.94 115.898 1150.74 114.71 1150.74 113.148V105.888H1148.9V104.612H1150.74V101.752H1154.42V104.612H1156.62V105.888H1154.42V113.148C1154.42 113.94 1154.51 114.512 1154.68 114.908ZM1163.27 110.244H1172C1171.85 109.452 1171.5 108.814 1170.95 108.286C1170.18 107.538 1169.06 107.164 1167.63 107.164C1166.22 107.164 1165.1 107.538 1164.33 108.286C1163.78 108.814 1163.42 109.452 1163.27 110.244ZM1172.09 111.674L1167.96 111.652H1163.18C1163.23 112.774 1163.62 113.676 1164.33 114.358C1165.1 115.128 1166.2 115.502 1167.63 115.502C1169.06 115.502 1170.18 115.128 1170.95 114.358C1171.01 114.292 1171.08 114.226 1171.15 114.16H1175.3C1175.02 115.15 1174.53 115.964 1173.87 116.624C1172.44 118.208 1170.35 119 1167.63 119C1164.85 119 1162.79 118.208 1161.38 116.624C1160.21 115.436 1159.62 113.72 1159.62 111.476C1159.62 109.232 1160.21 107.516 1161.38 106.328C1162.79 104.744 1164.85 103.952 1167.63 103.952C1170.35 103.952 1172.44 104.744 1173.87 106.328C1175.06 107.516 1175.66 109.232 1175.66 111.476C1175.66 111.52 1175.66 111.564 1175.66 111.608V111.674H1172.09ZM1202.52 106.02C1202.98 106.548 1203.29 107.098 1203.37 107.648C1203.48 108.22 1203.55 109.122 1203.55 110.398V118.956H1199.44V110.09C1199.44 109.342 1198.6 107.274 1196.07 107.252C1194.88 107.252 1193.96 107.582 1193.34 108.242C1192.92 108.682 1192.66 109.254 1192.53 109.958C1192.53 110.09 1192.53 110.244 1192.53 110.398V118.956H1192.42H1189.6H1188.44V110.09C1188.44 109.342 1187.6 107.274 1185.05 107.252C1183.86 107.252 1182.96 107.582 1182.34 108.242C1181.73 108.902 1181.4 109.826 1181.4 111.058V118.956H1181.33H1178.58H1177.39C1177.39 115.568 1177.39 104.15 1177.39 104.15H1181.26L1180.27 109.54L1181.02 107.45C1181.46 106.24 1182.32 105.228 1183.49 104.744C1183.55 104.7 1183.62 104.678 1183.68 104.656C1184.56 104.326 1185.47 104.15 1186.41 104.15C1187.49 104.15 1188.46 104.304 1189.34 104.612C1190.22 104.92 1190.92 105.382 1191.49 106.02C1191.8 106.35 1192.04 106.724 1192.2 107.076C1192.66 106.042 1193.47 105.184 1194.49 104.744C1194.55 104.7 1194.64 104.678 1194.71 104.656C1195.56 104.326 1196.49 104.15 1197.43 104.15C1198.51 104.15 1199.48 104.304 1200.36 104.612C1201.22 104.92 1201.94 105.382 1202.52 106.02ZM1217.19 115.04C1217.92 114.248 1218.27 113.148 1218.27 111.696C1218.27 110.244 1217.92 109.144 1217.19 108.374C1216.46 107.582 1215.43 107.186 1214.09 107.186C1212.75 107.186 1211.71 107.582 1210.96 108.374C1210.24 109.144 1209.89 110.244 1209.89 111.696C1209.89 113.148 1210.24 114.248 1210.96 115.04C1211.71 115.832 1212.75 116.206 1214.09 116.206C1215.43 116.206 1216.46 115.832 1217.19 115.04ZM1215.52 104.392C1217.81 104.392 1219.5 105.118 1220.62 106.57C1221.74 108 1222.29 109.716 1222.29 111.696C1222.29 113.698 1221.74 115.436 1220.62 116.844C1219.5 118.274 1217.81 119 1215.52 119C1213.25 119 1211.56 118.274 1210.44 116.844C1209.8 116.03 1209.34 115.106 1209.07 114.094C1209.03 114.072 1209.01 114.05 1209.01 114.05L1209.84 118.89H1205.86V99.794H1209.84C1209.84 100.344 1209.84 103.952 1209.84 107.472C1210.02 107.164 1210.22 106.856 1210.44 106.57C1211.56 105.118 1213.25 104.392 1215.52 104.392ZM1228.86 110.244H1237.6C1237.44 109.452 1237.09 108.814 1236.54 108.286C1235.77 107.538 1234.65 107.164 1233.22 107.164C1231.81 107.164 1230.69 107.538 1229.92 108.286C1229.37 108.814 1229.02 109.452 1228.86 110.244ZM1237.68 111.674L1233.55 111.652H1228.77C1228.82 112.774 1229.21 113.676 1229.92 114.358C1230.69 115.128 1231.79 115.502 1233.22 115.502C1234.65 115.502 1235.77 115.128 1236.54 114.358C1236.61 114.292 1236.67 114.226 1236.74 114.16H1240.9C1240.61 115.15 1240.13 115.964 1239.47 116.624C1238.04 118.208 1235.95 119 1233.22 119C1230.45 119 1228.38 118.208 1226.97 116.624C1225.8 115.436 1225.21 113.72 1225.21 111.476C1225.21 109.232 1225.8 107.516 1226.97 106.328C1228.38 104.744 1230.45 103.952 1233.22 103.952C1235.95 103.952 1238.04 104.744 1239.47 106.328C1240.65 107.516 1241.25 109.232 1241.25 111.476C1241.25 111.52 1241.25 111.564 1241.25 111.608V111.674H1237.68ZM1249.28 104.656C1250.16 104.326 1251.06 104.15 1252 104.15C1252.4 104.15 1252.77 104.172 1253.15 104.216V108.242C1252.62 107.692 1251.81 107.252 1250.64 107.252C1249.45 107.252 1248.55 107.582 1247.93 108.242C1247.32 108.902 1246.99 109.826 1246.99 111.058V118.956H1246.92H1244.17H1242.98C1242.98 115.568 1242.98 104.15 1242.98 104.15H1246.86L1245.87 109.54L1246.61 107.45C1247.05 106.24 1247.91 105.228 1249.08 104.744C1249.14 104.7 1249.21 104.678 1249.28 104.656Z" fill="white"/>
<path d="M559.135 69.116V74.77H565.075C565.977 74.77 566.703 74.55 567.209 74.088C567.715 73.626 567.979 72.9 567.979 71.888C567.979 70.898 567.715 70.172 567.209 69.754C566.703 69.336 565.977 69.116 565.075 69.116H559.135ZM559.135 78.092V85H555.153V65.772H565.713C567.605 65.772 569.123 66.256 570.267 67.268C571.389 68.258 571.961 69.776 571.961 71.866C571.961 74.132 571.389 75.738 570.267 76.684C569.145 77.63 567.539 78.092 565.449 78.092H559.135ZM580.588 70.656C581.468 70.326 582.37 70.15 583.316 70.15C583.712 70.15 584.086 70.172 584.46 70.216V74.242C583.932 73.692 583.118 73.252 581.952 73.252C580.764 73.252 579.862 73.582 579.246 74.242C578.63 74.902 578.3 75.826 578.3 77.058V84.956H578.234H575.484H574.296C574.296 81.568 574.296 70.15 574.296 70.15H578.168L577.178 75.54L577.926 73.45C578.366 72.24 579.224 71.228 580.39 70.744C580.456 70.7 580.522 70.678 580.588 70.656ZM589.456 76.244H598.19C598.036 75.452 597.684 74.814 597.134 74.286C596.364 73.538 595.242 73.164 593.812 73.164C592.404 73.164 591.282 73.538 590.512 74.286C589.962 74.814 589.61 75.452 589.456 76.244ZM598.278 77.674L594.142 77.652H589.368C589.412 78.774 589.808 79.676 590.512 80.358C591.282 81.128 592.382 81.502 593.812 81.502C595.242 81.502 596.364 81.128 597.134 80.358C597.2 80.292 597.266 80.226 597.332 80.16H601.49C601.204 81.15 600.72 81.964 600.06 82.624C598.63 84.208 596.54 85 593.812 85C591.04 85 588.972 84.208 587.564 82.624C586.398 81.436 585.804 79.72 585.804 77.476C585.804 75.232 586.398 73.516 587.564 72.328C588.972 70.744 591.04 69.952 593.812 69.952C596.54 69.952 598.63 70.744 600.06 72.328C601.248 73.516 601.842 75.232 601.842 77.476C601.842 77.52 601.842 77.564 601.842 77.608V77.674H598.278ZM607.473 74.264C607.473 76.596 616.471 75.804 617.461 80.248C618.715 85.88 603.733 87.2 602.831 80.666H606.527C607.737 82.602 613.215 82.866 613.215 80.842C613.215 77.916 604.063 79.786 603.271 74.946C602.303 69.006 616.295 68.28 617.021 74.88H613.303C613.039 72.768 607.473 72.174 607.473 74.264ZM624.281 80.424C623.775 82.426 628.285 83.504 630.287 80.138C630.287 79.302 630.287 78.444 630.287 77.652C628.307 78.026 624.831 78.158 624.281 80.424ZM621.289 71.206C621.289 71.206 631.101 68.236 633.961 73.098C634.401 73.846 634.489 74.748 634.489 75.606V85.154H630.287L630.969 80.974C630.925 81.084 630.881 81.194 630.815 81.282C628.307 86.298 618.209 86.958 619.463 80.952C620.299 76.926 626.371 75.892 630.243 75.65C629.671 71.118 621.267 74.33 621.267 74.33L621.289 71.206ZM636.536 85.022V65.882H640.1V85.022H636.536ZM646.691 76.244H655.425C655.271 75.452 654.919 74.814 654.369 74.286C653.599 73.538 652.477 73.164 651.047 73.164C649.639 73.164 648.517 73.538 647.747 74.286C647.197 74.814 646.845 75.452 646.691 76.244ZM655.513 77.674L651.377 77.652H646.603C646.647 78.774 647.043 79.676 647.747 80.358C648.517 81.128 649.617 81.502 651.047 81.502C652.477 81.502 653.599 81.128 654.369 80.358C654.435 80.292 654.501 80.226 654.567 80.16H658.725C658.439 81.15 657.955 81.964 657.295 82.624C655.865 84.208 653.775 85 651.047 85C648.275 85 646.207 84.208 644.799 82.624C643.633 81.436 643.039 79.72 643.039 77.476C643.039 75.232 643.633 73.516 644.799 72.328C646.207 70.744 648.275 69.952 651.047 69.952C653.775 69.952 655.865 70.744 657.295 72.328C658.483 73.516 659.077 75.232 659.077 77.476C659.077 77.52 659.077 77.564 659.077 77.608V77.674H655.513ZM675.929 81.062C676.567 79.786 678.107 78.444 680.549 76.992C682.661 75.76 684.025 74.858 684.641 74.33C685.609 73.494 686.071 72.57 686.071 71.58C686.071 70.766 685.807 70.084 685.257 69.534C684.707 69.006 683.937 68.742 682.903 68.742C681.517 68.742 680.571 69.16 680.065 70.018C679.779 70.524 679.603 71.294 679.559 72.372H675.093C675.181 70.744 675.533 69.424 676.171 68.412C677.403 66.498 679.581 65.53 682.705 65.53C685.169 65.53 687.127 66.102 688.579 67.224C690.053 68.346 690.779 69.842 690.779 71.712C690.779 73.12 690.251 74.396 689.217 75.496C688.557 76.222 687.435 77.036 685.895 77.938L684.047 79.016C682.903 79.698 682.111 80.182 681.693 80.468C681.275 80.776 680.923 81.128 680.637 81.524H690.801V84.846H674.851C674.895 83.46 675.247 82.206 675.929 81.062ZM495.852 91.64H499.218V111.132H495.082V97.69H492.376V94.918C492.596 94.896 492.772 94.874 492.904 94.83C493.718 94.654 494.378 94.324 494.884 93.818C495.236 93.466 495.5 93.004 495.676 92.41C495.786 92.058 495.852 91.794 495.852 91.64ZM505.993 91.64H509.359V111.132H505.223V97.69H502.517V94.918C502.737 94.896 502.913 94.874 503.045 94.83C503.859 94.654 504.519 94.324 505.025 93.818C505.377 93.466 505.641 93.004 505.817 92.41C505.927 92.058 505.993 91.794 505.993 91.64ZM517.189 106.908C517.519 107.612 518.157 107.964 519.103 107.964C519.939 107.964 520.599 107.722 521.083 107.26V109.856C520.621 110.208 520.181 110.472 519.763 110.626C519.235 110.802 518.619 110.89 517.915 110.89C515.913 110.89 514.549 110.164 513.845 108.712C513.449 107.898 513.251 106.71 513.251 105.148V97.888H511.403V96.612H513.251V93.752H516.925V96.612H519.125V97.888H516.925V105.148C516.925 105.94 517.013 106.512 517.189 106.908ZM535.963 98.196C536.447 98.746 536.755 99.274 536.865 99.846C536.975 100.396 537.019 101.32 537.019 102.596V110.956H532.817V102.288C532.817 101.518 531.959 99.45 529.341 99.45C528.131 99.428 527.185 99.78 526.547 100.44C525.909 101.078 525.601 102.024 525.601 103.234V110.956H525.447H522.697H521.509C521.509 107.788 521.509 93.422 521.509 91.618H525.557V96.48L524.347 101.958L525.205 99.648C525.645 98.438 526.547 97.426 527.735 96.92C527.801 96.898 527.867 96.876 527.955 96.832C528.835 96.524 529.759 96.348 530.749 96.348C531.849 96.348 532.861 96.502 533.741 96.81C534.643 97.118 535.391 97.58 535.963 98.196ZM552.124 103.168H559.12V106.27H552.124V103.168ZM575.36 107.062C575.998 105.786 577.538 104.444 579.98 102.992C582.092 101.76 583.456 100.858 584.072 100.33C585.04 99.494 585.502 98.57 585.502 97.58C585.502 96.766 585.238 96.084 584.688 95.534C584.138 95.006 583.368 94.742 582.334 94.742C580.948 94.742 580.002 95.16 579.496 96.018C579.21 96.524 579.034 97.294 578.99 98.372H574.524C574.612 96.744 574.964 95.424 575.602 94.412C576.834 92.498 579.012 91.53 582.136 91.53C584.6 91.53 586.558 92.102 588.01 93.224C589.484 94.346 590.21 95.842 590.21 97.712C590.21 99.12 589.682 100.396 588.648 101.496C587.988 102.222 586.866 103.036 585.326 103.938L583.478 105.016C582.334 105.698 581.542 106.182 581.124 106.468C580.706 106.776 580.354 107.128 580.068 107.524H590.232V110.846H574.282C574.326 109.46 574.678 108.206 575.36 107.062ZM610.67 94.786C609.922 95.336 608.91 96.304 607.59 97.712C606.27 99.12 605.17 100.572 604.268 102.068C603.564 103.234 602.948 104.664 602.376 106.358C601.804 108.052 601.518 109.46 601.518 110.538H596.414C596.546 107.15 598.042 103.63 600.836 99.956C602.64 97.69 604.158 96.106 605.39 95.226H592.894L592.96 91.882H610.67V94.786ZM618.488 106.908C618.818 107.612 619.456 107.964 620.402 107.964C621.238 107.964 621.898 107.722 622.382 107.26V109.856C621.92 110.208 621.48 110.472 621.062 110.626C620.534 110.802 619.918 110.89 619.214 110.89C617.212 110.89 615.848 110.164 615.144 108.712C614.748 107.898 614.55 106.71 614.55 105.148V97.888H612.702V96.612H614.55V93.752H618.224V96.612H620.424V97.888H618.224V105.148C618.224 105.94 618.312 106.512 618.488 106.908ZM637.262 98.196C637.746 98.746 638.054 99.274 638.164 99.846C638.274 100.396 638.318 101.32 638.318 102.596V110.956H634.116V102.288C634.116 101.518 633.258 99.45 630.64 99.45C629.43 99.428 628.484 99.78 627.846 100.44C627.208 101.078 626.9 102.024 626.9 103.234V110.956H626.746H623.996H622.808C622.808 107.788 622.808 93.422 622.808 91.618H626.856V96.48L625.646 101.958L626.504 99.648C626.944 98.438 627.846 97.426 629.034 96.92C629.1 96.898 629.166 96.876 629.254 96.832C630.134 96.524 631.058 96.348 632.048 96.348C633.148 96.348 634.16 96.502 635.04 96.81C635.942 97.118 636.69 97.58 637.262 98.196ZM660.023 103.74H668.779L664.423 92.322L660.023 103.74ZM671.111 111L669.857 107.062H658.923L657.625 111H653.423L660.287 91.772H668.669L675.489 111H671.111ZM689.006 96.15H691.734H692.944C692.944 99.538 692.944 110.956 692.944 110.956H689.05L690.062 105.566L689.292 107.656C688.874 108.866 687.994 109.878 686.85 110.384C686.784 110.406 686.696 110.428 686.63 110.472C685.772 110.78 684.87 110.956 683.902 110.956C682.824 110.956 681.856 110.802 680.976 110.494C680.118 110.186 679.392 109.724 678.842 109.108C678.358 108.558 678.072 108.03 677.962 107.458C677.852 106.886 677.808 105.984 677.808 104.708V96.15H681.9V105.016C681.9 105.786 682.736 107.854 685.266 107.854C686.454 107.876 687.378 107.524 687.994 106.864C688.61 106.226 688.918 105.28 688.918 104.048V96.15H689.006ZM706.561 107.04C707.067 106.49 707.397 105.742 707.551 104.862V104.708V102.53C707.397 101.65 707.067 100.924 706.561 100.374C705.835 99.582 704.801 99.186 703.437 99.186C702.095 99.186 701.061 99.582 700.335 100.374C699.631 101.144 699.257 102.244 699.257 103.696C699.257 105.148 699.631 106.248 700.335 107.04C701.061 107.832 702.095 108.206 703.437 108.206C704.801 108.206 705.835 107.832 706.561 107.04ZM708.629 101.914L707.551 96.15H711.445C711.445 96.15 711.445 107.634 711.445 110.868C711.445 114.102 709.003 117.182 705.109 117.358C698.267 117.688 696.441 115.07 696.441 115.07L696.199 112.298C696.199 112.298 699.895 115.114 704.669 113.992C707.837 113.244 707.551 109.768 707.551 109.768V108.206C707.419 108.426 707.265 108.646 707.089 108.844C705.967 110.274 704.273 111 702.007 111C699.741 111 698.025 110.274 696.925 108.844C695.803 107.436 695.253 105.698 695.253 103.696C695.253 101.716 695.803 100 696.925 98.57C698.025 97.118 699.741 96.392 702.007 96.392C704.273 96.392 705.967 97.118 707.089 98.57C707.859 99.56 708.365 100.66 708.607 101.892L708.629 101.914ZM724.949 96.15H727.677H728.887C728.887 99.538 728.887 110.956 728.887 110.956H724.993L726.005 105.566L725.235 107.656C724.817 108.866 723.937 109.878 722.793 110.384C722.727 110.406 722.639 110.428 722.573 110.472C721.715 110.78 720.813 110.956 719.845 110.956C718.767 110.956 717.799 110.802 716.919 110.494C716.061 110.186 715.335 109.724 714.785 109.108C714.301 108.558 714.015 108.03 713.905 107.458C713.795 106.886 713.751 105.984 713.751 104.708V96.15H717.843V105.016C717.843 105.786 718.679 107.854 721.209 107.854C722.397 107.876 723.321 107.524 723.937 106.864C724.553 106.226 724.861 105.28 724.861 104.048V96.15H724.949ZM735.09 100.264C735.09 102.596 744.088 101.804 745.078 106.248C746.332 111.88 731.35 113.2 730.448 106.666H734.144C735.354 108.602 740.832 108.866 740.832 106.842C740.832 103.916 731.68 105.786 730.888 100.946C729.92 95.006 743.912 94.28 744.638 100.88H740.92C740.656 98.768 735.09 98.174 735.09 100.264ZM752.228 106.908C752.558 107.612 753.196 107.964 754.142 107.964C754.978 107.964 755.638 107.722 756.122 107.26V109.856C755.66 110.208 755.22 110.472 754.802 110.626C754.274 110.802 753.658 110.89 752.954 110.89C750.952 110.89 749.588 110.164 748.884 108.712C748.488 107.898 748.29 106.71 748.29 105.148V97.888H746.442V96.612H748.29V93.752H751.964V96.612H754.164V97.888H751.964V105.148C751.964 105.94 752.052 106.512 752.228 106.908Z" fill="white"/>
<path d="M52.1353 69.116V74.77H58.0753C58.9773 74.77 59.7033 74.55 60.2093 74.088C60.7153 73.626 60.9793 72.9 60.9793 71.888C60.9793 70.898 60.7153 70.172 60.2093 69.754C59.7033 69.336 58.9773 69.116 58.0753 69.116H52.1353ZM52.1353 78.092V85H48.1533V65.772H58.7133C60.6053 65.772 62.1233 66.256 63.2673 67.268C64.3893 68.258 64.9613 69.776 64.9613 71.866C64.9613 74.132 64.3893 75.738 63.2673 76.684C62.1453 77.63 60.5393 78.092 58.4493 78.092H52.1353ZM73.5879 70.656C74.4679 70.326 75.3699 70.15 76.3159 70.15C76.7119 70.15 77.0859 70.172 77.4599 70.216V74.242C76.9319 73.692 76.1179 73.252 74.9519 73.252C73.7639 73.252 72.8619 73.582 72.2459 74.242C71.6299 74.902 71.2999 75.826 71.2999 77.058V84.956H71.2339H68.4839H67.2959C67.2959 81.568 67.2959 70.15 67.2959 70.15H71.1679L70.1779 75.54L70.9259 73.45C71.3659 72.24 72.2239 71.228 73.3899 70.744C73.4559 70.7 73.5219 70.678 73.5879 70.656ZM82.4565 76.244H91.1905C91.0365 75.452 90.6845 74.814 90.1345 74.286C89.3645 73.538 88.2425 73.164 86.8125 73.164C85.4045 73.164 84.2825 73.538 83.5125 74.286C82.9625 74.814 82.6105 75.452 82.4565 76.244ZM91.2785 77.674L87.1425 77.652H82.3685C82.4125 78.774 82.8085 79.676 83.5125 80.358C84.2825 81.128 85.3825 81.502 86.8125 81.502C88.2425 81.502 89.3645 81.128 90.1345 80.358C90.2005 80.292 90.2665 80.226 90.3325 80.16H94.4905C94.2045 81.15 93.7205 81.964 93.0605 82.624C91.6305 84.208 89.5405 85 86.8125 85C84.0405 85 81.9725 84.208 80.5645 82.624C79.3985 81.436 78.8045 79.72 78.8045 77.476C78.8045 75.232 79.3985 73.516 80.5645 72.328C81.9725 70.744 84.0405 69.952 86.8125 69.952C89.5405 69.952 91.6305 70.744 93.0605 72.328C94.2485 73.516 94.8425 75.232 94.8425 77.476C94.8425 77.52 94.8425 77.564 94.8425 77.608V77.674H91.2785ZM100.473 74.264C100.473 76.596 109.471 75.804 110.461 80.248C111.715 85.88 96.7331 87.2 95.8311 80.666H99.5271C100.737 82.602 106.215 82.866 106.215 80.842C106.215 77.916 97.0631 79.786 96.2711 74.946C95.3031 69.006 109.295 68.28 110.021 74.88H106.303C106.039 72.768 100.473 72.174 100.473 74.264ZM117.281 80.424C116.775 82.426 121.285 83.504 123.287 80.138C123.287 79.302 123.287 78.444 123.287 77.652C121.307 78.026 117.831 78.158 117.281 80.424ZM114.289 71.206C114.289 71.206 124.101 68.236 126.961 73.098C127.401 73.846 127.489 74.748 127.489 75.606V85.154H123.287L123.969 80.974C123.925 81.084 123.881 81.194 123.815 81.282C121.307 86.298 111.209 86.958 112.463 80.952C113.299 76.926 119.371 75.892 123.243 75.65C122.671 71.118 114.267 74.33 114.267 74.33L114.289 71.206ZM129.536 85.022V65.882H133.1V85.022H129.536ZM139.691 76.244H148.425C148.271 75.452 147.919 74.814 147.369 74.286C146.599 73.538 145.477 73.164 144.047 73.164C142.639 73.164 141.517 73.538 140.747 74.286C140.197 74.814 139.845 75.452 139.691 76.244ZM148.513 77.674L144.377 77.652H139.603C139.647 78.774 140.043 79.676 140.747 80.358C141.517 81.128 142.617 81.502 144.047 81.502C145.477 81.502 146.599 81.128 147.369 80.358C147.435 80.292 147.501 80.226 147.567 80.16H151.725C151.439 81.15 150.955 81.964 150.295 82.624C148.865 84.208 146.775 85 144.047 85C141.275 85 139.207 84.208 137.799 82.624C136.633 81.436 136.039 79.72 136.039 77.476C136.039 75.232 136.633 73.516 137.799 72.328C139.207 70.744 141.275 69.952 144.047 69.952C146.775 69.952 148.865 70.744 150.295 72.328C151.483 73.516 152.077 75.232 152.077 77.476C152.077 77.52 152.077 77.564 152.077 77.608V77.674H148.513ZM168.929 81.062C169.567 79.786 171.107 78.444 173.549 76.992C175.661 75.76 177.025 74.858 177.641 74.33C178.609 73.494 179.071 72.57 179.071 71.58C179.071 70.766 178.807 70.084 178.257 69.534C177.707 69.006 176.937 68.742 175.903 68.742C174.517 68.742 173.571 69.16 173.065 70.018C172.779 70.524 172.603 71.294 172.559 72.372H168.093C168.181 70.744 168.533 69.424 169.171 68.412C170.403 66.498 172.581 65.53 175.705 65.53C178.169 65.53 180.127 66.102 181.579 67.224C183.053 68.346 183.779 69.842 183.779 71.712C183.779 73.12 183.251 74.396 182.217 75.496C181.557 76.222 180.435 77.036 178.895 77.938L177.047 79.016C175.903 79.698 175.111 80.182 174.693 80.468C174.275 80.776 173.923 81.128 173.637 81.524H183.801V84.846H167.851C167.895 83.46 168.247 82.206 168.929 81.062ZM4.67539 91.64H8.04139V111.132H3.90539V97.69H1.19939V94.918C1.41939 94.896 1.59539 94.874 1.72739 94.83C2.54139 94.654 3.20139 94.324 3.70739 93.818C4.05939 93.466 4.32339 93.004 4.49939 92.41C4.60939 92.058 4.67539 91.794 4.67539 91.64ZM14.31 100.264C14.31 102.596 23.308 101.804 24.298 106.248C25.552 111.88 10.57 113.2 9.66802 106.666H13.364C14.574 108.602 20.052 108.866 20.052 106.842C20.052 103.916 10.9 105.786 10.108 100.946C9.14002 95.006 23.132 94.28 23.858 100.88H20.14C19.876 98.768 14.31 98.174 14.31 100.264ZM31.4482 106.908C31.7782 107.612 32.4162 107.964 33.3622 107.964C34.1982 107.964 34.8582 107.722 35.3422 107.26V109.856C34.8802 110.208 34.4402 110.472 34.0222 110.626C33.4942 110.802 32.8782 110.89 32.1742 110.89C30.1722 110.89 28.8082 110.164 28.1042 108.712C27.7082 107.898 27.5102 106.71 27.5102 105.148V97.888H25.6622V96.612H27.5102V93.752H31.1842V96.612H33.3842V97.888H31.1842V105.148C31.1842 105.94 31.2722 106.512 31.4482 106.908ZM48.5508 103.168H55.5468V106.27H48.5508V103.168ZM87.8471 94.786C87.0991 95.336 86.0871 96.304 84.7671 97.712C83.4471 99.12 82.3471 100.572 81.4451 102.068C80.7411 103.234 80.1251 104.664 79.5531 106.358C78.9811 108.052 78.6951 109.46 78.6951 110.538H73.5911C73.7231 107.15 75.2191 103.63 78.0131 99.956C79.8171 97.69 81.3351 96.106 82.5671 95.226H70.0711L70.1371 91.882H87.8471V94.786ZM95.665 106.908C95.995 107.612 96.633 107.964 97.579 107.964C98.415 107.964 99.075 107.722 99.559 107.26V109.856C99.097 110.208 98.657 110.472 98.239 110.626C97.711 110.802 97.095 110.89 96.391 110.89C94.389 110.89 93.025 110.164 92.321 108.712C91.925 107.898 91.727 106.71 91.727 105.148V97.888H89.879V96.612H91.727V93.752H95.401V96.612H97.601V97.888H95.401V105.148C95.401 105.94 95.489 106.512 95.665 106.908ZM114.438 98.196C114.922 98.746 115.23 99.274 115.34 99.846C115.45 100.396 115.494 101.32 115.494 102.596V110.956H111.292V102.288C111.292 101.518 110.434 99.45 107.816 99.45C106.606 99.428 105.66 99.78 105.022 100.44C104.384 101.078 104.076 102.024 104.076 103.234V110.956H103.922H101.172H99.9844C99.9844 107.788 99.9844 93.422 99.9844 91.618H104.032V96.48L102.822 101.958L103.68 99.648C104.12 98.438 105.022 97.426 106.21 96.92C106.276 96.898 106.342 96.876 106.43 96.832C107.31 96.524 108.234 96.348 109.224 96.348C110.324 96.348 111.336 96.502 112.216 96.81C113.118 97.118 113.866 97.58 114.438 98.196ZM137.2 103.74H145.956L141.6 92.322L137.2 103.74ZM148.288 111L147.034 107.062H136.1L134.802 111H130.6L137.464 91.772H145.846L152.666 111H148.288ZM166.182 96.15H168.91H170.12C170.12 99.538 170.12 110.956 170.12 110.956H166.226L167.238 105.566L166.468 107.656C166.05 108.866 165.17 109.878 164.026 110.384C163.96 110.406 163.872 110.428 163.806 110.472C162.948 110.78 162.046 110.956 161.078 110.956C160 110.956 159.032 110.802 158.152 110.494C157.294 110.186 156.568 109.724 156.018 109.108C155.534 108.558 155.248 108.03 155.138 107.458C155.028 106.886 154.984 105.984 154.984 104.708V96.15H159.076V105.016C159.076 105.786 159.912 107.854 162.442 107.854C163.63 107.876 164.554 107.524 165.17 106.864C165.786 106.226 166.094 105.28 166.094 104.048V96.15H166.182ZM183.738 107.04C184.244 106.49 184.574 105.742 184.728 104.862V104.708V102.53C184.574 101.65 184.244 100.924 183.738 100.374C183.012 99.582 181.978 99.186 180.614 99.186C179.272 99.186 178.238 99.582 177.512 100.374C176.808 101.144 176.434 102.244 176.434 103.696C176.434 105.148 176.808 106.248 177.512 107.04C178.238 107.832 179.272 108.206 180.614 108.206C181.978 108.206 183.012 107.832 183.738 107.04ZM185.806 101.914L184.728 96.15H188.622C188.622 96.15 188.622 107.634 188.622 110.868C188.622 114.102 186.18 117.182 182.286 117.358C175.444 117.688 173.618 115.07 173.618 115.07L173.376 112.298C173.376 112.298 177.072 115.114 181.846 113.992C185.014 113.244 184.728 109.768 184.728 109.768V108.206C184.596 108.426 184.442 108.646 184.266 108.844C183.144 110.274 181.45 111 179.184 111C176.918 111 175.202 110.274 174.102 108.844C172.98 107.436 172.43 105.698 172.43 103.696C172.43 101.716 172.98 100 174.102 98.57C175.202 97.118 176.918 96.392 179.184 96.392C181.45 96.392 183.144 97.118 184.266 98.57C185.036 99.56 185.542 100.66 185.784 101.892L185.806 101.914ZM202.126 96.15H204.854H206.064C206.064 99.538 206.064 110.956 206.064 110.956H202.17L203.182 105.566L202.412 107.656C201.994 108.866 201.114 109.878 199.97 110.384C199.904 110.406 199.816 110.428 199.75 110.472C198.892 110.78 197.99 110.956 197.022 110.956C195.944 110.956 194.976 110.802 194.096 110.494C193.238 110.186 192.512 109.724 191.962 109.108C191.478 108.558 191.192 108.03 191.082 107.458C190.972 106.886 190.928 105.984 190.928 104.708V96.15H195.02V105.016C195.02 105.786 195.856 107.854 198.386 107.854C199.574 107.876 200.498 107.524 201.114 106.864C201.73 106.226 202.038 105.28 202.038 104.048V96.15H202.126ZM212.267 100.264C212.267 102.596 221.265 101.804 222.255 106.248C223.509 111.88 208.527 113.2 207.625 106.666H211.321C212.531 108.602 218.009 108.866 218.009 106.842C218.009 103.916 208.857 105.786 208.065 100.946C207.097 95.006 221.089 94.28 221.815 100.88H218.097C217.833 98.768 212.267 98.174 212.267 100.264ZM229.405 106.908C229.735 107.612 230.373 107.964 231.319 107.964C232.155 107.964 232.815 107.722 233.299 107.26V109.856C232.837 110.208 232.397 110.472 231.979 110.626C231.451 110.802 230.835 110.89 230.131 110.89C228.129 110.89 226.765 110.164 226.061 108.712C225.665 107.898 225.467 106.71 225.467 105.148V97.888H223.619V96.612H225.467V93.752H229.141V96.612H231.341V97.888H229.141V105.148C229.141 105.94 229.229 106.512 229.405 106.908Z" fill="white"/>
</svg>
