<svg width="104" height="14" viewBox="0 0 104 14" fill="none" xmlns="http://www.w3.org/2000/svg">
<path d="M7.79841 10.9924C8.52641 10.7404 8.89041 10.2644 8.89041 9.56442C8.89041 9.17242 8.70841 8.85042 8.34441 8.62642C7.99441 8.41642 7.05641 8.22042 6.28641 8.05242L4.59241 7.77242C3.29041 7.47842 2.39441 7.17042 1.90441 6.83442C1.07841 6.26042 0.67241 5.37842 0.67241 4.17442C0.67241 3.08242 1.07841 2.17242 1.87641 1.44442C2.68841 0.716417 4.24241 0.352417 5.79641 0.352417C7.11241 0.352417 8.59641 0.702417 9.50641 1.38842C10.4304 2.07442 10.9204 3.05442 10.9624 4.35642H8.49841C8.45641 3.62842 8.13441 3.09642 7.51841 2.78842C7.11241 2.59242 6.23041 2.48042 5.62841 2.48042C4.95641 2.48042 4.04641 2.62042 3.64041 2.88642C3.23441 3.15242 3.03841 3.51642 3.03841 3.99242C3.03841 4.44042 3.23441 4.76242 3.62641 4.97242C3.89241 5.12642 4.80241 5.29442 5.62841 5.49042L8.13441 5.99442C9.08641 6.21842 9.78641 6.51242 10.2624 6.87642C10.9904 7.45042 11.3544 8.29042 11.3544 9.38242C11.3544 10.5024 10.9204 11.4264 10.0524 12.1684C9.19841 12.9104 7.60241 13.2744 6.02041 13.2744C4.41041 13.2744 2.77241 12.9104 1.84841 12.1824C0.92441 11.4544 0.47641 10.4604 0.47641 9.18642H2.91241C2.99641 9.73242 3.15041 10.1524 3.37441 10.4324C3.80841 10.9364 4.90041 11.1884 5.92241 11.1884C6.53841 11.1884 7.40641 11.1184 7.79841 10.9924Z" fill="#EB0028"/>
<path d="M15.3561 2.84442V6.44242H19.1361C19.7101 6.44242 20.1721 6.30242 20.4941 6.00842C20.8161 5.71442 20.9841 5.25242 20.9841 4.60842C20.9841 3.97842 20.8161 3.51642 20.4941 3.25042C20.1721 2.98442 19.7101 2.84442 19.1361 2.84442H15.3561ZM15.3561 8.55642V12.9524H12.8221V0.716417H19.5421C20.7461 0.716417 21.7121 1.02442 22.4401 1.66842C23.1541 2.29842 23.5181 3.26442 23.5181 4.59442C23.5181 6.03642 23.1541 7.05842 22.4401 7.66042C21.7261 8.26242 20.7041 8.55642 19.3741 8.55642H15.3561Z" fill="#EB0028"/>
<path d="M55.5335 8.33242H61.1055L58.3335 1.06642L55.5335 8.33242ZM62.5895 12.9524L61.7915 10.4464H54.8335L54.0075 12.9524H51.3335L55.7015 0.716417H61.0355L65.3755 12.9524H62.5895Z" fill="#EB0028"/>
<path d="M73.697 5.67242L79.129 12.9524H75.839L71.429 7.22642L69.357 9.08842V12.9524H66.851V0.716417H69.357V5.75642L75.069 0.716417H78.863L73.697 5.67242Z" fill="#EB0028"/>
<path d="M91.3429 10.7544V12.9524H80.6049V0.716417H91.049V2.88642H83.0969V5.49042H90.517V7.60442H83.0969V10.7544H91.3429Z" fill="#EB0028"/>
<path d="M95.3616 2.84442V6.44242H99.1416C99.7156 6.44242 100.178 6.30242 100.5 6.00842C100.822 5.71442 100.99 5.25242 100.99 4.60842C100.99 3.97842 100.822 3.51642 100.5 3.25042C100.178 2.98442 99.7156 2.84442 99.1416 2.84442H95.3616ZM95.3616 8.55642V12.9524H92.8276V0.716417H99.5476C100.752 0.716417 101.718 1.02442 102.446 1.66842C103.16 2.29842 103.524 3.26442 103.524 4.59442C103.524 6.03642 103.244 7.17042 102.446 7.66042C101.9 8.01042 101.074 8.03842 100.92 8.12242C103.076 8.73842 103.342 12.9804 103.342 12.9804H100.388L99.8556 9.78842C99.8276 9.67642 99.7996 9.56442 99.7576 9.45242C99.5336 8.90642 99.0016 8.55642 98.3996 8.55642C97.1676 8.55642 95.3616 8.55642 95.3616 8.55642Z" fill="#EB0028"/>
<path d="M27.334 0.952417H50.1585V2.99641H27.334V0.952417Z" fill="#EB0028"/>
<path d="M24.9493 10.8317H50.1585V12.8757H24.9493V10.8317Z" fill="#EB0028"/>
<path d="M24.9493 5.72171H48.1145V7.7657H24.9493V5.72171Z" fill="#EB0028"/>
<path d="M24.9493 0.952417H27.334L27.334 12.8757L24.9493 12.8757V0.952417Z" fill="#EB0028"/>
</svg>
