<svg width="96" height="11" viewBox="0 0 96 11" fill="none" xmlns="http://www.w3.org/2000/svg">
<path d="M11.244 1.96641L8.832 10.7624H4.704L2.028 1.96641C2.028 2.15841 2.028 2.44641 2.028 2.80641C2.04 3.17841 2.04 3.46641 2.04 3.67041V10.7624H0V0.274414H3.708L6.768 10.6544L9.552 0.274414H13.272V10.7624H11.22V3.67041C11.22 3.46641 11.232 3.17841 11.232 2.80641C11.232 2.44641 11.244 2.15841 11.244 1.96641Z" fill="white"/>
<path d="M17.3272 8.26641C17.0513 9.35841 19.5112 9.94641 20.6033 8.11041C20.6033 7.65441 20.6033 7.18641 20.6033 6.75441C19.5233 6.95841 17.6272 7.03041 17.3272 8.26641ZM15.6952 3.23841C15.6952 3.23841 21.0473 1.61841 22.6073 4.27041C22.8472 4.67841 22.8953 5.17041 22.8953 5.63841V10.8464H20.6033L20.9753 8.56641C20.9513 8.62641 20.9272 8.68641 20.8913 8.73441C19.5233 11.4704 14.0153 11.8304 14.6993 8.55441C15.1553 6.35841 18.4673 5.79441 20.5793 5.66241C20.2673 3.19041 15.6833 4.94241 15.6833 4.94241L15.6952 3.23841Z" fill="white"/>
<path d="M24.5157 0.922414H26.5077V1.83441H24.5157V0.922414ZM24.5157 10.7624V2.66241H26.5077V10.7624H24.5157Z" fill="white"/>
<path d="M35.4889 3.68241C35.7529 3.97041 35.9089 4.27041 35.9689 4.57041C36.0289 4.88241 36.0529 5.37441 36.0529 6.07041V10.7384H33.8209V5.90241C33.8209 5.49441 33.3649 4.36641 31.9729 4.35441C31.3249 4.35441 30.8329 4.53441 30.4969 4.89441C30.1609 5.25441 29.9809 5.75841 29.9809 6.43041V10.7384H27.7969C27.7969 8.89041 27.7969 2.66241 27.7969 2.66241H29.9089L29.3689 5.60241L29.7769 4.46241C30.0169 3.80241 30.4849 3.25041 31.1209 2.98641C31.1569 2.96241 31.1929 2.95041 31.2289 2.93841C31.7089 2.75841 32.2009 2.66241 32.7169 2.66241C33.3049 2.66241 33.8329 2.74641 34.3129 2.91441C34.7929 3.08241 35.1769 3.33441 35.4889 3.68241Z" fill="white"/>
<path d="M65.876 10.4624L67.676 2.67441H69.788L67.952 10.7624H63.812L62 2.67441H64.136L65.876 10.4624Z" fill="white"/>
<path d="M72.7303 5.98641H77.4943C77.4103 5.55441 77.2183 5.20641 76.9183 4.91841C76.4983 4.51041 75.8863 4.30641 75.1063 4.30641C74.3383 4.30641 73.7263 4.51041 73.3063 4.91841C73.0063 5.20641 72.8143 5.55441 72.7303 5.98641ZM77.5423 6.76641L75.2863 6.75441H72.6823C72.7063 7.36641 72.9223 7.85841 73.3063 8.23041C73.7263 8.65041 74.3263 8.85441 75.1063 8.85441C75.8863 8.85441 76.4983 8.65041 76.9183 8.23041C76.9543 8.19441 76.9903 8.15841 77.0263 8.12241H79.2943C79.1383 8.66241 78.8743 9.10641 78.5143 9.46641C77.7343 10.3304 76.5943 10.7624 75.1063 10.7624C73.5943 10.7624 72.4663 10.3304 71.6983 9.46641C71.0623 8.81841 70.7383 7.88241 70.7383 6.65841C70.7383 5.43441 71.0623 4.49841 71.6983 3.85041C72.4663 2.98641 73.5943 2.55441 75.1063 2.55441C76.5943 2.55441 77.7343 2.98641 78.5143 3.85041C79.1623 4.49841 79.4863 5.43441 79.4863 6.65841C79.4863 6.68241 79.4863 6.70641 79.4863 6.73041V6.76641H77.5423Z" fill="white"/>
<path d="M88.1256 3.68241C88.3896 3.97041 88.5456 4.27041 88.6056 4.57041C88.6656 4.88241 88.6896 5.37441 88.6896 6.07041V10.7384H86.4576V5.90241C86.4576 5.49441 86.0016 4.36641 84.6096 4.35441C83.9616 4.35441 83.4696 4.53441 83.1336 4.89441C82.7976 5.25441 82.6176 5.75841 82.6176 6.43041V10.7384H80.4336C80.4336 8.89041 80.4336 2.66241 80.4336 2.66241H82.5456L82.0056 5.60241L82.4136 4.46241C82.6536 3.80241 83.1216 3.25041 83.7576 2.98641C83.7936 2.96241 83.8296 2.95041 83.8656 2.93841C84.3456 2.75841 84.8376 2.66241 85.3536 2.66241C85.9416 2.66241 86.4696 2.74641 86.9496 2.91441C87.4296 3.08241 87.8136 3.33441 88.1256 3.68241Z" fill="white"/>
<path d="M92.9252 8.53041C93.1052 8.91441 93.4532 9.10641 93.9692 9.10641C94.4252 9.10641 94.7852 8.97441 95.0492 8.72241V10.1384C94.7972 10.3304 94.5572 10.4744 94.3292 10.5584C94.0412 10.6544 93.7052 10.7024 93.3212 10.7024C92.2292 10.7024 91.4852 10.3064 91.1012 9.51441C90.8852 9.07041 90.7772 8.42241 90.7772 7.57041V3.61041H89.7692V2.91441H90.7772V1.35441H92.7812V2.91441H93.9812V3.61041H92.7812V7.57041C92.7812 8.00241 92.8292 8.31441 92.9252 8.53041Z" fill="white"/>
<path d="M44.6081 2.76241H59.9999V4.14079H44.6081V2.76241Z" fill="white"/>
<path d="M43 9.42457H60V10.8029H43V9.42457Z" fill="white"/>
<path d="M43 5.97863H58.6216V7.35701H43V5.97863Z" fill="white"/>
<path d="M43 2.76241H44.6081L44.6081 10.803L43 10.8029V2.76241Z" fill="white"/>
</svg>
