<svg width="110" height="13" viewBox="0 0 110 13" fill="none" xmlns="http://www.w3.org/2000/svg">
<path d="M3.47181 2.492V6.09H7.25181C7.82581 6.09 8.28781 5.95 8.60981 5.656C8.93181 5.362 9.0998 4.9 9.0998 4.256C9.0998 3.626 8.93181 3.164 8.60981 2.898C8.28781 2.632 7.82581 2.492 7.25181 2.492H3.47181ZM3.47181 8.204V12.6H0.937805V0.364H7.65781C8.86181 0.364 9.82781 0.672 10.5558 1.316C11.2698 1.946 11.6338 2.912 11.6338 4.242C11.6338 5.684 11.2698 6.706 10.5558 7.308C9.84181 7.91 8.81981 8.204 7.48981 8.204H3.47181Z" fill="white"/>
<path d="M15.6534 2.492V6.09H19.4334C20.0074 6.09 20.4694 5.95 20.7914 5.656C21.1134 5.362 21.2814 4.9 21.2814 4.256C21.2814 3.626 21.1134 3.164 20.7914 2.898C20.4694 2.632 20.0074 2.492 19.4334 2.492H15.6534ZM15.6534 8.204V12.6H13.1194V0.364H19.8394C21.0434 0.364 22.0094 0.672 22.7374 1.316C23.4514 1.946 23.8154 2.912 23.8154 4.242C23.8154 5.684 23.5354 6.818 22.7374 7.308C22.1914 7.658 21.3654 7.686 21.2114 7.77C23.3674 8.386 23.6334 12.628 23.6334 12.628H20.6794L20.1474 9.436C20.1194 9.324 20.0914 9.212 20.0494 9.1C19.8254 8.554 19.2934 8.204 18.6914 8.204C17.4594 8.204 15.6534 8.204 15.6534 8.204Z" fill="white"/>
<path d="M28.2516 0.600001H50.8446V2.62325H28.2516V0.600001Z" fill="white"/>
<path d="M25.8912 10.379H50.8447V12.4022H25.8912V10.379Z" fill="white"/>
<path d="M25.8912 5.32093H48.8214V7.34418H25.8912V5.32093Z" fill="white"/>
<path d="M25.8912 0.600001H28.2516L28.2517 12.4023L25.8912 12.4022V0.600001Z" fill="white"/>
<path d="M58.9192 12.236L63.2452 0.35H65.9332L61.5512 12.6H56.2172L51.8912 0.35H54.6632L58.9192 12.236Z" fill="white"/>
<path d="M67.4088 12.6V0.364H69.9428V12.6H67.4088Z" fill="white"/>
<path d="M81.0323 9.268C81.7463 8.582 82.0963 7.672 82.0963 6.524C82.0963 5.376 81.7463 4.466 81.0323 3.794C80.3184 3.122 79.2963 2.786 77.9803 2.786C76.6643 2.786 75.6423 3.122 74.9283 3.794C74.2143 4.466 73.8503 5.376 73.8503 6.524C73.8503 7.672 74.2143 8.582 74.9283 9.268C75.6423 9.954 76.6503 10.29 77.9803 10.29C79.2963 10.29 80.3184 9.954 81.0323 9.268ZM83.0903 10.738C81.9003 12.04 80.2063 12.684 77.9803 12.684C75.7123 12.684 74.0043 12.04 72.8703 10.738C71.9043 9.758 71.4283 8.358 71.4283 6.524C71.4283 4.69 71.9043 3.29 72.8703 2.324C74.0043 1.022 75.7123 0.378 77.9803 0.378C80.2063 0.378 81.9003 1.022 83.0903 2.324C84.0564 3.29 84.5323 4.69 84.5323 6.524C84.5323 8.358 84.0564 9.758 83.0903 10.738Z" fill="white"/>
<path d="M92.4706 12.726H90.2306C87.8926 12.726 86.0026 10.836 86.0026 8.498V0.42C86.0026 0.392 86.0166 0.364 86.0586 0.364H88.5646C88.5366 0.42 88.5366 0.476 88.5366 0.532V8.302C88.5366 9.436 89.4466 10.486 90.5806 10.486H92.1206C93.2546 10.486 94.1646 9.436 94.1646 8.302V0.532C94.1646 0.476 94.1506 0.42 94.1366 0.364H96.6426C96.6706 0.364 96.6986 0.392 96.6986 0.42V8.498C96.6986 10.836 94.8086 12.726 92.4706 12.726Z" fill="white"/>
<path d="M105.506 10.64C106.234 10.388 106.598 9.912 106.598 9.212C106.598 8.82 106.416 8.498 106.052 8.274C105.702 8.064 104.764 7.868 103.994 7.7L102.3 7.42C100.998 7.126 100.102 6.818 99.6122 6.482C98.7862 5.908 98.3802 5.026 98.3802 3.822C98.3802 2.73 98.7862 1.82 99.5842 1.092C100.396 0.364 101.95 0 103.504 0C104.82 0 106.304 0.35 107.214 1.036C108.138 1.722 108.628 2.702 108.67 4.004H106.206C106.164 3.276 105.842 2.744 105.226 2.436C104.82 2.24 103.938 2.128 103.336 2.128C102.664 2.128 101.754 2.268 101.348 2.534C100.942 2.8 100.746 3.164 100.746 3.64C100.746 4.088 100.942 4.41 101.334 4.62C101.6 4.774 102.51 4.942 103.336 5.138L105.842 5.642C106.794 5.866 107.494 6.16 107.97 6.524C108.698 7.098 109.062 7.938 109.062 9.03C109.062 10.15 108.628 11.074 107.76 11.816C106.906 12.558 105.31 12.922 103.728 12.922C102.118 12.922 100.48 12.558 99.5562 11.83C98.6322 11.102 98.1842 10.108 98.1842 8.834H100.62C100.704 9.38 100.858 9.8 101.082 10.08C101.516 10.584 102.608 10.836 103.63 10.836C104.246 10.836 105.114 10.766 105.506 10.64Z" fill="white"/>
</svg>
