<svg width="80" height="12" viewBox="0 0 80 12" fill="none" xmlns="http://www.w3.org/2000/svg">
<path d="M11.3177 1.21141V3.07141H7.12968V11.6994H4.92168V3.07141H0.72168V1.21141H11.3177Z" fill="white"/>
<path d="M39.351 7.73941H44.127L41.751 1.51141L39.351 7.73941ZM45.399 11.6994L44.715 9.55141H38.751L38.043 11.6994H35.751L39.495 1.21141H44.067L47.787 11.6994H45.399Z" fill="white"/>
<path d="M55.3278 10.0194C55.9518 9.80342 56.2638 9.39541 56.2638 8.79541C56.2638 8.45941 56.1078 8.18341 55.7958 7.99141C55.4958 7.81141 54.6918 7.64341 54.0318 7.49941L52.5798 7.25941C51.4638 7.00741 50.6958 6.74341 50.2758 6.45541C49.5678 5.96341 49.2198 5.20741 49.2198 4.17541C49.2198 3.23941 49.5678 2.45941 50.2518 1.83541C50.9478 1.21141 52.2798 0.899414 53.6118 0.899414C54.7398 0.899414 56.0118 1.19941 56.7918 1.78741C57.5838 2.37541 58.0038 3.21541 58.0398 4.33141H55.9278C55.8918 3.70741 55.6158 3.25141 55.0878 2.98741C54.7398 2.81941 53.9838 2.72341 53.4678 2.72341C52.8918 2.72341 52.1118 2.84341 51.7638 3.07141C51.4158 3.29941 51.2478 3.61141 51.2478 4.01941C51.2478 4.40341 51.4158 4.67941 51.7518 4.85941C51.9798 4.99141 52.7598 5.13541 53.4678 5.30341L55.6158 5.73541C56.4318 5.92741 57.0318 6.17941 57.4398 6.49141C58.0638 6.98341 58.3758 7.70341 58.3758 8.63941C58.3758 9.59941 58.0038 10.3914 57.2598 11.0274C56.5278 11.6634 55.1598 11.9754 53.8038 11.9754C52.4238 11.9754 51.0198 11.6634 50.2278 11.0394C49.4358 10.4154 49.0518 9.56341 49.0518 8.47141H51.1398C51.2118 8.93941 51.3438 9.29941 51.5358 9.53941C51.9078 9.97141 52.8438 10.1874 53.7198 10.1874C54.2478 10.1874 54.9918 10.1274 55.3278 10.0194Z" fill="white"/>
<path d="M68.8378 9.81541V11.6994H59.6338V1.21141H68.5858V3.07141H61.7698V5.30341H68.1298V7.11541H61.7698V9.81541H68.8378Z" fill="white"/>
<path d="M72.2823 3.03541V6.11941H75.5224C76.0144 6.11941 76.4104 5.99941 76.6864 5.74741C76.9624 5.49541 77.1064 5.09941 77.1064 4.54741C77.1064 4.00741 76.9624 3.61141 76.6864 3.38341C76.4104 3.15541 76.0144 3.03541 75.5224 3.03541H72.2823ZM72.2823 7.93141V11.6994H70.1104V1.21141H75.8704C76.9024 1.21141 77.7304 1.47541 78.3544 2.02741C78.9664 2.56741 79.2784 3.39541 79.2784 4.53541C79.2784 5.77141 79.0384 6.74341 78.3544 7.16341C77.8864 7.46341 77.1784 7.48741 77.0463 7.55941C78.8943 8.08741 79.1224 11.7234 79.1224 11.7234H76.5904L76.1344 8.98741C76.1104 8.89141 76.0864 8.79541 76.0504 8.69941C75.8584 8.23141 75.4024 7.93141 74.8864 7.93141C73.8304 7.93141 72.2823 7.93141 72.2823 7.93141Z" fill="white"/>
<path d="M14.7084 1.69941H34.3979V3.46265H14.7084V1.69941Z" fill="white"/>
<path d="M12.6514 10.2217H34.3979V11.9849H12.6514V10.2217Z" fill="white"/>
<path d="M12.6514 5.81364H32.6347V7.57688H12.6514V5.81364Z" fill="white"/>
<path d="M12.6514 1.69941H14.7084L14.7085 11.985L12.6514 11.9849V1.69941Z" fill="white"/>
</svg>
