<svg width="359" height="34" viewBox="0 0 359 34" fill="none" xmlns="http://www.w3.org/2000/svg">
<path d="M46.764 32.064L57.924 1.5H64.8L53.568 33H39.852L32.364 11.904L24.84 33H11.124L0 1.5H7.128L18.072 32.064L28.944 2.22L28.692 1.5H29.196H35.82H36.108L35.964 1.86L46.764 32.064ZM97.677 33H91.161V18.96H75.141V33H68.625V1.536H75.141V13.524H91.161V1.536H97.677V33ZM112.296 21.12H126.624L119.496 2.436L112.296 21.12ZM130.44 33L128.388 26.556H110.496L108.372 33H101.496L112.728 1.536H126.444L137.604 33H130.44ZM173.186 1.536V7.116H160.622V33H153.998V7.116H141.398V1.536H173.186ZM197.895 33V1.536H204.411V33H197.895ZM227.058 27.96C228.93 27.312 229.866 26.088 229.866 24.288C229.866 23.28 229.398 22.452 228.462 21.876C227.562 21.336 225.15 20.832 223.17 20.4L218.814 19.68C215.466 18.924 213.162 18.132 211.902 17.268C209.778 15.792 208.734 13.524 208.734 10.428C208.734 7.62 209.778 5.28 211.83 3.408C213.918 1.536 217.914 0.599999 221.91 0.599999C225.294 0.599999 229.11 1.5 231.45 3.264C233.826 5.028 235.086 7.548 235.194 10.896H228.858C228.75 9.024 227.922 7.656 226.338 6.864C225.294 6.36 223.026 6.072 221.478 6.072C219.75 6.072 217.41 6.432 216.366 7.116C215.322 7.8 214.818 8.736 214.818 9.96C214.818 11.112 215.322 11.94 216.33 12.48C217.014 12.876 219.354 13.308 221.478 13.812L227.922 15.108C230.37 15.684 232.17 16.44 233.394 17.376C235.266 18.852 236.202 21.012 236.202 23.82C236.202 26.7 235.086 29.076 232.854 30.984C230.658 32.892 226.554 33.828 222.486 33.828C218.346 33.828 214.134 32.892 211.758 31.02C209.382 29.148 208.23 26.592 208.23 23.316H214.494C214.71 24.72 215.106 25.8 215.682 26.52C216.798 27.816 219.606 28.464 222.234 28.464C223.818 28.464 226.05 28.284 227.058 27.96ZM292.683 1.536V7.116H280.119V33H273.495V7.116H260.895V1.536H292.683ZM324.085 27.348V33H296.473V1.536H323.329V7.116H302.881V13.812H321.961V19.248H302.881V27.348H324.085ZM334.274 27.564H344.102C347.234 27.564 349.394 26.016 350.618 22.956C351.302 21.264 351.626 19.284 351.626 16.944C351.626 13.74 351.122 11.292 350.114 9.564C349.106 7.872 347.126 7.008 344.102 7.008H334.274V27.564ZM355.802 27.132C353.498 31.056 350.006 33 345.218 33H327.902V1.536H345.218C347.198 1.572 348.818 1.788 350.114 2.22C352.31 2.94 354.11 4.272 355.478 6.216C356.558 7.764 357.314 9.456 357.71 11.292C358.106 13.128 358.322 14.856 358.322 16.512C358.322 20.688 357.458 24.252 355.802 27.132Z" fill="white"/>
</svg>
