<svg width="394" height="34" viewBox="0 0 394 34" fill="none" xmlns="http://www.w3.org/2000/svg">
<path d="M47.264 32.064L58.424 1.5H65.3L54.068 33H40.352L32.864 11.904L25.34 33H11.624L0.5 1.5H7.628L18.572 32.064L29.444 2.22L29.192 1.5H29.696H36.32H36.608L36.464 1.86L47.264 32.064ZM98.177 33H91.661V18.96H75.641V33H69.125V1.536H75.641V13.524H91.661V1.536H98.177V33ZM112.796 21.12H127.124L119.996 2.436L112.796 21.12ZM130.94 33L128.888 26.556H110.996L108.872 33H101.996L113.228 1.536H126.944L138.104 33H130.94ZM173.686 1.536V7.116H161.122V33H154.498V7.116H141.898V1.536H173.686ZM198.395 33V1.536H204.911V33H198.395ZM227.558 27.96C229.43 27.312 230.366 26.088 230.366 24.288C230.366 23.28 229.898 22.452 228.962 21.876C228.062 21.336 225.65 20.832 223.67 20.4L219.314 19.68C215.966 18.924 213.662 18.132 212.402 17.268C210.278 15.792 209.234 13.524 209.234 10.428C209.234 7.62 210.278 5.28 212.33 3.408C214.418 1.536 218.414 0.599999 222.41 0.599999C225.794 0.599999 229.61 1.5 231.95 3.264C234.326 5.028 235.586 7.548 235.694 10.896H229.358C229.25 9.024 228.422 7.656 226.838 6.864C225.794 6.36 223.526 6.072 221.978 6.072C220.25 6.072 217.91 6.432 216.866 7.116C215.822 7.8 215.318 8.736 215.318 9.96C215.318 11.112 215.822 11.94 216.83 12.48C217.514 12.876 219.854 13.308 221.978 13.812L228.422 15.108C230.87 15.684 232.67 16.44 233.894 17.376C235.766 18.852 236.702 21.012 236.702 23.82C236.702 26.7 235.586 29.076 233.354 30.984C231.158 32.892 227.054 33.828 222.986 33.828C218.846 33.828 214.634 32.892 212.258 31.02C209.882 29.148 208.73 26.592 208.73 23.316H214.994C215.21 24.72 215.606 25.8 216.182 26.52C217.298 27.816 220.106 28.464 222.734 28.464C224.318 28.464 226.55 28.284 227.558 27.96ZM293.183 1.536V7.116H280.619V33H273.995V7.116H261.395V1.536H293.183ZM324.585 27.348V33H296.973V1.536H323.829V7.116H303.381V13.812H322.461V19.248H303.381V27.348H324.585ZM334.774 27.564H344.602C347.734 27.564 349.894 26.016 351.118 22.956C351.802 21.264 352.126 19.284 352.126 16.944C352.126 13.74 351.622 11.292 350.614 9.564C349.606 7.872 347.626 7.008 344.602 7.008H334.774V27.564ZM356.302 27.132C353.998 31.056 350.506 33 345.718 33H328.402V1.536H345.718C347.698 1.572 349.318 1.788 350.614 2.22C352.81 2.94 354.61 4.272 355.978 6.216C357.058 7.764 357.814 9.456 358.21 11.292C358.606 13.128 358.822 14.856 358.822 16.512C358.822 20.688 357.958 24.252 356.302 27.132ZM393.703 1.788L381.535 17.376L393.919 33H386.215L377.719 22.272L369.331 33H361.735L373.903 17.448L361.555 1.788H369.223L377.719 12.552L386.107 1.788H393.703Z" fill="white"/>
</svg>
