<svg width="857" height="34" viewBox="0 0 857 34" fill="none" xmlns="http://www.w3.org/2000/svg">
<path d="M10.8 21.12H25.128L18 2.436L10.8 21.12ZM28.944 33L26.892 26.556H9L6.876 33H0L11.232 1.536H24.948L36.108 33H28.944ZM71.6903 1.536V7.116H59.1263V33H52.5023V7.116H39.9023V1.536H71.6903ZM123.902 20.724C123.902 27.672 118.25 33.324 111.302 33.324H108.962C102.014 33.324 96.3984 27.672 96.3984 20.724V19.32H102.914V20.76C102.914 24.324 105.794 27.492 109.358 27.492H110.906C114.506 27.492 117.386 24.324 117.386 20.76V1.968C117.386 1.824 117.35 1.68 117.314 1.536H123.758C123.83 1.536 123.902 1.608 123.902 1.68V20.724ZM138.523 21.12H152.851L145.723 2.436L138.523 21.12ZM156.667 33L154.615 26.556H136.723L134.599 33H127.723L138.955 1.536H152.671L163.831 33H156.667ZM185.229 14.28L199.197 33H190.737L179.397 18.276L174.069 23.064V33H167.625V1.536H174.069V14.496L188.757 1.536H198.513L185.229 14.28ZM213.792 21.12H228.12L220.992 2.436L213.792 21.12ZM231.936 33L229.884 26.556H211.992L209.868 33H202.992L214.224 1.536H227.94L239.1 33H231.936ZM249.411 7.008V16.26H259.131C260.607 16.26 261.795 15.9 262.623 15.144C263.451 14.388 263.883 13.2 263.883 11.544C263.883 9.924 263.451 8.736 262.623 8.052C261.795 7.368 260.607 7.008 259.131 7.008H249.411ZM249.411 21.696V33H242.895V1.536H260.175C263.271 1.536 265.755 2.328 267.627 3.984C269.463 5.604 270.399 8.088 270.399 11.508C270.399 15.216 269.679 18.132 267.627 19.392C266.223 20.292 264.099 20.364 263.703 20.58C269.247 22.164 269.931 33.072 269.931 33.072H262.335L260.967 24.864C260.895 24.576 260.823 24.288 260.715 24C260.139 22.596 258.771 21.696 257.223 21.696C254.055 21.696 249.411 21.696 249.411 21.696ZM306.007 1.536V7.116H293.443V33H286.819V7.116H274.219V1.536H306.007ZM320.597 21.12H334.925L327.797 2.436L320.597 21.12ZM338.741 33L336.689 26.556H318.797L316.673 33H309.797L321.029 1.536H334.745L345.905 33H338.741ZM389.445 27.96C391.317 27.312 392.253 26.088 392.253 24.288C392.253 23.28 391.785 22.452 390.849 21.876C389.949 21.336 387.537 20.832 385.557 20.4L381.201 19.68C377.853 18.924 375.549 18.132 374.289 17.268C372.165 15.792 371.121 13.524 371.121 10.428C371.121 7.62 372.165 5.28 374.217 3.408C376.305 1.536 380.301 0.599999 384.297 0.599999C387.681 0.599999 391.497 1.5 393.837 3.264C396.213 5.028 397.473 7.548 397.581 10.896H391.245C391.137 9.024 390.309 7.656 388.725 6.864C387.681 6.36 385.413 6.072 383.865 6.072C382.137 6.072 379.797 6.432 378.753 7.116C377.709 7.8 377.205 8.736 377.205 9.96C377.205 11.112 377.709 11.94 378.717 12.48C379.401 12.876 381.741 13.308 383.865 13.812L390.309 15.108C392.757 15.684 394.557 16.44 395.781 17.376C397.653 18.852 398.589 21.012 398.589 23.82C398.589 26.7 397.473 29.076 395.241 30.984C393.045 32.892 388.941 33.828 384.873 33.828C380.733 33.828 376.521 32.892 374.145 31.02C371.769 29.148 370.617 26.592 370.617 23.316H376.881C377.097 24.72 377.493 25.8 378.069 26.52C379.185 27.816 381.993 28.464 384.621 28.464C386.205 28.464 388.437 28.284 389.445 27.96ZM434.151 1.536V7.116H421.587V33H414.963V7.116H402.363V1.536H434.151ZM448.741 21.12H463.069L455.941 2.436L448.741 21.12ZM466.885 33L464.833 26.556H446.941L444.817 33H437.941L449.173 1.536H462.889L474.049 33H466.885ZM509.632 1.536V7.116H497.068V33H490.444V7.116H477.844V1.536H509.632ZM541.034 27.348V33H513.422V1.536H540.278V7.116H519.83V13.812H538.91V19.248H519.83V27.348H541.034ZM582.402 33.324H576.642C570.63 33.324 565.77 28.464 565.77 22.452V1.68C565.77 1.608 565.806 1.536 565.914 1.536H572.358C572.286 1.68 572.286 1.824 572.286 1.968V21.948C572.286 24.864 574.626 27.564 577.542 27.564H581.502C584.418 27.564 586.758 24.864 586.758 21.948V1.968C586.758 1.824 586.722 1.68 586.686 1.536H593.13C593.202 1.536 593.274 1.608 593.274 1.68V22.452C593.274 28.464 588.414 33.324 582.402 33.324ZM622.762 23.496V1.536H628.882V33H622.294L603.214 10.68V33H597.094V1.536H603.97L622.762 23.496ZM632.707 33V1.536H639.223V33H632.707ZM661.115 32.064L672.239 1.5H679.151L667.883 33H654.167L643.043 1.5H650.171L661.115 32.064ZM710.557 27.348V33H682.945V1.536H709.801V7.116H689.353V13.812H708.433V19.248H689.353V27.348H710.557ZM720.891 7.008V16.26H730.611C732.087 16.26 733.275 15.9 734.103 15.144C734.931 14.388 735.363 13.2 735.363 11.544C735.363 9.924 734.931 8.736 734.103 8.052C733.275 7.368 732.087 7.008 730.611 7.008H720.891ZM720.891 21.696V33H714.375V1.536H731.655C734.751 1.536 737.235 2.328 739.107 3.984C740.943 5.604 741.879 8.088 741.879 11.508C741.879 15.216 741.159 18.132 739.107 19.392C737.703 20.292 735.579 20.364 735.183 20.58C740.727 22.164 741.411 33.072 741.411 33.072H733.815L732.447 24.864C732.375 24.576 732.303 24.288 732.195 24C731.619 22.596 730.251 21.696 728.703 21.696C725.535 21.696 720.891 21.696 720.891 21.696ZM764.527 27.96C766.399 27.312 767.335 26.088 767.335 24.288C767.335 23.28 766.867 22.452 765.931 21.876C765.031 21.336 762.619 20.832 760.639 20.4L756.283 19.68C752.935 18.924 750.631 18.132 749.371 17.268C747.247 15.792 746.203 13.524 746.203 10.428C746.203 7.62 747.247 5.28 749.299 3.408C751.387 1.536 755.383 0.599999 759.379 0.599999C762.763 0.599999 766.579 1.5 768.919 3.264C771.295 5.028 772.555 7.548 772.663 10.896H766.327C766.219 9.024 765.391 7.656 763.807 6.864C762.763 6.36 760.495 6.072 758.947 6.072C757.219 6.072 754.879 6.432 753.835 7.116C752.791 7.8 752.287 8.736 752.287 9.96C752.287 11.112 752.791 11.94 753.799 12.48C754.483 12.876 756.823 13.308 758.947 13.812L765.391 15.108C767.839 15.684 769.639 16.44 770.863 17.376C772.735 18.852 773.671 21.012 773.671 23.82C773.671 26.7 772.555 29.076 770.323 30.984C768.127 32.892 764.023 33.828 759.955 33.828C755.815 33.828 751.603 32.892 749.227 31.02C746.851 29.148 745.699 26.592 745.699 23.316H751.963C752.179 24.72 752.575 25.8 753.151 26.52C754.267 27.816 757.075 28.464 759.703 28.464C761.287 28.464 763.519 28.284 764.527 27.96ZM777.445 33V1.536H783.961V33H777.445ZM819.569 1.536V7.116H807.005V33H800.381V7.116H787.781V1.536H819.569ZM839.955 12.552L847.875 1.788H856.263L843.123 20.112V33H836.499V19.86L823.359 1.788H832.035L839.955 12.552Z" fill="white"/>
</svg>
