<svg width="1140" height="501" viewBox="0 0 1140 501" fill="none" xmlns="http://www.w3.org/2000/svg">
<rect width="1139" height="500" transform="translate(0.5 0.447266)" fill="url(#paint0_linear_1922_123)"/>
<path d="M23.76 485.167V472.967H27.16V490.447H23.5L12.9 478.047V490.447H9.5V472.967H13.32L23.76 485.167ZM39.4652 476.947H41.9452H43.0452C43.0452 480.027 43.0452 490.407 43.0452 490.407H39.5052L40.4252 485.507L39.7252 487.407C39.3452 488.507 38.5452 489.427 37.5052 489.887C37.4452 489.907 37.3652 489.927 37.3052 489.967C36.5252 490.247 35.7052 490.407 34.8252 490.407C33.8452 490.407 32.9652 490.267 32.1652 489.987C31.3852 489.707 30.7252 489.287 30.2252 488.727C29.7852 488.227 29.5252 487.747 29.4252 487.227C29.3252 486.707 29.2852 485.887 29.2852 484.727V476.947H33.0052V485.007C33.0052 485.707 33.7652 487.587 36.0652 487.587C37.1452 487.607 37.9852 487.287 38.5452 486.687C39.1052 486.107 39.3852 485.247 39.3852 484.127V476.947H39.4652ZM50.8645 477.407C51.6645 477.107 52.4845 476.947 53.3445 476.947C53.7045 476.947 54.0445 476.967 54.3845 477.007V480.667C53.9045 480.167 53.1645 479.767 52.1045 479.767C51.0245 479.767 50.2045 480.067 49.6445 480.667C49.0845 481.267 48.7845 482.107 48.7845 483.227V490.407H48.7245H46.2245H45.1445C45.1445 487.327 45.1445 476.947 45.1445 476.947H48.6645L47.7645 481.847L48.4445 479.947C48.8445 478.847 49.6245 477.927 50.6845 477.487C50.7445 477.447 50.8045 477.427 50.8645 477.407ZM60.0069 486.727C60.3069 487.367 60.8869 487.687 61.7469 487.687C62.5069 487.687 63.1069 487.467 63.5469 487.047V489.407C63.1269 489.727 62.7269 489.967 62.3469 490.107C61.8669 490.267 61.3069 490.347 60.6669 490.347C58.8469 490.347 57.6069 489.687 56.9669 488.367C56.6069 487.627 56.4269 486.547 56.4269 485.127V478.527H54.7469V477.367H56.4269V474.767H59.7669V477.367H61.7669V478.527H59.7669V485.127C59.7669 485.847 59.8469 486.367 60.0069 486.727ZM74.1136 476.947H76.5936H77.6936C77.6936 480.027 77.6936 490.407 77.6936 490.407H74.1536L75.0736 485.507L74.3736 487.407C73.9936 488.507 73.1936 489.427 72.1536 489.887C72.0936 489.907 72.0136 489.927 71.9536 489.967C71.1736 490.247 70.3536 490.407 69.4736 490.407C68.4936 490.407 67.6136 490.267 66.8136 489.987C66.0336 489.707 65.3736 489.287 64.8736 488.727C64.4336 488.227 64.1736 487.747 64.0736 487.227C63.9736 486.707 63.9336 485.887 63.9336 484.727V476.947H67.6536V485.007C67.6536 485.707 68.4136 487.587 70.7136 487.587C71.7936 487.607 72.6336 487.287 73.1936 486.687C73.7536 486.107 74.0336 485.247 74.0336 484.127V476.947H74.1136ZM85.513 477.407C86.313 477.107 87.133 476.947 87.993 476.947C88.353 476.947 88.693 476.967 89.033 477.007V480.667C88.553 480.167 87.813 479.767 86.753 479.767C85.673 479.767 84.853 480.067 84.293 480.667C83.733 481.267 83.433 482.107 83.433 483.227V490.407H83.373H80.873H79.793C79.793 487.327 79.793 476.947 79.793 476.947H83.313L82.413 481.847L83.093 479.947C83.493 478.847 84.273 477.927 85.333 477.487C85.393 477.447 85.453 477.427 85.513 477.407ZM90.5353 474.047H93.8553V475.567H90.5353V474.047ZM90.5353 490.447V476.947H93.8553V490.447H90.5353ZM108.824 478.647C109.264 479.127 109.524 479.627 109.624 480.127C109.724 480.647 109.764 481.467 109.764 482.627V490.407H106.044V482.347C106.044 481.667 105.284 479.787 102.964 479.767C101.884 479.767 101.064 480.067 100.504 480.667C99.9439 481.267 99.6439 482.107 99.6439 483.227V490.407H99.5839H97.0839H96.0039C96.0039 487.327 96.0039 476.947 96.0039 476.947H99.5239L98.6239 481.847L99.3039 479.947C99.7039 478.847 100.484 477.927 101.544 477.487C101.604 477.447 101.664 477.427 101.724 477.407C102.524 477.107 103.344 476.947 104.204 476.947C105.184 476.947 106.064 477.087 106.864 477.367C107.664 477.647 108.304 478.067 108.824 478.647ZM122.143 486.847C122.603 486.347 122.903 485.667 123.043 484.867V484.727V482.747C122.903 481.947 122.603 481.287 122.143 480.787C121.483 480.067 120.543 479.707 119.303 479.707C118.083 479.707 117.143 480.067 116.483 480.787C115.843 481.487 115.503 482.487 115.503 483.807C115.503 485.127 115.843 486.127 116.483 486.847C117.143 487.567 118.083 487.907 119.303 487.907C120.543 487.907 121.483 487.567 122.143 486.847ZM124.023 482.187L123.043 476.947H126.583C126.583 476.947 126.583 487.387 126.583 490.327C126.583 493.267 124.363 496.067 120.823 496.227C114.603 496.527 112.943 494.147 112.943 494.147L112.723 491.627C112.723 491.627 116.083 494.187 120.423 493.167C123.303 492.487 123.043 489.327 123.043 489.327V487.907C122.923 488.107 122.783 488.307 122.623 488.487C121.603 489.787 120.063 490.447 118.003 490.447C115.943 490.447 114.383 489.787 113.383 488.487C112.363 487.207 111.863 485.627 111.863 483.807C111.863 482.007 112.363 480.447 113.383 479.147C114.383 477.827 115.943 477.167 118.003 477.167C120.063 477.167 121.603 477.827 122.623 479.147C123.323 480.047 123.783 481.047 124.003 482.167L124.023 482.187ZM157.961 472.967V476.067H150.981V490.447H147.301V476.067H140.301V472.967H157.961ZM173.206 478.807C173.646 479.307 173.926 479.787 174.026 480.307C174.126 480.807 174.166 481.647 174.166 482.807V490.407H170.346V482.527C170.346 481.827 169.566 479.947 167.186 479.947C166.086 479.927 165.226 480.247 164.646 480.847C164.066 481.427 163.786 482.287 163.786 483.387V490.407H163.646H161.146H160.066C160.066 487.527 160.066 474.467 160.066 472.827H163.746V477.247L162.646 482.227L163.426 480.127C163.826 479.027 164.646 478.107 165.726 477.647C165.786 477.627 165.846 477.607 165.926 477.567C166.726 477.287 167.566 477.127 168.466 477.127C169.466 477.127 170.386 477.267 171.186 477.547C172.006 477.827 172.686 478.247 173.206 478.807ZM180.157 482.487H188.097C187.957 481.767 187.637 481.187 187.137 480.707C186.437 480.027 185.417 479.687 184.117 479.687C182.837 479.687 181.817 480.027 181.117 480.707C180.617 481.187 180.297 481.767 180.157 482.487ZM188.177 483.787L184.417 483.767H180.077C180.117 484.787 180.477 485.607 181.117 486.227C181.817 486.927 182.817 487.267 184.117 487.267C185.417 487.267 186.437 486.927 187.137 486.227C187.197 486.167 187.257 486.107 187.317 486.047H191.097C190.837 486.947 190.397 487.687 189.797 488.287C188.497 489.727 186.597 490.447 184.117 490.447C181.597 490.447 179.717 489.727 178.437 488.287C177.377 487.207 176.837 485.647 176.837 483.607C176.837 481.567 177.377 480.007 178.437 478.927C179.717 477.487 181.597 476.767 184.117 476.767C186.597 476.767 188.497 477.487 189.797 478.927C190.877 480.007 191.417 481.567 191.417 483.607C191.417 483.647 191.417 483.687 191.417 483.727V483.787H188.177ZM230.597 489.927L236.797 472.947H240.617L234.377 490.447H226.757L222.597 478.727L218.417 490.447H210.797L204.617 472.947H208.577L214.657 489.927L220.697 473.347L220.557 472.947H220.837H224.517H224.677L224.597 473.147L230.597 489.927ZM253.322 486.227C254.022 485.547 254.382 484.607 254.382 483.467C254.382 482.307 254.022 481.387 253.322 480.707C252.602 480.027 251.602 479.687 250.302 479.687C249.002 479.687 248.002 480.027 247.302 480.707C246.582 481.387 246.242 482.307 246.242 483.467C246.242 484.607 246.582 485.547 247.302 486.227C248.002 486.927 249.002 487.267 250.302 487.267C251.602 487.267 252.602 486.927 253.322 486.227ZM255.982 478.927C257.062 480.007 257.582 481.567 257.582 483.607C257.582 485.647 257.062 487.207 255.982 488.287C254.662 489.727 252.782 490.447 250.302 490.447C247.782 490.447 245.882 489.727 244.622 488.287C243.562 487.207 243.022 485.647 243.022 483.607C243.022 481.567 243.562 480.007 244.622 478.927C245.882 477.487 247.782 476.767 250.302 476.767C252.782 476.767 254.662 477.487 255.982 478.927ZM264.888 477.407C265.688 477.107 266.508 476.947 267.368 476.947C267.728 476.947 268.068 476.967 268.408 477.007V480.667C267.928 480.167 267.188 479.767 266.128 479.767C265.048 479.767 264.228 480.067 263.668 480.667C263.108 481.267 262.808 482.107 262.808 483.227V490.407H262.748H260.248H259.168C259.168 487.327 259.168 476.947 259.168 476.947H262.688L261.788 481.847L262.468 479.947C262.868 478.847 263.648 477.927 264.708 477.487C264.768 477.447 264.828 477.427 264.888 477.407ZM269.07 490.467V473.067H272.31V490.467H269.07ZM284.702 486.847C285.362 486.127 285.702 485.127 285.702 483.807C285.702 482.487 285.362 481.487 284.702 480.787C284.042 480.067 283.102 479.707 281.862 479.707C280.642 479.707 279.702 480.067 279.042 480.787C278.402 481.487 278.062 482.487 278.062 483.807C278.062 485.127 278.402 486.127 279.042 486.847C279.702 487.567 280.642 487.907 281.862 487.907C283.102 487.907 284.042 487.567 284.702 486.847ZM285.742 479.967C285.742 476.767 285.742 473.487 285.742 472.987H289.362V490.347H285.742L286.482 485.947C286.482 485.947 286.462 485.967 286.442 485.987C286.182 486.907 285.782 487.747 285.182 488.487C284.162 489.787 282.622 490.447 280.562 490.447C278.502 490.447 276.942 489.787 275.942 488.487C274.922 487.207 274.422 485.627 274.422 483.807C274.422 482.007 274.922 480.447 275.942 479.147C276.942 477.827 278.502 477.167 280.562 477.167C282.622 477.167 284.162 477.827 285.182 479.147C285.382 479.407 285.582 479.687 285.742 479.967ZM320.734 472.967V476.067H313.754V490.447H310.074V476.067H303.074V472.967H320.734ZM335.98 478.807C336.42 479.307 336.7 479.787 336.8 480.307C336.9 480.807 336.94 481.647 336.94 482.807V490.407H333.12V482.527C333.12 481.827 332.34 479.947 329.96 479.947C328.86 479.927 328 480.247 327.42 480.847C326.84 481.427 326.56 482.287 326.56 483.387V490.407H326.42H323.92H322.84C322.84 487.527 322.84 474.467 322.84 472.827H326.52V477.247L325.42 482.227L326.2 480.127C326.6 479.027 327.42 478.107 328.5 477.647C328.56 477.627 328.62 477.607 328.7 477.567C329.5 477.287 330.34 477.127 331.24 477.127C332.24 477.127 333.16 477.267 333.96 477.547C334.78 477.827 335.46 478.247 335.98 478.807ZM344.771 477.407C345.571 477.107 346.391 476.947 347.251 476.947C347.611 476.947 347.951 476.967 348.291 477.007V480.667C347.811 480.167 347.071 479.767 346.011 479.767C344.931 479.767 344.111 480.067 343.551 480.667C342.991 481.267 342.691 482.107 342.691 483.227V490.407H342.631H340.131H339.051C339.051 487.327 339.051 476.947 339.051 476.947H342.571L341.671 481.847L342.351 479.947C342.751 478.847 343.531 477.927 344.591 477.487C344.651 477.447 344.711 477.427 344.771 477.407ZM359.533 486.227C360.233 485.547 360.593 484.607 360.593 483.467C360.593 482.307 360.233 481.387 359.533 480.707C358.813 480.027 357.813 479.687 356.513 479.687C355.213 479.687 354.213 480.027 353.513 480.707C352.793 481.387 352.453 482.307 352.453 483.467C352.453 484.607 352.793 485.547 353.513 486.227C354.213 486.927 355.213 487.267 356.513 487.267C357.813 487.267 358.813 486.927 359.533 486.227ZM362.193 478.927C363.273 480.007 363.793 481.567 363.793 483.607C363.793 485.647 363.273 487.207 362.193 488.287C360.873 489.727 358.993 490.447 356.513 490.447C353.993 490.447 352.093 489.727 350.833 488.287C349.773 487.207 349.233 485.647 349.233 483.607C349.233 481.567 349.773 480.007 350.833 478.927C352.093 477.487 353.993 476.767 356.513 476.767C358.993 476.767 360.873 477.487 362.193 478.927ZM375.559 476.947H378.039H379.139C379.139 480.027 379.139 490.407 379.139 490.407H375.599L376.519 485.507L375.819 487.407C375.439 488.507 374.639 489.427 373.599 489.887C373.539 489.907 373.459 489.927 373.399 489.967C372.619 490.247 371.799 490.407 370.919 490.407C369.939 490.407 369.059 490.267 368.259 489.987C367.479 489.707 366.819 489.287 366.319 488.727C365.879 488.227 365.619 487.747 365.519 487.227C365.419 486.707 365.379 485.887 365.379 484.727V476.947H369.099V485.007C369.099 485.707 369.859 487.587 372.159 487.587C373.239 487.607 374.079 487.287 374.639 486.687C375.199 486.107 375.479 485.247 375.479 484.127V476.947H375.559ZM391.518 486.847C391.978 486.347 392.278 485.667 392.418 484.867V484.727V482.747C392.278 481.947 391.978 481.287 391.518 480.787C390.858 480.067 389.918 479.707 388.678 479.707C387.458 479.707 386.518 480.067 385.858 480.787C385.218 481.487 384.878 482.487 384.878 483.807C384.878 485.127 385.218 486.127 385.858 486.847C386.518 487.567 387.458 487.907 388.678 487.907C389.918 487.907 390.858 487.567 391.518 486.847ZM393.398 482.187L392.418 476.947H395.958C395.958 476.947 395.958 487.387 395.958 490.327C395.958 493.267 393.738 496.067 390.198 496.227C383.978 496.527 382.318 494.147 382.318 494.147L382.098 491.627C382.098 491.627 385.458 494.187 389.798 493.167C392.678 492.487 392.418 489.327 392.418 489.327V487.907C392.298 488.107 392.158 488.307 391.998 488.487C390.978 489.787 389.438 490.447 387.378 490.447C385.318 490.447 383.758 489.787 382.758 488.487C381.738 487.207 381.238 485.627 381.238 483.807C381.238 482.007 381.738 480.447 382.758 479.147C383.758 477.827 385.318 477.167 387.378 477.167C389.438 477.167 390.978 477.827 391.998 479.147C392.698 480.047 393.158 481.047 393.378 482.167L393.398 482.187ZM411.195 478.807C411.635 479.307 411.915 479.787 412.015 480.307C412.115 480.807 412.155 481.647 412.155 482.807V490.407H408.335V482.527C408.335 481.827 407.555 479.947 405.175 479.947C404.075 479.927 403.215 480.247 402.635 480.847C402.055 481.427 401.775 482.287 401.775 483.387V490.407H401.635H399.135H398.055C398.055 487.527 398.055 474.467 398.055 472.827H401.735V477.247L400.635 482.227L401.415 480.127C401.815 479.027 402.635 478.107 403.715 477.647C403.775 477.627 403.835 477.607 403.915 477.567C404.715 477.287 405.555 477.127 406.455 477.127C407.455 477.127 408.375 477.267 409.175 477.547C409.995 477.827 410.675 478.247 411.195 478.807ZM443.547 472.967V476.067H436.567V490.447H432.887V476.067H425.887V472.967H443.547ZM458.792 478.807C459.232 479.307 459.512 479.787 459.612 480.307C459.712 480.807 459.752 481.647 459.752 482.807V490.407H455.932V482.527C455.932 481.827 455.152 479.947 452.772 479.947C451.672 479.927 450.812 480.247 450.232 480.847C449.652 481.427 449.372 482.287 449.372 483.387V490.407H449.232H446.732H445.652C445.652 487.527 445.652 474.467 445.652 472.827H449.332V477.247L448.232 482.227L449.012 480.127C449.412 479.027 450.232 478.107 451.312 477.647C451.372 477.627 451.432 477.607 451.512 477.567C452.312 477.287 453.152 477.127 454.052 477.127C455.052 477.127 455.972 477.267 456.772 477.547C457.592 477.827 458.272 478.247 458.792 478.807ZM465.743 482.487H473.683C473.543 481.767 473.223 481.187 472.723 480.707C472.023 480.027 471.003 479.687 469.703 479.687C468.423 479.687 467.403 480.027 466.703 480.707C466.203 481.187 465.883 481.767 465.743 482.487ZM473.763 483.787L470.003 483.767H465.663C465.703 484.787 466.063 485.607 466.703 486.227C467.403 486.927 468.403 487.267 469.703 487.267C471.003 487.267 472.023 486.927 472.723 486.227C472.783 486.167 472.843 486.107 472.903 486.047H476.683C476.423 486.947 475.983 487.687 475.383 488.287C474.083 489.727 472.183 490.447 469.703 490.447C467.183 490.447 465.303 489.727 464.023 488.287C462.963 487.207 462.423 485.647 462.423 483.607C462.423 481.567 462.963 480.007 464.023 478.927C465.303 477.487 467.183 476.767 469.703 476.767C472.183 476.767 474.083 477.487 475.383 478.927C476.463 480.007 477.003 481.567 477.003 483.607C477.003 483.647 477.003 483.687 477.003 483.727V483.787H473.763ZM500.663 487.647C501.703 487.287 502.223 486.607 502.223 485.607C502.223 485.047 501.963 484.587 501.443 484.267C500.943 483.967 499.603 483.687 498.503 483.447L496.083 483.047C494.223 482.627 492.943 482.187 492.243 481.707C491.063 480.887 490.483 479.627 490.483 477.907C490.483 476.347 491.063 475.047 492.203 474.007C493.363 472.967 495.583 472.447 497.803 472.447C499.683 472.447 501.803 472.947 503.103 473.927C504.423 474.907 505.123 476.307 505.183 478.167H501.663C501.603 477.127 501.143 476.367 500.263 475.927C499.683 475.647 498.423 475.487 497.563 475.487C496.603 475.487 495.303 475.687 494.723 476.067C494.143 476.447 493.863 476.967 493.863 477.647C493.863 478.287 494.143 478.747 494.703 479.047C495.083 479.267 496.383 479.507 497.563 479.787L501.143 480.507C502.503 480.827 503.503 481.247 504.183 481.767C505.223 482.587 505.743 483.787 505.743 485.347C505.743 486.947 505.123 488.267 503.883 489.327C502.663 490.387 500.383 490.907 498.123 490.907C495.823 490.907 493.483 490.387 492.163 489.347C490.843 488.307 490.203 486.887 490.203 485.067H493.683C493.803 485.847 494.023 486.447 494.343 486.847C494.963 487.567 496.523 487.927 497.983 487.927C498.863 487.927 500.103 487.827 500.663 487.647ZM530.68 478.647C531.1 479.127 531.38 479.627 531.46 480.127C531.56 480.647 531.62 481.467 531.62 482.627V490.407H527.88V482.347C527.88 481.667 527.12 479.787 524.82 479.767C523.74 479.767 522.9 480.067 522.34 480.667C521.96 481.067 521.72 481.587 521.6 482.227C521.6 482.347 521.6 482.487 521.6 482.627V490.407H521.5H518.94H517.88V482.347C517.88 481.667 517.12 479.787 514.8 479.767C513.72 479.767 512.9 480.067 512.34 480.667C511.78 481.267 511.48 482.107 511.48 483.227V490.407H511.42H508.92H507.84C507.84 487.327 507.84 476.947 507.84 476.947H511.36L510.46 481.847L511.14 479.947C511.54 478.847 512.32 477.927 513.38 477.487C513.44 477.447 513.5 477.427 513.56 477.407C514.36 477.107 515.18 476.947 516.04 476.947C517.02 476.947 517.9 477.087 518.7 477.367C519.5 477.647 520.14 478.067 520.66 478.647C520.94 478.947 521.16 479.287 521.3 479.607C521.72 478.667 522.46 477.887 523.38 477.487C523.44 477.447 523.52 477.427 523.58 477.407C524.36 477.107 525.2 476.947 526.06 476.947C527.04 476.947 527.92 477.087 528.72 477.367C529.5 477.647 530.16 478.067 530.68 478.647ZM538.379 486.287C537.919 488.107 542.019 489.087 543.839 486.027C543.839 485.267 543.839 484.487 543.839 483.767C542.039 484.107 538.879 484.227 538.379 486.287ZM535.659 477.907C535.659 477.907 544.579 475.207 547.179 479.627C547.579 480.307 547.659 481.127 547.659 481.907V490.587H543.839L544.459 486.787C544.419 486.887 544.379 486.987 544.319 487.067C542.039 491.627 532.859 492.227 533.999 486.767C534.759 483.107 540.279 482.167 543.799 481.947C543.279 477.827 535.639 480.747 535.639 480.747L535.659 477.907ZM549.52 490.467V473.067H552.76V490.467H549.52ZM554.871 490.467V473.067H558.111V490.467H554.871ZM564.103 482.487H572.043C571.903 481.767 571.583 481.187 571.083 480.707C570.383 480.027 569.363 479.687 568.063 479.687C566.783 479.687 565.763 480.027 565.063 480.707C564.563 481.187 564.243 481.767 564.103 482.487ZM572.123 483.787L568.363 483.767H564.023C564.063 484.787 564.423 485.607 565.063 486.227C565.763 486.927 566.763 487.267 568.063 487.267C569.363 487.267 570.383 486.927 571.083 486.227C571.143 486.167 571.203 486.107 571.263 486.047H575.043C574.783 486.947 574.343 487.687 573.743 488.287C572.443 489.727 570.543 490.447 568.063 490.447C565.543 490.447 563.663 489.727 562.383 488.287C561.323 487.207 560.783 485.647 560.783 483.607C560.783 481.567 561.323 480.007 562.383 478.927C563.663 477.487 565.543 476.767 568.063 476.767C570.543 476.767 572.443 477.487 573.743 478.927C574.823 480.007 575.363 481.567 575.363 483.607C575.363 483.647 575.363 483.687 575.363 483.727V483.787H572.123ZM580.481 480.687C580.481 482.807 588.661 482.087 589.561 486.127C590.701 491.247 577.081 492.447 576.261 486.507H579.621C580.721 488.267 585.701 488.507 585.701 486.667C585.701 484.007 577.381 485.707 576.661 481.307C575.781 475.907 588.501 475.247 589.161 481.247H585.781C585.541 479.327 580.481 478.787 580.481 480.687ZM596.062 486.727C596.362 487.367 596.942 487.687 597.802 487.687C598.562 487.687 599.162 487.467 599.602 487.047V489.407C599.182 489.727 598.782 489.967 598.402 490.107C597.922 490.267 597.362 490.347 596.722 490.347C594.902 490.347 593.662 489.687 593.022 488.367C592.662 487.627 592.482 486.547 592.482 485.127V478.527H590.802V477.367H592.482V474.767H595.822V477.367H597.822V478.527H595.822V485.127C595.822 485.847 595.902 486.367 596.062 486.727ZM617.609 483.847H625.569L621.609 473.467L617.609 483.847ZM627.689 490.447L626.549 486.867H616.609L615.429 490.447H611.609L617.849 472.967H625.469L631.669 490.447H627.689ZM637.317 480.687C637.317 482.807 645.497 482.087 646.397 486.127C647.537 491.247 633.917 492.447 633.097 486.507H636.457C637.557 488.267 642.537 488.507 642.537 486.667C642.537 484.007 634.217 485.707 633.497 481.307C632.617 475.907 645.337 475.247 645.997 481.247H642.617C642.377 479.327 637.317 478.787 637.317 480.687ZM659.098 487.147C659.758 486.447 660.078 485.427 660.078 484.127C660.078 482.807 659.758 481.787 659.098 481.087C658.438 480.367 657.498 480.007 656.278 480.007C655.058 480.007 654.098 480.367 653.438 481.087C652.778 481.787 652.458 482.807 652.458 484.127C652.458 485.427 652.778 486.447 653.438 487.147C654.098 487.867 655.058 488.207 656.278 488.207C657.498 488.207 658.438 487.867 659.098 487.147ZM657.578 477.487C659.658 477.487 661.198 478.127 662.218 479.427C663.218 480.727 663.738 482.287 663.738 484.127C663.738 485.907 663.218 487.467 662.218 488.787C661.198 490.107 659.658 490.767 657.578 490.767C655.518 490.767 653.978 490.107 652.958 488.787C652.758 488.527 652.578 488.247 652.418 487.967C652.398 491.167 652.398 494.447 652.398 494.927H648.778V477.407H652.418L651.658 481.987C651.658 481.987 651.678 481.967 651.718 481.947C651.958 481.007 652.378 480.187 652.958 479.427C653.978 478.127 655.518 477.487 657.578 477.487ZM669.181 482.487H677.121C676.981 481.767 676.661 481.187 676.161 480.707C675.461 480.027 674.441 479.687 673.141 479.687C671.861 479.687 670.841 480.027 670.141 480.707C669.641 481.187 669.321 481.767 669.181 482.487ZM677.201 483.787L673.441 483.767H669.101C669.141 484.787 669.501 485.607 670.141 486.227C670.841 486.927 671.841 487.267 673.141 487.267C674.441 487.267 675.461 486.927 676.161 486.227C676.221 486.167 676.281 486.107 676.341 486.047H680.121C679.861 486.947 679.421 487.687 678.821 488.287C677.521 489.727 675.621 490.447 673.141 490.447C670.621 490.447 668.741 489.727 667.461 488.287C666.401 487.207 665.861 485.647 665.861 483.607C665.861 481.567 666.401 480.007 667.461 478.927C668.741 477.487 670.621 476.767 673.141 476.767C675.621 476.767 677.521 477.487 678.821 478.927C679.901 480.007 680.441 481.567 680.441 483.607C680.441 483.647 680.441 483.687 680.441 483.727V483.787H677.201ZM693.56 485.267H697.02C696.8 486.507 696.3 487.527 695.54 488.287C694.24 489.727 692.34 490.447 689.86 490.447C687.34 490.447 685.46 489.727 684.18 488.287C683.12 487.207 682.58 485.647 682.58 483.607C682.58 481.567 683.12 480.007 684.18 478.927C685.46 477.487 687.34 476.767 689.86 476.767C692.34 476.767 694.24 477.487 695.54 478.927C696.3 479.687 696.78 480.687 697.02 481.927H693.68C693.5 481.447 693.24 481.047 692.88 480.707C692.18 480.027 691.16 479.687 689.86 479.687C688.58 479.687 687.56 480.027 686.86 480.707C686.16 481.387 685.8 482.307 685.8 483.467C685.8 484.607 686.16 485.547 686.86 486.227C687.56 486.927 688.56 487.267 689.86 487.267C691.16 487.267 692.18 486.927 692.88 486.227C693.16 485.947 693.4 485.627 693.56 485.267ZM703.815 486.727C704.115 487.367 704.695 487.687 705.555 487.687C706.315 487.687 706.915 487.467 707.355 487.047V489.407C706.935 489.727 706.535 489.967 706.155 490.107C705.675 490.267 705.115 490.347 704.475 490.347C702.655 490.347 701.415 489.687 700.775 488.367C700.415 487.627 700.235 486.547 700.235 485.127V478.527H698.555V477.367H700.235V474.767H703.575V477.367H705.575V478.527H703.575V485.127C703.575 485.847 703.655 486.367 703.815 486.727ZM711.282 480.687C711.282 482.807 719.462 482.087 720.362 486.127C721.502 491.247 707.882 492.447 707.062 486.507H710.422C711.522 488.267 716.502 488.507 716.502 486.667C716.502 484.007 708.182 485.707 707.462 481.307C706.582 475.907 719.302 475.247 719.962 481.247H716.582C716.342 479.327 711.282 478.787 711.282 480.687ZM739.523 483.847H747.483L743.523 473.467L739.523 483.847ZM749.603 490.447L748.463 486.867H738.523L737.343 490.447H733.523L739.763 472.967H747.383L753.583 490.447H749.603ZM761.411 477.407C762.211 477.107 763.031 476.947 763.891 476.947C764.251 476.947 764.591 476.967 764.931 477.007V480.667C764.451 480.167 763.711 479.767 762.651 479.767C761.571 479.767 760.751 480.067 760.191 480.667C759.631 481.267 759.331 482.107 759.331 483.227V490.407H759.271H756.771H755.691C755.691 487.327 755.691 476.947 755.691 476.947H759.211L758.311 481.847L758.991 479.947C759.391 478.847 760.171 477.927 761.231 477.487C761.291 477.447 761.351 477.427 761.411 477.407ZM776.174 486.227C776.874 485.547 777.234 484.607 777.234 483.467C777.234 482.307 776.874 481.387 776.174 480.707C775.454 480.027 774.454 479.687 773.154 479.687C771.854 479.687 770.854 480.027 770.154 480.707C769.434 481.387 769.094 482.307 769.094 483.467C769.094 484.607 769.434 485.547 770.154 486.227C770.854 486.927 771.854 487.267 773.154 487.267C774.454 487.267 775.454 486.927 776.174 486.227ZM778.834 478.927C779.914 480.007 780.434 481.567 780.434 483.607C780.434 485.647 779.914 487.207 778.834 488.287C777.514 489.727 775.634 490.447 773.154 490.447C770.634 490.447 768.734 489.727 767.474 488.287C766.414 487.207 765.874 485.647 765.874 483.607C765.874 481.567 766.414 480.007 767.474 478.927C768.734 477.487 770.634 476.767 773.154 476.767C775.634 476.767 777.514 477.487 778.834 478.927ZM792.2 476.947H794.68H795.78C795.78 480.027 795.78 490.407 795.78 490.407H792.24L793.16 485.507L792.46 487.407C792.08 488.507 791.28 489.427 790.24 489.887C790.18 489.907 790.1 489.927 790.04 489.967C789.26 490.247 788.44 490.407 787.56 490.407C786.58 490.407 785.7 490.267 784.9 489.987C784.12 489.707 783.46 489.287 782.96 488.727C782.52 488.227 782.26 487.747 782.16 487.227C782.06 486.707 782.02 485.887 782.02 484.727V476.947H785.74V485.007C785.74 485.707 786.5 487.587 788.8 487.587C789.88 487.607 790.72 487.287 791.28 486.687C791.84 486.107 792.12 485.247 792.12 484.127V476.947H792.2ZM810.699 478.647C811.139 479.127 811.399 479.627 811.499 480.127C811.599 480.647 811.639 481.467 811.639 482.627V490.407H807.919V482.347C807.919 481.667 807.159 479.787 804.839 479.767C803.759 479.767 802.939 480.067 802.379 480.667C801.819 481.267 801.519 482.107 801.519 483.227V490.407H801.459H798.959H797.879C797.879 487.327 797.879 476.947 797.879 476.947H801.399L800.499 481.847L801.179 479.947C801.579 478.847 802.359 477.927 803.419 477.487C803.479 477.447 803.539 477.427 803.599 477.407C804.399 477.107 805.219 476.947 806.079 476.947C807.059 476.947 807.939 477.087 808.739 477.367C809.539 477.647 810.179 478.067 810.699 478.647ZM824.018 486.847C824.678 486.127 825.018 485.127 825.018 483.807C825.018 482.487 824.678 481.487 824.018 480.787C823.358 480.067 822.418 479.707 821.178 479.707C819.958 479.707 819.018 480.067 818.358 480.787C817.718 481.487 817.378 482.487 817.378 483.807C817.378 485.127 817.718 486.127 818.358 486.847C819.018 487.567 819.958 487.907 821.178 487.907C822.418 487.907 823.358 487.567 824.018 486.847ZM825.058 479.967C825.058 476.767 825.058 473.487 825.058 472.987H828.678V490.347H825.058L825.798 485.947C825.798 485.947 825.778 485.967 825.758 485.987C825.498 486.907 825.098 487.747 824.498 488.487C823.478 489.787 821.938 490.447 819.878 490.447C817.818 490.447 816.258 489.787 815.258 488.487C814.238 487.207 813.738 485.627 813.738 483.807C813.738 482.007 814.238 480.447 815.258 479.147C816.258 477.827 817.818 477.167 819.878 477.167C821.938 477.167 823.478 477.827 824.498 479.147C824.698 479.407 824.898 479.687 825.058 479.967ZM851.631 490.627H848.431C845.091 490.627 842.391 487.927 842.391 484.587V473.047C842.391 473.007 842.411 472.967 842.471 472.967H846.051C846.011 473.047 846.011 473.127 846.011 473.207V484.307C846.011 485.927 847.311 487.427 848.931 487.427H851.131C852.751 487.427 854.051 485.927 854.051 484.307V473.207C854.051 473.127 854.031 473.047 854.011 472.967H857.591C857.631 472.967 857.671 473.007 857.671 473.047V484.587C857.671 487.927 854.971 490.627 851.631 490.627ZM863.333 480.687C863.333 482.807 871.513 482.087 872.413 486.127C873.553 491.247 859.933 492.447 859.113 486.507H862.473C863.573 488.267 868.553 488.507 868.553 486.667C868.553 484.007 860.233 485.707 859.513 481.307C858.633 475.907 871.353 475.247 872.013 481.247H868.633C868.393 479.327 863.333 478.787 863.333 480.687Z" fill="white"/>
<rect x="16.5" y="427.447" width="67" height="6" fill="white"/>
<rect x="9.5" y="456.447" width="74" height="6" fill="white"/>
<rect x="9.5" y="441.447" width="68" height="6" fill="white"/>
<rect x="9.5" y="427.447" width="7" height="35" fill="white"/>
<path d="M129.98 433.127L121.94 462.447H108.18L99.26 433.127C99.26 433.767 99.26 434.727 99.26 435.927C99.3 437.167 99.3 438.127 99.3 438.807V462.447H92.5V427.487H104.86L115.06 462.087L124.34 427.487H136.74V462.447H129.9V438.807C129.9 438.127 129.94 437.167 129.94 435.927C129.94 434.727 129.98 433.767 129.98 433.127ZM148.178 433.567V443.847H158.978C160.618 443.847 161.938 443.447 162.858 442.607C163.778 441.767 164.258 440.447 164.258 438.607C164.258 436.807 163.778 435.487 162.858 434.727C161.938 433.967 160.618 433.567 158.978 433.567H148.178ZM148.178 449.887V462.447H140.938V427.487H160.138C163.578 427.487 166.338 428.367 168.418 430.207C170.458 432.007 171.498 434.767 171.498 438.567C171.498 442.687 170.458 445.607 168.418 447.327C166.378 449.047 163.458 449.887 159.658 449.887H148.178ZM203.182 452.927C205.222 450.967 206.222 448.367 206.222 445.087C206.222 441.807 205.222 439.207 203.182 437.287C201.142 435.367 198.222 434.407 194.462 434.407C190.702 434.407 187.782 435.367 185.742 437.287C183.702 439.207 182.662 441.807 182.662 445.087C182.662 448.367 183.702 450.967 185.742 452.927C187.782 454.887 190.662 455.847 194.462 455.847C198.222 455.847 201.142 454.887 203.182 452.927ZM209.062 457.127C205.662 460.847 200.822 462.687 194.462 462.687C187.982 462.687 183.102 460.847 179.862 457.127C177.102 454.327 175.742 450.327 175.742 445.087C175.742 439.847 177.102 435.847 179.862 433.087C183.102 429.367 187.982 427.527 194.462 427.527C200.822 427.527 205.662 429.367 209.062 433.087C211.822 435.847 213.182 439.847 213.182 445.087C213.182 450.327 211.822 454.327 209.062 457.127ZM269.343 461.407L281.743 427.447H289.383L276.903 462.447H261.663L253.343 439.007L244.983 462.447H229.743L217.383 427.447H225.303L237.463 461.407L249.543 428.247L249.263 427.447H249.823H257.183H257.503L257.343 427.847L269.343 461.407ZM324.313 456.167V462.447H293.633V427.487H323.473V433.687H300.753V441.127H321.953V447.167H300.753V456.167H324.313ZM335.795 433.567V443.847H346.595C348.235 443.847 349.555 443.447 350.475 442.607C351.395 441.767 351.875 440.447 351.875 438.607C351.875 436.807 351.395 435.487 350.475 434.727C349.555 433.967 348.235 433.567 346.595 433.567H335.795ZM335.795 449.887V462.447H328.555V427.487H347.755C351.195 427.487 353.955 428.367 356.035 430.207C358.075 432.007 359.115 434.767 359.115 438.567C359.115 442.687 358.315 445.927 356.035 447.327C354.475 448.327 352.115 448.407 351.675 448.647C357.835 450.407 358.595 462.527 358.595 462.527H350.155L348.635 453.407C348.555 453.087 348.475 452.767 348.355 452.447C347.715 450.887 346.195 449.887 344.475 449.887C340.955 449.887 335.795 449.887 335.795 449.887ZM363.359 462.447V427.487H370.599V462.447H363.359ZM403.364 451.887V427.487H410.164V462.447H402.844L381.644 437.647V462.447H374.844V427.487H382.484L403.364 451.887ZM431.614 450.527V444.247H451.414V462.847H444.094V456.687C442.014 459.727 438.574 462.607 433.134 462.687C426.654 462.807 421.774 460.847 418.534 457.127C415.774 454.327 414.414 450.327 414.414 445.087C414.414 439.847 415.774 435.847 418.534 433.087C421.774 429.367 426.654 427.527 433.134 427.527C439.494 427.527 444.334 429.367 447.734 433.087C449.494 434.847 450.694 437.127 451.294 439.887H443.774C443.294 438.927 442.654 438.047 441.854 437.287C439.814 435.367 436.894 434.407 433.134 434.407C429.374 434.407 426.454 435.367 424.414 437.287C422.374 439.207 421.334 441.807 421.334 445.087C421.334 448.367 422.374 450.967 424.414 452.927C426.454 454.887 429.334 455.847 433.134 455.847C436.894 455.847 439.814 454.887 441.854 452.927C442.574 452.207 443.174 451.407 443.654 450.527H431.614ZM514.187 427.487V433.687H500.227V462.447H492.867V433.687H478.867V427.487H514.187ZM550.678 462.447H543.438V446.847H525.638V462.447H518.398V427.487H525.638V440.807H543.438V427.487H550.678V462.447ZM585.602 456.167V462.447H554.922V427.487H584.762V433.687H562.042V441.127H583.242V447.167H562.042V456.167H585.602ZM620.326 447.807V462.447H613.086V427.527H642.206V433.687H620.326V441.727H640.006V447.807H620.326ZM664.886 462.807H658.486C651.806 462.807 646.406 457.407 646.406 450.727V427.647C646.406 427.567 646.446 427.487 646.566 427.487H653.726C653.646 427.647 653.646 427.807 653.646 427.967V450.167C653.646 453.407 656.246 456.407 659.486 456.407H663.886C667.126 456.407 669.726 453.407 669.726 450.167V427.967C669.726 427.807 669.686 427.647 669.646 427.487H676.806C676.886 427.487 676.966 427.567 676.966 427.647V450.727C676.966 457.407 671.566 462.807 664.886 462.807ZM716.531 427.487V433.687H702.571V462.447H695.211V433.687H681.211V427.487H716.531ZM739.222 462.807H732.822C726.142 462.807 720.742 457.407 720.742 450.727V427.647C720.742 427.567 720.782 427.487 720.902 427.487H728.062C727.982 427.647 727.982 427.807 727.982 427.967V450.167C727.982 453.407 730.582 456.407 733.822 456.407H738.222C741.462 456.407 744.062 453.407 744.062 450.167V427.967C744.062 427.807 744.022 427.647 743.982 427.487H751.142C751.222 427.487 751.302 427.567 751.302 427.647V450.727C751.302 457.407 745.902 462.807 739.222 462.807ZM762.787 433.567V443.847H773.587C775.227 443.847 776.547 443.447 777.467 442.607C778.387 441.767 778.867 440.447 778.867 438.607C778.867 436.807 778.387 435.487 777.467 434.727C776.547 433.967 775.227 433.567 773.587 433.567H762.787ZM762.787 449.887V462.447H755.547V427.487H774.747C778.187 427.487 780.947 428.367 783.027 430.207C785.067 432.007 786.107 434.767 786.107 438.567C786.107 442.687 785.307 445.927 783.027 447.327C781.467 448.327 779.107 448.407 778.667 448.647C784.827 450.407 785.587 462.527 785.587 462.527H777.147L775.627 453.407C775.547 453.087 775.467 452.767 775.347 452.447C774.707 450.887 773.187 449.887 771.467 449.887C767.947 449.887 762.787 449.887 762.787 449.887ZM821.032 456.167V462.447H790.352V427.487H820.192V433.687H797.472V441.127H818.672V447.167H797.472V456.167H821.032ZM849.756 461.207C848.916 460.367 848.516 459.327 848.516 458.047C848.516 456.767 848.916 455.727 849.756 454.927C850.596 454.127 851.636 453.727 852.876 453.727C854.116 453.727 855.116 454.127 855.996 454.927C856.836 455.727 857.236 456.767 857.236 458.047C857.236 459.327 856.836 460.367 855.996 461.207C855.116 462.047 854.116 462.447 852.876 462.447C851.636 462.447 850.596 462.047 849.756 461.207ZM849.756 445.007C848.916 444.167 848.516 443.127 848.516 441.887C848.516 440.567 848.916 439.527 849.756 438.727C850.596 437.927 851.636 437.527 852.876 437.527C854.116 437.527 855.116 437.927 855.996 438.727C856.836 439.527 857.236 440.567 857.236 441.887C857.236 443.127 856.836 444.167 855.996 445.007C855.116 445.887 854.116 446.287 852.876 446.287C851.636 446.287 850.596 445.887 849.756 445.007Z" fill="white"/>
<path d="M1091.83 479.791V477.902H1103.09V479.791H1098.55V492.447H1096.37V479.791H1091.83ZM1107.11 477.902L1110.59 483.591H1110.7L1114.18 477.902H1116.72L1112.19 485.175L1116.75 492.447H1114.19L1110.7 486.836H1110.59L1107.09 492.447H1104.53L1109.17 485.175L1104.56 477.902H1107.11ZM1128.25 477.902H1130.45V487.469C1130.45 488.487 1130.22 489.389 1129.74 490.175C1129.26 490.956 1128.59 491.571 1127.72 492.021C1126.85 492.466 1125.84 492.689 1124.67 492.689C1123.51 492.689 1122.5 492.466 1121.63 492.021C1120.77 491.571 1120.09 490.956 1119.62 490.175C1119.14 489.389 1118.9 488.487 1118.9 487.469V477.902H1121.09V487.291C1121.09 487.949 1121.24 488.534 1121.53 489.045C1121.82 489.557 1122.23 489.959 1122.77 490.253C1123.3 490.541 1123.94 490.686 1124.67 490.686C1125.41 490.686 1126.05 490.541 1126.58 490.253C1127.12 489.959 1127.54 489.557 1127.82 489.045C1128.11 488.534 1128.25 487.949 1128.25 487.291V477.902Z" fill="white"/>
<path d="M10.3807 11.791V9.90181H21.6378V11.791H17.0994V24.4473H14.9119V11.791H10.3807ZM24.1254 24.4473V9.90181H33.2447V11.791H26.32V16.2228H32.7688V18.1049H26.32V22.5581H33.3299V24.4473H24.1254ZM40.8849 24.4473H36.1761V9.90181H41.0341C42.4593 9.90181 43.6832 10.193 44.706 10.7754C45.7287 11.353 46.5123 12.184 47.0568 13.2683C47.6061 14.3478 47.8807 15.6428 47.8807 17.1532C47.8807 18.6684 47.6037 19.9705 47.0497 21.0595C46.5005 22.1485 45.705 22.9866 44.6634 23.5737C43.6217 24.1561 42.3622 24.4473 40.8849 24.4473ZM38.3707 22.5297H40.7642C41.8722 22.5297 42.7931 22.3213 43.527 21.9047C44.2609 21.4833 44.8101 20.8748 45.1747 20.0794C45.5393 19.2792 45.7216 18.3038 45.7216 17.1532C45.7216 16.0121 45.5393 15.0439 45.1747 14.2484C44.8149 13.4529 44.2775 12.8493 43.5625 12.4373C42.8475 12.0254 41.9598 11.8194 40.8991 11.8194H38.3707V22.5297Z" fill="white"/>
<defs>
<linearGradient id="paint0_linear_1922_123" x1="0" y1="0" x2="1139" y2="500" gradientUnits="userSpaceOnUse">
<stop offset="0.065646" stop-color="#EB0028"/>
<stop offset="0.317053" stop-opacity="0"/>
<stop offset="0.492652" stop-color="#011E63"/>
<stop offset="0.854129" stop-color="#011E63" stop-opacity="0"/>
</linearGradient>
</defs>
</svg>
