<svg width="418" height="46" viewBox="0 0 418 46" fill="none" xmlns="http://www.w3.org/2000/svg">
<path d="M16.2554 21.7193V16.0673H34.0754V32.8073H27.4874V27.2633C25.6154 29.9993 22.5194 32.5913 17.6234 32.6633C11.7914 32.7713 7.39939 31.0073 4.48339 27.6593C1.99939 25.1393 0.775391 21.5393 0.775391 16.8233C0.775391 12.1073 1.99939 8.50726 4.48339 6.02326C7.39939 2.67526 11.7914 1.01926 17.6234 1.01926C23.3474 1.01926 27.7034 2.67526 30.7634 6.02326C32.3474 7.60726 33.4274 9.65927 33.9674 12.1433H27.1994C26.7674 11.2793 26.1914 10.4873 25.4714 9.80327C23.6354 8.07526 21.0074 7.21126 17.6234 7.21126C14.2394 7.21126 11.6114 8.07526 9.77539 9.80327C7.93939 11.5313 7.00339 13.8713 7.00339 16.8233C7.00339 19.7753 7.93939 22.1153 9.77539 23.8793C11.6114 25.6433 14.2034 26.5073 17.6234 26.5073C21.0074 26.5073 23.6354 25.6433 25.4714 23.8793C26.1194 23.2313 26.6594 22.5113 27.0914 21.7193H16.2554ZM44.3812 6.45526V15.7073H54.1012C55.5772 15.7073 56.7652 15.3473 57.5932 14.5913C58.4212 13.8353 58.8532 12.6473 58.8532 10.9913C58.8532 9.37126 58.4212 8.18326 57.5932 7.49926C56.7652 6.81527 55.5772 6.45526 54.1012 6.45526H44.3812ZM44.3812 21.1433V32.4473H37.8652V0.983265H55.1452C58.2412 0.983265 60.7252 1.77526 62.5972 3.43126C64.4332 5.05126 65.3692 7.53526 65.3692 10.9553C65.3692 14.6633 64.6492 17.5793 62.5972 18.8393C61.1932 19.7393 59.0692 19.8113 58.6732 20.0273C64.2172 21.6113 64.9012 32.5193 64.9012 32.5193H57.3052L55.9372 24.3113C55.8652 24.0233 55.7932 23.7353 55.6852 23.4473C55.1092 22.0433 53.7412 21.1433 52.1932 21.1433C49.0252 21.1433 44.3812 21.1433 44.3812 21.1433ZM79.9895 20.5673H94.3175L87.1895 1.88326L79.9895 20.5673ZM98.1335 32.4473L96.0815 26.0033H78.1895L76.0655 32.4473H69.1895L80.4215 0.983265H94.1375L105.297 32.4473H98.1335ZM134.76 22.9433V0.983265H140.88V32.4473H134.292L115.212 10.1273V32.4473H109.092V0.983265H115.968L134.76 22.9433ZM151.077 27.0113H160.905C164.037 27.0113 166.197 25.4633 167.421 22.4033C168.105 20.7113 168.429 18.7313 168.429 16.3913C168.429 13.1873 167.925 10.7393 166.917 9.01126C165.909 7.31927 163.929 6.45526 160.905 6.45526H151.077V27.0113ZM172.605 26.5793C170.301 30.5033 166.809 32.4473 162.021 32.4473H144.705V0.983265H162.021C164.001 1.01926 165.621 1.23526 166.917 1.66726C169.113 2.38726 170.913 3.71926 172.281 5.66326C173.361 7.21126 174.117 8.90326 174.513 10.7393C174.909 12.5753 175.125 14.3033 175.125 15.9593C175.125 20.1353 174.261 23.6993 172.605 26.5793ZM230.563 0.983265V6.56326H217.999V32.4473H211.375V6.56326H198.775V0.983265H230.563ZM263.406 32.4473H256.89V18.4073H240.87V32.4473H234.354V0.983265H240.87V12.9713H256.89V0.983265H263.406V32.4473Z" fill="white"/>
<rect x="274.146" y="1" width="63.6447" height="5.39098" fill="white"/>
<rect x="267.5" y="27.0532" width="70.2941" height="5.39098" fill="white"/>
<rect x="267.5" y="13.5828" width="64.5946" height="5.39098" fill="white"/>
<rect x="267.5" y="1" width="6.64944" height="31.4474" fill="white"/>
<path d="M375.72 6.05926L368.484 32.4473H356.1L348.072 6.05926C348.072 6.63527 348.072 7.49926 348.072 8.57926C348.108 9.69526 348.108 10.5593 348.108 11.1713V32.4473H341.988V0.983265H353.112L362.292 32.1233L370.644 0.983265H381.804V32.4473H375.648V11.1713C375.648 10.5593 375.684 9.69526 375.684 8.57926C375.684 7.49926 375.72 6.63527 375.72 6.05926ZM413.194 26.7953V32.4473H385.582V0.983265H412.438V6.56326H391.99V13.2593H411.07V18.6953H391.99V26.7953H413.194Z" fill="white"/>
</svg>
