<svg width="615" height="119" viewBox="0 0 615 119" fill="none" xmlns="http://www.w3.org/2000/svg">
<g filter="url(#filter0_d_2024_130)">
<g filter="url(#filter1_bd_2024_130)">
<rect x="25" y="21" width="560" height="68" rx="30" fill="url(#paint0_linear_2024_130)" shape-rendering="crispEdges"/>
<path d="M59.344 42.672V48.84H65.824C66.808 48.84 67.6 48.6 68.152 48.096C68.704 47.592 68.992 46.8 68.992 45.696C68.992 44.616 68.704 43.824 68.152 43.368C67.6 42.912 66.808 42.672 65.824 42.672H59.344ZM59.344 52.464V60H55V39.024H66.52C68.584 39.024 70.24 39.552 71.488 40.656C72.712 41.736 73.336 43.392 73.336 45.672C73.336 48.144 72.712 49.896 71.488 50.928C70.264 51.96 68.512 52.464 66.232 52.464H59.344ZM82.7468 44.352C83.7068 43.992 84.6908 43.8 85.7228 43.8C86.1548 43.8 86.5628 43.824 86.9708 43.872V48.264C86.3948 47.664 85.5068 47.184 84.2348 47.184C82.9388 47.184 81.9548 47.544 81.2828 48.264C80.6108 48.984 80.2508 49.992 80.2508 51.336V59.952H80.1788H77.1788H75.8828C75.8828 56.256 75.8828 43.8 75.8828 43.8H80.1068L79.0268 49.68L79.8428 47.4C80.3228 46.08 81.2588 44.976 82.5308 44.448C82.6028 44.4 82.6748 44.376 82.7468 44.352ZM92.4216 50.448H101.95C101.782 49.584 101.398 48.888 100.798 48.312C99.9576 47.496 98.7336 47.088 97.1736 47.088C95.6376 47.088 94.4136 47.496 93.5736 48.312C92.9736 48.888 92.5896 49.584 92.4216 50.448ZM102.046 52.008L97.5336 51.984H92.3256C92.3736 53.208 92.8056 54.192 93.5736 54.936C94.4136 55.776 95.6136 56.184 97.1736 56.184C98.7336 56.184 99.9576 55.776 100.798 54.936C100.87 54.864 100.942 54.792 101.014 54.72H105.55C105.238 55.8 104.71 56.688 103.99 57.408C102.43 59.136 100.15 60 97.1736 60C94.1496 60 91.8936 59.136 90.3576 57.408C89.0856 56.112 88.4376 54.24 88.4376 51.792C88.4376 49.344 89.0856 47.472 90.3576 46.176C91.8936 44.448 94.1496 43.584 97.1736 43.584C100.15 43.584 102.43 44.448 103.99 46.176C105.286 47.472 105.934 49.344 105.934 51.792C105.934 51.84 105.934 51.888 105.934 51.936V52.008H102.046ZM112.076 48.288C112.076 50.832 121.892 49.968 122.972 54.816C124.34 60.96 107.996 62.4 107.012 55.272H111.044C112.364 57.384 118.34 57.672 118.34 55.464C118.34 52.272 108.356 54.312 107.492 49.032C106.436 42.552 121.7 41.76 122.492 48.96H118.436C118.148 46.656 112.076 46.008 112.076 48.288ZM130.412 55.008C129.86 57.192 134.78 58.368 136.964 54.696C136.964 53.784 136.964 52.848 136.964 51.984C134.804 52.392 131.012 52.536 130.412 55.008ZM127.148 44.952C127.148 44.952 137.852 41.712 140.972 47.016C141.452 47.832 141.548 48.816 141.548 49.752V60.168H136.964L137.708 55.608C137.66 55.728 137.612 55.848 137.54 55.944C134.804 61.416 123.788 62.136 125.156 55.584C126.068 51.192 132.692 50.064 136.916 49.8C136.292 44.856 127.124 48.36 127.124 48.36L127.148 44.952ZM143.781 60.024V39.144H147.669V60.024H143.781ZM154.859 50.448H164.387C164.219 49.584 163.835 48.888 163.235 48.312C162.395 47.496 161.171 47.088 159.611 47.088C158.075 47.088 156.851 47.496 156.011 48.312C155.411 48.888 155.027 49.584 154.859 50.448ZM164.483 52.008L159.971 51.984H154.763C154.811 53.208 155.243 54.192 156.011 54.936C156.851 55.776 158.051 56.184 159.611 56.184C161.171 56.184 162.395 55.776 163.235 54.936C163.307 54.864 163.379 54.792 163.451 54.72H167.987C167.675 55.8 167.147 56.688 166.427 57.408C164.867 59.136 162.587 60 159.611 60C156.587 60 154.331 59.136 152.795 57.408C151.523 56.112 150.875 54.24 150.875 51.792C150.875 49.344 151.523 47.472 152.795 46.176C154.331 44.448 156.587 43.584 159.611 43.584C162.587 43.584 164.867 44.448 166.427 46.176C167.723 47.472 168.371 49.344 168.371 51.792C168.371 51.84 168.371 51.888 168.371 51.936V52.008H164.483ZM189.011 38.88H192.683V60.144H188.171V45.48H185.219V42.456C185.459 42.432 185.651 42.408 185.795 42.36C186.683 42.168 187.403 41.808 187.955 41.256C188.339 40.872 188.627 40.368 188.819 39.72C188.939 39.336 189.011 39.048 189.011 38.88Z" fill="white"/>
<rect x="26.5" y="22.5" width="557" height="65" rx="28.5" stroke="url(#paint1_linear_2024_130)" stroke-width="3" shape-rendering="crispEdges"/>
</g>
</g>
<defs>
<filter id="filter0_d_2024_130" x="5" y="1" width="610" height="118" filterUnits="userSpaceOnUse" color-interpolation-filters="sRGB">
<feFlood flood-opacity="0" result="BackgroundImageFix"/>
<feColorMatrix in="SourceAlpha" type="matrix" values="0 0 0 0 0 0 0 0 0 0 0 0 0 0 0 0 0 0 127 0" result="hardAlpha"/>
<feOffset dx="5" dy="5"/>
<feGaussianBlur stdDeviation="12.5"/>
<feComposite in2="hardAlpha" operator="out"/>
<feColorMatrix type="matrix" values="0 0 0 0 0.921569 0 0 0 0 0 0 0 0 0 0.156863 0 0 0 1 0"/>
<feBlend mode="normal" in2="BackgroundImageFix" result="effect1_dropShadow_2024_130"/>
<feBlend mode="normal" in="SourceGraphic" in2="effect1_dropShadow_2024_130" result="shape"/>
</filter>
<filter id="filter1_bd_2024_130" x="-15" y="-19" width="640" height="148" filterUnits="userSpaceOnUse" color-interpolation-filters="sRGB">
<feFlood flood-opacity="0" result="BackgroundImageFix"/>
<feGaussianBlur in="BackgroundImageFix" stdDeviation="20"/>
<feComposite in2="SourceAlpha" operator="in" result="effect1_backgroundBlur_2024_130"/>
<feColorMatrix in="SourceAlpha" type="matrix" values="0 0 0 0 0 0 0 0 0 0 0 0 0 0 0 0 0 0 127 0" result="hardAlpha"/>
<feOffset dy="4"/>
<feGaussianBlur stdDeviation="12.5"/>
<feComposite in2="hardAlpha" operator="out"/>
<feColorMatrix type="matrix" values="0 0 0 0 0 0 0 0 0 0 0 0 0 0 0 0 0 0 0.25 0"/>
<feBlend mode="normal" in2="effect1_backgroundBlur_2024_130" result="effect2_dropShadow_2024_130"/>
<feBlend mode="normal" in="SourceGraphic" in2="effect2_dropShadow_2024_130" result="shape"/>
</filter>
<linearGradient id="paint0_linear_2024_130" x1="25" y1="21" x2="145.292" y2="289" gradientUnits="userSpaceOnUse">
<stop offset="0.39375" stop-color="#EB0028"/>
<stop offset="1" stop-color="white" stop-opacity="0"/>
</linearGradient>
<linearGradient id="paint1_linear_2024_130" x1="25" y1="21" x2="138.544" y2="282.702" gradientUnits="userSpaceOnUse">
<stop stop-color="white"/>
<stop offset="1" stop-opacity="0"/>
</linearGradient>
</defs>
</svg>
