<svg width="610" height="147" viewBox="0 0 610 147" fill="none" xmlns="http://www.w3.org/2000/svg">
<path d="M24.8 0.879999H28.472V22.144H23.96V7.48H21.008V4.456C21.248 4.432 21.44 4.408 21.584 4.36C22.472 4.168 23.192 3.808 23.744 3.256C24.128 2.872 24.416 2.368 24.608 1.72C24.728 1.336 24.8 1.048 24.8 0.879999ZM35.8625 0.879999H39.5345V22.144H35.0225V7.48H32.0705V4.456C32.3105 4.432 32.5025 4.408 32.6465 4.36C33.5345 4.168 34.2545 3.808 34.8065 3.256C35.1905 2.872 35.4785 2.368 35.6705 1.72C35.7905 1.336 35.8625 1.048 35.8625 0.879999ZM48.077 17.536C48.437 18.304 49.133 18.688 50.165 18.688C51.077 18.688 51.797 18.424 52.325 17.92V20.752C51.821 21.136 51.341 21.424 50.885 21.592C50.309 21.784 49.637 21.88 48.869 21.88C46.685 21.88 45.197 21.088 44.429 19.504C43.997 18.616 43.781 17.32 43.781 15.616V7.696H41.765V6.304H43.781V3.184H47.789V6.304H50.189V7.696H47.789V15.616C47.789 16.48 47.885 17.104 48.077 17.536ZM68.5571 8.032C69.0851 8.632 69.4211 9.208 69.5411 9.832C69.6611 10.432 69.7091 11.44 69.7091 12.832V21.952H65.1251V12.496C65.1251 11.656 64.1891 9.4 61.3331 9.4C60.0131 9.376 58.9811 9.76 58.2851 10.48C57.5891 11.176 57.2531 12.208 57.2531 13.528V21.952H57.0851H54.0851H52.7891C52.7891 18.496 52.7891 2.824 52.7891 0.855999H57.2051V6.16L55.8851 12.136L56.8211 9.616C57.3011 8.296 58.2851 7.192 59.5811 6.64C59.6531 6.616 59.7251 6.592 59.8211 6.544C60.7811 6.208 61.7891 6.016 62.8691 6.016C64.0691 6.016 65.1731 6.184 66.1331 6.52C67.1171 6.856 67.9331 7.36 68.5571 8.032ZM86.1875 13.456H93.8195V16.84H86.1875V13.456ZM111.536 17.704C112.232 16.312 113.912 14.848 116.576 13.264C118.88 11.92 120.368 10.936 121.04 10.36C122.096 9.448 122.6 8.44 122.6 7.36C122.6 6.472 122.312 5.728 121.712 5.128C121.112 4.552 120.272 4.264 119.144 4.264C117.632 4.264 116.6 4.72 116.048 5.656C115.736 6.208 115.544 7.048 115.496 8.224H110.624C110.72 6.448 111.104 5.008 111.8 3.904C113.144 1.816 115.52 0.759999 118.928 0.759999C121.616 0.759999 123.752 1.384 125.336 2.608C126.944 3.832 127.736 5.464 127.736 7.504C127.736 9.04 127.16 10.432 126.032 11.632C125.312 12.424 124.088 13.312 122.408 14.296L120.392 15.472C119.144 16.216 118.28 16.744 117.824 17.056C117.368 17.392 116.984 17.776 116.672 18.208H127.76V21.832H110.36C110.408 20.32 110.792 18.952 111.536 17.704ZM150.056 4.312C149.24 4.912 148.136 5.968 146.696 7.504C145.256 9.04 144.056 10.624 143.072 12.256C142.304 13.528 141.632 15.088 141.008 16.936C140.384 18.784 140.072 20.32 140.072 21.496H134.504C134.648 17.8 136.28 13.96 139.328 9.952C141.296 7.48 142.952 5.752 144.296 4.792H130.664L130.736 1.144H150.056V4.312ZM158.585 17.536C158.945 18.304 159.641 18.688 160.673 18.688C161.585 18.688 162.305 18.424 162.833 17.92V20.752C162.329 21.136 161.849 21.424 161.393 21.592C160.817 21.784 160.145 21.88 159.377 21.88C157.193 21.88 155.705 21.088 154.937 19.504C154.505 18.616 154.289 17.32 154.289 15.616V7.696H152.273V6.304H154.289V3.184H158.297V6.304H160.697V7.696H158.297V15.616C158.297 16.48 158.393 17.104 158.585 17.536ZM179.065 8.032C179.593 8.632 179.929 9.208 180.049 9.832C180.169 10.432 180.217 11.44 180.217 12.832V21.952H175.633V12.496C175.633 11.656 174.697 9.4 171.841 9.4C170.521 9.376 169.489 9.76 168.793 10.48C168.097 11.176 167.761 12.208 167.761 13.528V21.952H167.593H164.593H163.297C163.297 18.496 163.297 2.824 163.297 0.855999H167.713V6.16L166.393 12.136L167.329 9.616C167.809 8.296 168.793 7.192 170.089 6.64C170.161 6.616 170.233 6.592 170.329 6.544C171.289 6.208 172.297 6.016 173.377 6.016C174.577 6.016 175.681 6.184 176.641 6.52C177.625 6.856 178.441 7.36 179.065 8.032ZM203.895 14.08H213.447L208.695 1.624L203.895 14.08ZM215.991 22L214.623 17.704H202.695L201.279 22H196.695L204.183 1.024H213.327L220.767 22H215.991ZM235.513 5.8H238.489H239.809C239.809 9.496 239.809 21.952 239.809 21.952H235.561L236.665 16.072L235.825 18.352C235.369 19.672 234.409 20.776 233.161 21.328C233.089 21.352 232.993 21.376 232.921 21.424C231.985 21.76 231.001 21.952 229.945 21.952C228.769 21.952 227.713 21.784 226.753 21.448C225.817 21.112 225.025 20.608 224.425 19.936C223.897 19.336 223.585 18.76 223.465 18.136C223.345 17.512 223.297 16.528 223.297 15.136V5.8H227.761V15.472C227.761 16.312 228.673 18.568 231.433 18.568C232.729 18.592 233.737 18.208 234.409 17.488C235.081 16.792 235.417 15.76 235.417 14.416V5.8H235.513ZM254.664 17.68C255.216 17.08 255.576 16.264 255.744 15.304V15.136V12.76C255.576 11.8 255.216 11.008 254.664 10.408C253.872 9.544 252.744 9.112 251.256 9.112C249.792 9.112 248.664 9.544 247.872 10.408C247.104 11.248 246.696 12.448 246.696 14.032C246.696 15.616 247.104 16.816 247.872 17.68C248.664 18.544 249.792 18.952 251.256 18.952C252.744 18.952 253.872 18.544 254.664 17.68ZM256.92 12.088L255.744 5.8H259.992C259.992 5.8 259.992 18.328 259.992 21.856C259.992 25.384 257.328 28.744 253.08 28.936C245.616 29.296 243.624 26.44 243.624 26.44L243.36 23.416C243.36 23.416 247.392 26.488 252.6 25.264C256.056 24.448 255.744 20.656 255.744 20.656V18.952C255.6 19.192 255.432 19.432 255.24 19.648C254.016 21.208 252.168 22 249.696 22C247.224 22 245.352 21.208 244.152 19.648C242.928 18.112 242.328 16.216 242.328 14.032C242.328 11.872 242.928 10 244.152 8.44C245.352 6.856 247.224 6.064 249.696 6.064C252.168 6.064 254.016 6.856 255.24 8.44C256.08 9.52 256.632 10.72 256.896 12.064L256.92 12.088ZM274.724 5.8H277.7H279.02C279.02 9.496 279.02 21.952 279.02 21.952H274.772L275.876 16.072L275.036 18.352C274.58 19.672 273.62 20.776 272.372 21.328C272.3 21.352 272.204 21.376 272.132 21.424C271.196 21.76 270.212 21.952 269.156 21.952C267.98 21.952 266.924 21.784 265.964 21.448C265.028 21.112 264.236 20.608 263.636 19.936C263.108 19.336 262.796 18.76 262.676 18.136C262.556 17.512 262.508 16.528 262.508 15.136V5.8H266.972V15.472C266.972 16.312 267.884 18.568 270.644 18.568C271.94 18.592 272.948 18.208 273.62 17.488C274.292 16.792 274.628 15.76 274.628 14.416V5.8H274.724ZM285.787 10.288C285.787 12.832 295.603 11.968 296.683 16.816C298.051 22.96 281.707 24.4 280.723 17.272H284.755C286.075 19.384 292.051 19.672 292.051 17.464C292.051 14.272 282.067 16.312 281.203 11.032C280.147 4.552 295.411 3.76 296.203 10.96H292.147C291.859 8.656 285.787 8.008 285.787 10.288ZM304.483 17.536C304.843 18.304 305.539 18.688 306.571 18.688C307.483 18.688 308.203 18.424 308.731 17.92V20.752C308.227 21.136 307.747 21.424 307.291 21.592C306.715 21.784 306.043 21.88 305.275 21.88C303.091 21.88 301.603 21.088 300.835 19.504C300.403 18.616 300.187 17.32 300.187 15.616V7.696H298.171V6.304H300.187V3.184H304.195V6.304H306.595V7.696H304.195V15.616C304.195 16.48 304.291 17.104 304.483 17.536ZM325.685 17.704C326.381 16.312 328.061 14.848 330.725 13.264C333.029 11.92 334.517 10.936 335.189 10.36C336.245 9.448 336.749 8.44 336.749 7.36C336.749 6.472 336.461 5.728 335.861 5.128C335.261 4.552 334.421 4.264 333.293 4.264C331.781 4.264 330.749 4.72 330.197 5.656C329.885 6.208 329.693 7.048 329.645 8.224H324.773C324.869 6.448 325.253 5.008 325.949 3.904C327.293 1.816 329.669 0.759999 333.077 0.759999C335.765 0.759999 337.901 1.384 339.485 2.608C341.093 3.832 341.885 5.464 341.885 7.504C341.885 9.04 341.309 10.432 340.181 11.632C339.461 12.424 338.237 13.312 336.557 14.296L334.541 15.472C333.293 16.216 332.429 16.744 331.973 17.056C331.517 17.392 331.133 17.776 330.821 18.208H341.909V21.832H324.509C324.557 20.32 324.941 18.952 325.685 17.704ZM358.229 16.384C359.237 15.208 359.765 13.528 359.765 11.344C359.765 9.184 359.237 7.504 358.229 6.304C357.197 5.128 355.829 4.552 354.101 4.552C352.397 4.552 351.029 5.128 350.021 6.304C349.013 7.504 348.509 9.184 348.509 11.344C348.509 13.528 349.013 15.208 350.021 16.384C351.029 17.584 352.397 18.16 354.101 18.16C355.829 18.16 357.197 17.584 358.229 16.384ZM360.941 3.064C363.053 4.984 364.109 7.744 364.109 11.344C364.109 15.04 363.053 17.8 360.941 19.648C359.357 21.208 357.077 22 354.101 22C351.125 22 348.845 21.208 347.285 19.648C345.173 17.8 344.141 15.04 344.141 11.344C344.141 7.744 345.173 4.984 347.285 3.064C348.845 1.504 351.125 0.711999 354.101 0.711999C357.077 0.711999 359.357 1.504 360.941 3.064ZM367.849 17.704C368.545 16.312 370.225 14.848 372.889 13.264C375.193 11.92 376.681 10.936 377.353 10.36C378.409 9.448 378.913 8.44 378.913 7.36C378.913 6.472 378.625 5.728 378.025 5.128C377.425 4.552 376.585 4.264 375.457 4.264C373.945 4.264 372.913 4.72 372.361 5.656C372.049 6.208 371.857 7.048 371.809 8.224H366.937C367.033 6.448 367.417 5.008 368.113 3.904C369.457 1.816 371.833 0.759999 375.241 0.759999C377.929 0.759999 380.065 1.384 381.649 2.608C383.257 3.832 384.049 5.464 384.049 7.504C384.049 9.04 383.473 10.432 382.345 11.632C381.625 12.424 380.401 13.312 378.721 14.296L376.705 15.472C375.457 16.216 374.593 16.744 374.137 17.056C373.681 17.392 373.297 17.776 372.985 18.208H384.073V21.832H366.673C366.721 20.32 367.105 18.952 367.849 17.704ZM392.929 15.16C392.929 16 393.097 16.672 393.409 17.224C394.033 18.208 395.113 18.712 396.721 18.712C397.705 18.712 398.569 18.424 399.289 17.896C400.033 17.344 400.393 16.552 400.393 15.544C400.393 14.176 399.721 13.264 398.353 12.808C397.585 12.568 396.361 12.424 394.705 12.424V9.544C396.337 9.52 397.465 9.376 398.113 9.16C399.217 8.752 399.769 7.936 399.769 6.736C399.769 5.944 399.481 5.296 398.929 4.816C398.353 4.312 397.561 4.072 396.529 4.072C395.353 4.072 394.489 4.384 393.937 4.984C393.385 5.584 393.121 6.4 393.145 7.408H388.465C388.513 6.4 388.729 5.416 389.113 4.504C389.521 3.688 390.169 2.944 391.033 2.272C391.705 1.792 392.473 1.408 393.385 1.144C394.273 0.903998 395.377 0.759999 396.697 0.759999C399.121 0.759999 401.089 1.288 402.577 2.296C404.065 3.328 404.809 4.696 404.809 6.4C404.809 7.624 404.377 8.632 403.465 9.472C402.913 10 402.337 10.36 401.713 10.552C402.169 10.552 402.841 10.864 403.681 11.488C404.953 12.448 405.601 13.768 405.601 15.424C405.601 17.176 404.857 18.712 403.369 20.032C401.881 21.352 399.673 22 396.745 22C393.145 22 390.649 21.064 389.233 19.144C388.489 18.136 388.081 16.816 388.009 15.16H392.929Z" fill="white"/>
<g filter="url(#filter0_bd_1963_79)">
<rect x="20" y="49" width="560" height="68" rx="30" fill="url(#paint0_linear_1963_79)" shape-rendering="crispEdges"/>
<path d="M54.344 70.672V76.84H60.824C61.808 76.84 62.6 76.6 63.152 76.096C63.704 75.592 63.992 74.8 63.992 73.696C63.992 72.616 63.704 71.824 63.152 71.368C62.6 70.912 61.808 70.672 60.824 70.672H54.344ZM54.344 80.464V88H50V67.024H61.52C63.584 67.024 65.24 67.552 66.488 68.656C67.712 69.736 68.336 71.392 68.336 73.672C68.336 76.144 67.712 77.896 66.488 78.928C65.264 79.96 63.512 80.464 61.232 80.464H54.344ZM77.7468 72.352C78.7068 71.992 79.6908 71.8 80.7228 71.8C81.1548 71.8 81.5628 71.824 81.9708 71.872V76.264C81.3948 75.664 80.5068 75.184 79.2348 75.184C77.9388 75.184 76.9548 75.544 76.2828 76.264C75.6108 76.984 75.2508 77.992 75.2508 79.336V87.952H75.1788H72.1788H70.8828C70.8828 84.256 70.8828 71.8 70.8828 71.8H75.1068L74.0268 77.68L74.8428 75.4C75.3228 74.08 76.2588 72.976 77.5308 72.448C77.6028 72.4 77.6748 72.376 77.7468 72.352ZM87.4216 78.448H96.9496C96.7816 77.584 96.3976 76.888 95.7976 76.312C94.9576 75.496 93.7336 75.088 92.1736 75.088C90.6376 75.088 89.4136 75.496 88.5736 76.312C87.9736 76.888 87.5896 77.584 87.4216 78.448ZM97.0456 80.008L92.5336 79.984H87.3256C87.3736 81.208 87.8056 82.192 88.5736 82.936C89.4136 83.776 90.6136 84.184 92.1736 84.184C93.7336 84.184 94.9576 83.776 95.7976 82.936C95.8696 82.864 95.9416 82.792 96.0136 82.72H100.55C100.238 83.8 99.7096 84.688 98.9896 85.408C97.4296 87.136 95.1496 88 92.1736 88C89.1496 88 86.8936 87.136 85.3576 85.408C84.0856 84.112 83.4376 82.24 83.4376 79.792C83.4376 77.344 84.0856 75.472 85.3576 74.176C86.8936 72.448 89.1496 71.584 92.1736 71.584C95.1496 71.584 97.4296 72.448 98.9896 74.176C100.286 75.472 100.934 77.344 100.934 79.792C100.934 79.84 100.934 79.888 100.934 79.936V80.008H97.0456ZM107.076 76.288C107.076 78.832 116.892 77.968 117.972 82.816C119.34 88.96 102.996 90.4 102.012 83.272H106.044C107.364 85.384 113.34 85.672 113.34 83.464C113.34 80.272 103.356 82.312 102.492 77.032C101.436 70.552 116.7 69.76 117.492 76.96H113.436C113.148 74.656 107.076 74.008 107.076 76.288ZM125.412 83.008C124.86 85.192 129.78 86.368 131.964 82.696C131.964 81.784 131.964 80.848 131.964 79.984C129.804 80.392 126.012 80.536 125.412 83.008ZM122.148 72.952C122.148 72.952 132.852 69.712 135.972 75.016C136.452 75.832 136.548 76.816 136.548 77.752V88.168H131.964L132.708 83.608C132.66 83.728 132.612 83.848 132.54 83.944C129.804 89.416 118.788 90.136 120.156 83.584C121.068 79.192 127.692 78.064 131.916 77.8C131.292 72.856 122.124 76.36 122.124 76.36L122.148 72.952ZM138.781 88.024V67.144H142.669V88.024H138.781ZM149.859 78.448H159.387C159.219 77.584 158.835 76.888 158.235 76.312C157.395 75.496 156.171 75.088 154.611 75.088C153.075 75.088 151.851 75.496 151.011 76.312C150.411 76.888 150.027 77.584 149.859 78.448ZM159.483 80.008L154.971 79.984H149.763C149.811 81.208 150.243 82.192 151.011 82.936C151.851 83.776 153.051 84.184 154.611 84.184C156.171 84.184 157.395 83.776 158.235 82.936C158.307 82.864 158.379 82.792 158.451 82.72H162.987C162.675 83.8 162.147 84.688 161.427 85.408C159.867 87.136 157.587 88 154.611 88C151.587 88 149.331 87.136 147.795 85.408C146.523 84.112 145.875 82.24 145.875 79.792C145.875 77.344 146.523 75.472 147.795 74.176C149.331 72.448 151.587 71.584 154.611 71.584C157.587 71.584 159.867 72.448 161.427 74.176C162.723 75.472 163.371 77.344 163.371 79.792C163.371 79.84 163.371 79.888 163.371 79.936V80.008H159.483ZM181.755 83.704C182.451 82.312 184.131 80.848 186.795 79.264C189.099 77.92 190.587 76.936 191.259 76.36C192.315 75.448 192.819 74.44 192.819 73.36C192.819 72.472 192.531 71.728 191.931 71.128C191.331 70.552 190.491 70.264 189.363 70.264C187.851 70.264 186.819 70.72 186.267 71.656C185.955 72.208 185.763 73.048 185.715 74.224H180.843C180.939 72.448 181.323 71.008 182.019 69.904C183.363 67.816 185.739 66.76 189.147 66.76C191.835 66.76 193.971 67.384 195.555 68.608C197.163 69.832 197.955 71.464 197.955 73.504C197.955 75.04 197.379 76.432 196.251 77.632C195.531 78.424 194.307 79.312 192.627 80.296L190.611 81.472C189.363 82.216 188.499 82.744 188.043 83.056C187.587 83.392 187.203 83.776 186.891 84.208H197.979V87.832H180.579C180.627 86.32 181.011 84.952 181.755 83.704Z" fill="white"/>
<rect x="21.5" y="50.5" width="557" height="65" rx="28.5" stroke="url(#paint1_linear_1963_79)" stroke-width="3" shape-rendering="crispEdges"/>
</g>
<defs>
<filter id="filter0_bd_1963_79" x="-20" y="9" width="640" height="148" filterUnits="userSpaceOnUse" color-interpolation-filters="sRGB">
<feFlood flood-opacity="0" result="BackgroundImageFix"/>
<feGaussianBlur in="BackgroundImageFix" stdDeviation="20"/>
<feComposite in2="SourceAlpha" operator="in" result="effect1_backgroundBlur_1963_79"/>
<feColorMatrix in="SourceAlpha" type="matrix" values="0 0 0 0 0 0 0 0 0 0 0 0 0 0 0 0 0 0 127 0" result="hardAlpha"/>
<feOffset dx="5" dy="5"/>
<feGaussianBlur stdDeviation="12.5"/>
<feComposite in2="hardAlpha" operator="out"/>
<feColorMatrix type="matrix" values="0 0 0 0 0.133333 0 0 0 0 0.333333 0 0 0 0 0.796078 0 0 0 1 0"/>
<feBlend mode="normal" in2="effect1_backgroundBlur_1963_79" result="effect2_dropShadow_1963_79"/>
<feBlend mode="normal" in="SourceGraphic" in2="effect2_dropShadow_1963_79" result="shape"/>
</filter>
<linearGradient id="paint0_linear_1963_79" x1="20" y1="49" x2="140.292" y2="317" gradientUnits="userSpaceOnUse">
<stop offset="0.372917" stop-color="#011E63"/>
<stop offset="1" stop-color="white" stop-opacity="0"/>
</linearGradient>
<linearGradient id="paint1_linear_1963_79" x1="20" y1="49" x2="133.544" y2="310.702" gradientUnits="userSpaceOnUse">
<stop stop-color="white"/>
<stop offset="1" stop-opacity="0"/>
</linearGradient>
</defs>
</svg>
