<svg width="615" height="146" viewBox="0 0 615 146" fill="none" xmlns="http://www.w3.org/2000/svg">
<path d="M29.8 0.879999H33.472V22.144H28.96V7.48H26.008V4.456C26.248 4.432 26.44 4.408 26.584 4.36C27.472 4.168 28.192 3.808 28.744 3.256C29.128 2.872 29.416 2.368 29.608 1.72C29.728 1.336 29.8 1.048 29.8 0.879999ZM40.3105 10.288C40.3105 12.832 50.1265 11.968 51.2065 16.816C52.5745 22.96 36.2305 24.4 35.2465 17.272H39.2785C40.5985 19.384 46.5745 19.672 46.5745 17.464C46.5745 14.272 36.5905 16.312 35.7265 11.032C34.6705 4.552 49.9345 3.76 50.7265 10.96H46.6705C46.3825 8.656 40.3105 8.008 40.3105 10.288ZM59.0067 17.536C59.3667 18.304 60.0627 18.688 61.0947 18.688C62.0067 18.688 62.7267 18.424 63.2547 17.92V20.752C62.7507 21.136 62.2707 21.424 61.8147 21.592C61.2387 21.784 60.5667 21.88 59.7987 21.88C57.6147 21.88 56.1267 21.088 55.3587 19.504C54.9267 18.616 54.7107 17.32 54.7107 15.616V7.696H52.6947V6.304H54.7107V3.184H58.7187V6.304H61.1187V7.696H58.7187V15.616C58.7187 16.48 58.8147 17.104 59.0067 17.536ZM77.6641 13.456H85.2961V16.84H77.6641V13.456ZM120.533 4.312C119.717 4.912 118.613 5.968 117.173 7.504C115.733 9.04 114.533 10.624 113.549 12.256C112.781 13.528 112.109 15.088 111.485 16.936C110.861 18.784 110.549 20.32 110.549 21.496H104.981C105.125 17.8 106.757 13.96 109.805 9.952C111.773 7.48 113.429 5.752 114.773 4.792H101.141L101.213 1.144H120.533V4.312ZM129.061 17.536C129.421 18.304 130.117 18.688 131.149 18.688C132.061 18.688 132.781 18.424 133.309 17.92V20.752C132.805 21.136 132.325 21.424 131.869 21.592C131.293 21.784 130.621 21.88 129.853 21.88C127.669 21.88 126.181 21.088 125.413 19.504C124.981 18.616 124.765 17.32 124.765 15.616V7.696H122.749V6.304H124.765V3.184H128.773V6.304H131.173V7.696H128.773V15.616C128.773 16.48 128.869 17.104 129.061 17.536ZM149.541 8.032C150.069 8.632 150.405 9.208 150.525 9.832C150.645 10.432 150.693 11.44 150.693 12.832V21.952H146.109V12.496C146.109 11.656 145.173 9.4 142.317 9.4C140.997 9.376 139.965 9.76 139.269 10.48C138.573 11.176 138.237 12.208 138.237 13.528V21.952H138.069H135.069H133.773C133.773 18.496 133.773 2.824 133.773 0.855999H138.189V6.16L136.869 12.136L137.805 9.616C138.285 8.296 139.269 7.192 140.565 6.64C140.637 6.616 140.709 6.592 140.805 6.544C141.765 6.208 142.773 6.016 143.853 6.016C145.053 6.016 146.157 6.184 147.117 6.52C148.101 6.856 148.917 7.36 149.541 8.032ZM174.372 14.08H183.924L179.172 1.624L174.372 14.08ZM186.468 22L185.1 17.704H173.172L171.756 22H167.172L174.66 1.024H183.804L191.244 22H186.468ZM205.989 5.8H208.965H210.285C210.285 9.496 210.285 21.952 210.285 21.952H206.037L207.141 16.072L206.301 18.352C205.845 19.672 204.885 20.776 203.637 21.328C203.565 21.352 203.469 21.376 203.397 21.424C202.461 21.76 201.477 21.952 200.421 21.952C199.245 21.952 198.189 21.784 197.229 21.448C196.293 21.112 195.501 20.608 194.901 19.936C194.373 19.336 194.061 18.76 193.941 18.136C193.821 17.512 193.773 16.528 193.773 15.136V5.8H198.237V15.472C198.237 16.312 199.149 18.568 201.909 18.568C203.205 18.592 204.213 18.208 204.885 17.488C205.557 16.792 205.893 15.76 205.893 14.416V5.8H205.989ZM225.141 17.68C225.693 17.08 226.053 16.264 226.221 15.304V15.136V12.76C226.053 11.8 225.693 11.008 225.141 10.408C224.349 9.544 223.221 9.112 221.733 9.112C220.269 9.112 219.141 9.544 218.349 10.408C217.581 11.248 217.173 12.448 217.173 14.032C217.173 15.616 217.581 16.816 218.349 17.68C219.141 18.544 220.269 18.952 221.733 18.952C223.221 18.952 224.349 18.544 225.141 17.68ZM227.397 12.088L226.221 5.8H230.469C230.469 5.8 230.469 18.328 230.469 21.856C230.469 25.384 227.805 28.744 223.557 28.936C216.093 29.296 214.101 26.44 214.101 26.44L213.837 23.416C213.837 23.416 217.869 26.488 223.077 25.264C226.533 24.448 226.221 20.656 226.221 20.656V18.952C226.077 19.192 225.909 19.432 225.717 19.648C224.493 21.208 222.645 22 220.173 22C217.701 22 215.829 21.208 214.629 19.648C213.405 18.112 212.805 16.216 212.805 14.032C212.805 11.872 213.405 10 214.629 8.44C215.829 6.856 217.701 6.064 220.173 6.064C222.645 6.064 224.493 6.856 225.717 8.44C226.557 9.52 227.109 10.72 227.373 12.064L227.397 12.088ZM245.2 5.8H248.176H249.496C249.496 9.496 249.496 21.952 249.496 21.952H245.248L246.352 16.072L245.512 18.352C245.056 19.672 244.096 20.776 242.848 21.328C242.776 21.352 242.68 21.376 242.608 21.424C241.672 21.76 240.688 21.952 239.632 21.952C238.456 21.952 237.4 21.784 236.44 21.448C235.504 21.112 234.712 20.608 234.112 19.936C233.584 19.336 233.272 18.76 233.152 18.136C233.032 17.512 232.984 16.528 232.984 15.136V5.8H237.448V15.472C237.448 16.312 238.36 18.568 241.12 18.568C242.416 18.592 243.424 18.208 244.096 17.488C244.768 16.792 245.104 15.76 245.104 14.416V5.8H245.2ZM256.264 10.288C256.264 12.832 266.08 11.968 267.16 16.816C268.528 22.96 252.184 24.4 251.2 17.272H255.232C256.552 19.384 262.528 19.672 262.528 17.464C262.528 14.272 252.544 16.312 251.68 11.032C250.624 4.552 265.888 3.76 266.68 10.96H262.624C262.336 8.656 256.264 8.008 256.264 10.288ZM274.96 17.536C275.32 18.304 276.016 18.688 277.048 18.688C277.96 18.688 278.68 18.424 279.208 17.92V20.752C278.704 21.136 278.224 21.424 277.768 21.592C277.192 21.784 276.52 21.88 275.752 21.88C273.568 21.88 272.08 21.088 271.312 19.504C270.88 18.616 270.664 17.32 270.664 15.616V7.696H268.648V6.304H270.664V3.184H274.672V6.304H277.072V7.696H274.672V15.616C274.672 16.48 274.768 17.104 274.96 17.536ZM296.161 17.704C296.857 16.312 298.537 14.848 301.201 13.264C303.505 11.92 304.993 10.936 305.665 10.36C306.721 9.448 307.225 8.44 307.225 7.36C307.225 6.472 306.937 5.728 306.337 5.128C305.737 4.552 304.897 4.264 303.769 4.264C302.257 4.264 301.225 4.72 300.673 5.656C300.361 6.208 300.169 7.048 300.121 8.224H295.249C295.345 6.448 295.729 5.008 296.425 3.904C297.769 1.816 300.145 0.759999 303.553 0.759999C306.241 0.759999 308.377 1.384 309.961 2.608C311.569 3.832 312.361 5.464 312.361 7.504C312.361 9.04 311.785 10.432 310.657 11.632C309.937 12.424 308.713 13.312 307.033 14.296L305.017 15.472C303.769 16.216 302.905 16.744 302.449 17.056C301.993 17.392 301.609 17.776 301.297 18.208H312.385V21.832H294.985C295.033 20.32 295.417 18.952 296.161 17.704ZM328.705 16.384C329.713 15.208 330.241 13.528 330.241 11.344C330.241 9.184 329.713 7.504 328.705 6.304C327.673 5.128 326.305 4.552 324.577 4.552C322.873 4.552 321.505 5.128 320.497 6.304C319.489 7.504 318.985 9.184 318.985 11.344C318.985 13.528 319.489 15.208 320.497 16.384C321.505 17.584 322.873 18.16 324.577 18.16C326.305 18.16 327.673 17.584 328.705 16.384ZM331.417 3.064C333.529 4.984 334.585 7.744 334.585 11.344C334.585 15.04 333.529 17.8 331.417 19.648C329.833 21.208 327.553 22 324.577 22C321.601 22 319.321 21.208 317.761 19.648C315.649 17.8 314.617 15.04 314.617 11.344C314.617 7.744 315.649 4.984 317.761 3.064C319.321 1.504 321.601 0.711999 324.577 0.711999C327.553 0.711999 329.833 1.504 331.417 3.064ZM338.325 17.704C339.021 16.312 340.701 14.848 343.365 13.264C345.669 11.92 347.157 10.936 347.829 10.36C348.885 9.448 349.389 8.44 349.389 7.36C349.389 6.472 349.101 5.728 348.501 5.128C347.901 4.552 347.061 4.264 345.933 4.264C344.421 4.264 343.389 4.72 342.837 5.656C342.525 6.208 342.333 7.048 342.285 8.224H337.413C337.509 6.448 337.893 5.008 338.589 3.904C339.933 1.816 342.309 0.759999 345.717 0.759999C348.405 0.759999 350.541 1.384 352.125 2.608C353.733 3.832 354.525 5.464 354.525 7.504C354.525 9.04 353.949 10.432 352.821 11.632C352.101 12.424 350.877 13.312 349.197 14.296L347.181 15.472C345.933 16.216 345.069 16.744 344.613 17.056C344.157 17.392 343.773 17.776 343.461 18.208H354.549V21.832H337.149C337.197 20.32 337.581 18.952 338.325 17.704ZM363.405 15.16C363.405 16 363.573 16.672 363.885 17.224C364.509 18.208 365.589 18.712 367.197 18.712C368.181 18.712 369.045 18.424 369.765 17.896C370.509 17.344 370.869 16.552 370.869 15.544C370.869 14.176 370.197 13.264 368.829 12.808C368.061 12.568 366.837 12.424 365.181 12.424V9.544C366.813 9.52 367.941 9.376 368.589 9.16C369.693 8.752 370.245 7.936 370.245 6.736C370.245 5.944 369.957 5.296 369.405 4.816C368.829 4.312 368.037 4.072 367.005 4.072C365.829 4.072 364.965 4.384 364.413 4.984C363.861 5.584 363.597 6.4 363.621 7.408H358.941C358.989 6.4 359.205 5.416 359.589 4.504C359.997 3.688 360.645 2.944 361.509 2.272C362.181 1.792 362.949 1.408 363.861 1.144C364.749 0.903998 365.853 0.759999 367.173 0.759999C369.597 0.759999 371.565 1.288 373.053 2.296C374.541 3.328 375.285 4.696 375.285 6.4C375.285 7.624 374.853 8.632 373.941 9.472C373.389 10 372.813 10.36 372.189 10.552C372.645 10.552 373.317 10.864 374.157 11.488C375.429 12.448 376.077 13.768 376.077 15.424C376.077 17.176 375.333 18.712 373.845 20.032C372.357 21.352 370.149 22 367.221 22C363.621 22 361.125 21.064 359.709 19.144C358.965 18.136 358.557 16.816 358.485 15.16H363.405Z" fill="white"/>
<g filter="url(#filter0_d_1962_76)">
<g filter="url(#filter1_bd_1962_76)">
<rect x="25" y="48" width="560" height="68" rx="30" fill="url(#paint0_linear_1962_76)" shape-rendering="crispEdges"/>
<path d="M59.344 69.672V75.84H65.824C66.808 75.84 67.6 75.6 68.152 75.096C68.704 74.592 68.992 73.8 68.992 72.696C68.992 71.616 68.704 70.824 68.152 70.368C67.6 69.912 66.808 69.672 65.824 69.672H59.344ZM59.344 79.464V87H55V66.024H66.52C68.584 66.024 70.24 66.552 71.488 67.656C72.712 68.736 73.336 70.392 73.336 72.672C73.336 75.144 72.712 76.896 71.488 77.928C70.264 78.96 68.512 79.464 66.232 79.464H59.344ZM82.7468 71.352C83.7068 70.992 84.6908 70.8 85.7228 70.8C86.1548 70.8 86.5628 70.824 86.9708 70.872V75.264C86.3948 74.664 85.5068 74.184 84.2348 74.184C82.9388 74.184 81.9548 74.544 81.2828 75.264C80.6108 75.984 80.2508 76.992 80.2508 78.336V86.952H80.1788H77.1788H75.8828C75.8828 83.256 75.8828 70.8 75.8828 70.8H80.1068L79.0268 76.68L79.8428 74.4C80.3228 73.08 81.2588 71.976 82.5308 71.448C82.6028 71.4 82.6748 71.376 82.7468 71.352ZM92.4216 77.448H101.95C101.782 76.584 101.398 75.888 100.798 75.312C99.9576 74.496 98.7336 74.088 97.1736 74.088C95.6376 74.088 94.4136 74.496 93.5736 75.312C92.9736 75.888 92.5896 76.584 92.4216 77.448ZM102.046 79.008L97.5336 78.984H92.3256C92.3736 80.208 92.8056 81.192 93.5736 81.936C94.4136 82.776 95.6136 83.184 97.1736 83.184C98.7336 83.184 99.9576 82.776 100.798 81.936C100.87 81.864 100.942 81.792 101.014 81.72H105.55C105.238 82.8 104.71 83.688 103.99 84.408C102.43 86.136 100.15 87 97.1736 87C94.1496 87 91.8936 86.136 90.3576 84.408C89.0856 83.112 88.4376 81.24 88.4376 78.792C88.4376 76.344 89.0856 74.472 90.3576 73.176C91.8936 71.448 94.1496 70.584 97.1736 70.584C100.15 70.584 102.43 71.448 103.99 73.176C105.286 74.472 105.934 76.344 105.934 78.792C105.934 78.84 105.934 78.888 105.934 78.936V79.008H102.046ZM112.076 75.288C112.076 77.832 121.892 76.968 122.972 81.816C124.34 87.96 107.996 89.4 107.012 82.272H111.044C112.364 84.384 118.34 84.672 118.34 82.464C118.34 79.272 108.356 81.312 107.492 76.032C106.436 69.552 121.7 68.76 122.492 75.96H118.436C118.148 73.656 112.076 73.008 112.076 75.288ZM130.412 82.008C129.86 84.192 134.78 85.368 136.964 81.696C136.964 80.784 136.964 79.848 136.964 78.984C134.804 79.392 131.012 79.536 130.412 82.008ZM127.148 71.952C127.148 71.952 137.852 68.712 140.972 74.016C141.452 74.832 141.548 75.816 141.548 76.752V87.168H136.964L137.708 82.608C137.66 82.728 137.612 82.848 137.54 82.944C134.804 88.416 123.788 89.136 125.156 82.584C126.068 78.192 132.692 77.064 136.916 76.8C136.292 71.856 127.124 75.36 127.124 75.36L127.148 71.952ZM143.781 87.024V66.144H147.669V87.024H143.781ZM154.859 77.448H164.387C164.219 76.584 163.835 75.888 163.235 75.312C162.395 74.496 161.171 74.088 159.611 74.088C158.075 74.088 156.851 74.496 156.011 75.312C155.411 75.888 155.027 76.584 154.859 77.448ZM164.483 79.008L159.971 78.984H154.763C154.811 80.208 155.243 81.192 156.011 81.936C156.851 82.776 158.051 83.184 159.611 83.184C161.171 83.184 162.395 82.776 163.235 81.936C163.307 81.864 163.379 81.792 163.451 81.72H167.987C167.675 82.8 167.147 83.688 166.427 84.408C164.867 86.136 162.587 87 159.611 87C156.587 87 154.331 86.136 152.795 84.408C151.523 83.112 150.875 81.24 150.875 78.792C150.875 76.344 151.523 74.472 152.795 73.176C154.331 71.448 156.587 70.584 159.611 70.584C162.587 70.584 164.867 71.448 166.427 73.176C167.723 74.472 168.371 76.344 168.371 78.792C168.371 78.84 168.371 78.888 168.371 78.936V79.008H164.483ZM189.011 65.88H192.683V87.144H188.171V72.48H185.219V69.456C185.459 69.432 185.651 69.408 185.795 69.36C186.683 69.168 187.403 68.808 187.955 68.256C188.339 67.872 188.627 67.368 188.819 66.72C188.939 66.336 189.011 66.048 189.011 65.88Z" fill="white"/>
<rect x="26.5" y="49.5" width="557" height="65" rx="28.5" stroke="url(#paint1_linear_1962_76)" stroke-width="3" shape-rendering="crispEdges"/>
</g>
</g>
<defs>
<filter id="filter0_d_1962_76" x="5" y="28" width="610" height="118" filterUnits="userSpaceOnUse" color-interpolation-filters="sRGB">
<feFlood flood-opacity="0" result="BackgroundImageFix"/>
<feColorMatrix in="SourceAlpha" type="matrix" values="0 0 0 0 0 0 0 0 0 0 0 0 0 0 0 0 0 0 127 0" result="hardAlpha"/>
<feOffset dx="5" dy="5"/>
<feGaussianBlur stdDeviation="12.5"/>
<feComposite in2="hardAlpha" operator="out"/>
<feColorMatrix type="matrix" values="0 0 0 0 0.921569 0 0 0 0 0 0 0 0 0 0.156863 0 0 0 1 0"/>
<feBlend mode="normal" in2="BackgroundImageFix" result="effect1_dropShadow_1962_76"/>
<feBlend mode="normal" in="SourceGraphic" in2="effect1_dropShadow_1962_76" result="shape"/>
</filter>
<filter id="filter1_bd_1962_76" x="-15" y="8" width="640" height="148" filterUnits="userSpaceOnUse" color-interpolation-filters="sRGB">
<feFlood flood-opacity="0" result="BackgroundImageFix"/>
<feGaussianBlur in="BackgroundImageFix" stdDeviation="20"/>
<feComposite in2="SourceAlpha" operator="in" result="effect1_backgroundBlur_1962_76"/>
<feColorMatrix in="SourceAlpha" type="matrix" values="0 0 0 0 0 0 0 0 0 0 0 0 0 0 0 0 0 0 127 0" result="hardAlpha"/>
<feOffset dy="4"/>
<feGaussianBlur stdDeviation="12.5"/>
<feComposite in2="hardAlpha" operator="out"/>
<feColorMatrix type="matrix" values="0 0 0 0 0 0 0 0 0 0 0 0 0 0 0 0 0 0 0.25 0"/>
<feBlend mode="normal" in2="effect1_backgroundBlur_1962_76" result="effect2_dropShadow_1962_76"/>
<feBlend mode="normal" in="SourceGraphic" in2="effect2_dropShadow_1962_76" result="shape"/>
</filter>
<linearGradient id="paint0_linear_1962_76" x1="25" y1="48" x2="145.292" y2="316" gradientUnits="userSpaceOnUse">
<stop offset="0.39375" stop-color="#EB0028"/>
<stop offset="1" stop-color="white" stop-opacity="0"/>
</linearGradient>
<linearGradient id="paint1_linear_1962_76" x1="25" y1="48" x2="138.544" y2="309.702" gradientUnits="userSpaceOnUse">
<stop stop-color="white"/>
<stop offset="1" stop-opacity="0"/>
</linearGradient>
</defs>
</svg>
