<svg width="610" height="145" viewBox="0 0 610 145" fill="none" xmlns="http://www.w3.org/2000/svg">
<path d="M29.8 0.879999H33.472V22.144H28.96V7.48H26.008V4.456C26.248 4.432 26.44 4.408 26.584 4.36C27.472 4.168 28.192 3.808 28.744 3.256C29.128 2.872 29.416 2.368 29.608 1.72C29.728 1.336 29.8 1.048 29.8 0.879999ZM40.8625 0.879999H44.5345V22.144H40.0225V7.48H37.0705V4.456C37.3105 4.432 37.5025 4.408 37.6465 4.36C38.5345 4.168 39.2545 3.808 39.8065 3.256C40.1905 2.872 40.4785 2.368 40.6705 1.72C40.7905 1.336 40.8625 1.048 40.8625 0.879999ZM53.077 17.536C53.437 18.304 54.133 18.688 55.165 18.688C56.077 18.688 56.797 18.424 57.325 17.92V20.752C56.821 21.136 56.341 21.424 55.885 21.592C55.309 21.784 54.637 21.88 53.869 21.88C51.685 21.88 50.197 21.088 49.429 19.504C48.997 18.616 48.781 17.32 48.781 15.616V7.696H46.765V6.304H48.781V3.184H52.789V6.304H55.189V7.696H52.789V15.616C52.789 16.48 52.885 17.104 53.077 17.536ZM73.5571 8.032C74.0851 8.632 74.4211 9.208 74.5411 9.832C74.6611 10.432 74.7091 11.44 74.7091 12.832V21.952H70.1251V12.496C70.1251 11.656 69.1891 9.4 66.3331 9.4C65.0131 9.376 63.9811 9.76 63.2851 10.48C62.5891 11.176 62.2531 12.208 62.2531 13.528V21.952H62.0851H59.0851H57.7891C57.7891 18.496 57.7891 2.824 57.7891 0.855999H62.2051V6.16L60.8851 12.136L61.8211 9.616C62.3011 8.296 63.2851 7.192 64.5811 6.64C64.6531 6.616 64.7251 6.592 64.8211 6.544C65.7811 6.208 66.7891 6.016 67.8691 6.016C69.0691 6.016 70.1731 6.184 71.1331 6.52C72.1171 6.856 72.9331 7.36 73.5571 8.032ZM91.1875 13.456H98.8195V16.84H91.1875V13.456ZM116.536 17.704C117.232 16.312 118.912 14.848 121.576 13.264C123.88 11.92 125.368 10.936 126.04 10.36C127.096 9.448 127.6 8.44 127.6 7.36C127.6 6.472 127.312 5.728 126.712 5.128C126.112 4.552 125.272 4.264 124.144 4.264C122.632 4.264 121.6 4.72 121.048 5.656C120.736 6.208 120.544 7.048 120.496 8.224H115.624C115.72 6.448 116.104 5.008 116.8 3.904C118.144 1.816 120.52 0.759999 123.928 0.759999C126.616 0.759999 128.752 1.384 130.336 2.608C131.944 3.832 132.736 5.464 132.736 7.504C132.736 9.04 132.16 10.432 131.032 11.632C130.312 12.424 129.088 13.312 127.408 14.296L125.392 15.472C124.144 16.216 123.28 16.744 122.824 17.056C122.368 17.392 121.984 17.776 121.672 18.208H132.76V21.832H115.36C115.408 20.32 115.792 18.952 116.536 17.704ZM155.056 4.312C154.24 4.912 153.136 5.968 151.696 7.504C150.256 9.04 149.056 10.624 148.072 12.256C147.304 13.528 146.632 15.088 146.008 16.936C145.384 18.784 145.072 20.32 145.072 21.496H139.504C139.648 17.8 141.28 13.96 144.328 9.952C146.296 7.48 147.952 5.752 149.296 4.792H135.664L135.736 1.144H155.056V4.312ZM163.585 17.536C163.945 18.304 164.641 18.688 165.673 18.688C166.585 18.688 167.305 18.424 167.833 17.92V20.752C167.329 21.136 166.849 21.424 166.393 21.592C165.817 21.784 165.145 21.88 164.377 21.88C162.193 21.88 160.705 21.088 159.937 19.504C159.505 18.616 159.289 17.32 159.289 15.616V7.696H157.273V6.304H159.289V3.184H163.297V6.304H165.697V7.696H163.297V15.616C163.297 16.48 163.393 17.104 163.585 17.536ZM184.065 8.032C184.593 8.632 184.929 9.208 185.049 9.832C185.169 10.432 185.217 11.44 185.217 12.832V21.952H180.633V12.496C180.633 11.656 179.697 9.4 176.841 9.4C175.521 9.376 174.489 9.76 173.793 10.48C173.097 11.176 172.761 12.208 172.761 13.528V21.952H172.593H169.593H168.297C168.297 18.496 168.297 2.824 168.297 0.855999H172.713V6.16L171.393 12.136L172.329 9.616C172.809 8.296 173.793 7.192 175.089 6.64C175.161 6.616 175.233 6.592 175.329 6.544C176.289 6.208 177.297 6.016 178.377 6.016C179.577 6.016 180.681 6.184 181.641 6.52C182.625 6.856 183.441 7.36 184.065 8.032ZM208.895 14.08H218.447L213.695 1.624L208.895 14.08ZM220.991 22L219.623 17.704H207.695L206.279 22H201.695L209.183 1.024H218.327L225.767 22H220.991ZM240.513 5.8H243.489H244.809C244.809 9.496 244.809 21.952 244.809 21.952H240.561L241.665 16.072L240.825 18.352C240.369 19.672 239.409 20.776 238.161 21.328C238.089 21.352 237.993 21.376 237.921 21.424C236.985 21.76 236.001 21.952 234.945 21.952C233.769 21.952 232.713 21.784 231.753 21.448C230.817 21.112 230.025 20.608 229.425 19.936C228.897 19.336 228.585 18.76 228.465 18.136C228.345 17.512 228.297 16.528 228.297 15.136V5.8H232.761V15.472C232.761 16.312 233.673 18.568 236.433 18.568C237.729 18.592 238.737 18.208 239.409 17.488C240.081 16.792 240.417 15.76 240.417 14.416V5.8H240.513ZM259.664 17.68C260.216 17.08 260.576 16.264 260.744 15.304V15.136V12.76C260.576 11.8 260.216 11.008 259.664 10.408C258.872 9.544 257.744 9.112 256.256 9.112C254.792 9.112 253.664 9.544 252.872 10.408C252.104 11.248 251.696 12.448 251.696 14.032C251.696 15.616 252.104 16.816 252.872 17.68C253.664 18.544 254.792 18.952 256.256 18.952C257.744 18.952 258.872 18.544 259.664 17.68ZM261.92 12.088L260.744 5.8H264.992C264.992 5.8 264.992 18.328 264.992 21.856C264.992 25.384 262.328 28.744 258.08 28.936C250.616 29.296 248.624 26.44 248.624 26.44L248.36 23.416C248.36 23.416 252.392 26.488 257.6 25.264C261.056 24.448 260.744 20.656 260.744 20.656V18.952C260.6 19.192 260.432 19.432 260.24 19.648C259.016 21.208 257.168 22 254.696 22C252.224 22 250.352 21.208 249.152 19.648C247.928 18.112 247.328 16.216 247.328 14.032C247.328 11.872 247.928 10 249.152 8.44C250.352 6.856 252.224 6.064 254.696 6.064C257.168 6.064 259.016 6.856 260.24 8.44C261.08 9.52 261.632 10.72 261.896 12.064L261.92 12.088ZM279.724 5.8H282.7H284.02C284.02 9.496 284.02 21.952 284.02 21.952H279.772L280.876 16.072L280.036 18.352C279.58 19.672 278.62 20.776 277.372 21.328C277.3 21.352 277.204 21.376 277.132 21.424C276.196 21.76 275.212 21.952 274.156 21.952C272.98 21.952 271.924 21.784 270.964 21.448C270.028 21.112 269.236 20.608 268.636 19.936C268.108 19.336 267.796 18.76 267.676 18.136C267.556 17.512 267.508 16.528 267.508 15.136V5.8H271.972V15.472C271.972 16.312 272.884 18.568 275.644 18.568C276.94 18.592 277.948 18.208 278.62 17.488C279.292 16.792 279.628 15.76 279.628 14.416V5.8H279.724ZM290.787 10.288C290.787 12.832 300.603 11.968 301.683 16.816C303.051 22.96 286.707 24.4 285.723 17.272H289.755C291.075 19.384 297.051 19.672 297.051 17.464C297.051 14.272 287.067 16.312 286.203 11.032C285.147 4.552 300.411 3.76 301.203 10.96H297.147C296.859 8.656 290.787 8.008 290.787 10.288ZM309.483 17.536C309.843 18.304 310.539 18.688 311.571 18.688C312.483 18.688 313.203 18.424 313.731 17.92V20.752C313.227 21.136 312.747 21.424 312.291 21.592C311.715 21.784 311.043 21.88 310.275 21.88C308.091 21.88 306.603 21.088 305.835 19.504C305.403 18.616 305.187 17.32 305.187 15.616V7.696H303.171V6.304H305.187V3.184H309.195V6.304H311.595V7.696H309.195V15.616C309.195 16.48 309.291 17.104 309.483 17.536ZM330.685 17.704C331.381 16.312 333.061 14.848 335.725 13.264C338.029 11.92 339.517 10.936 340.189 10.36C341.245 9.448 341.749 8.44 341.749 7.36C341.749 6.472 341.461 5.728 340.861 5.128C340.261 4.552 339.421 4.264 338.293 4.264C336.781 4.264 335.749 4.72 335.197 5.656C334.885 6.208 334.693 7.048 334.645 8.224H329.773C329.869 6.448 330.253 5.008 330.949 3.904C332.293 1.816 334.669 0.759999 338.077 0.759999C340.765 0.759999 342.901 1.384 344.485 2.608C346.093 3.832 346.885 5.464 346.885 7.504C346.885 9.04 346.309 10.432 345.181 11.632C344.461 12.424 343.237 13.312 341.557 14.296L339.541 15.472C338.293 16.216 337.429 16.744 336.973 17.056C336.517 17.392 336.133 17.776 335.821 18.208H346.909V21.832H329.509C329.557 20.32 329.941 18.952 330.685 17.704ZM363.229 16.384C364.237 15.208 364.765 13.528 364.765 11.344C364.765 9.184 364.237 7.504 363.229 6.304C362.197 5.128 360.829 4.552 359.101 4.552C357.397 4.552 356.029 5.128 355.021 6.304C354.013 7.504 353.509 9.184 353.509 11.344C353.509 13.528 354.013 15.208 355.021 16.384C356.029 17.584 357.397 18.16 359.101 18.16C360.829 18.16 362.197 17.584 363.229 16.384ZM365.941 3.064C368.053 4.984 369.109 7.744 369.109 11.344C369.109 15.04 368.053 17.8 365.941 19.648C364.357 21.208 362.077 22 359.101 22C356.125 22 353.845 21.208 352.285 19.648C350.173 17.8 349.141 15.04 349.141 11.344C349.141 7.744 350.173 4.984 352.285 3.064C353.845 1.504 356.125 0.711999 359.101 0.711999C362.077 0.711999 364.357 1.504 365.941 3.064ZM372.849 17.704C373.545 16.312 375.225 14.848 377.889 13.264C380.193 11.92 381.681 10.936 382.353 10.36C383.409 9.448 383.913 8.44 383.913 7.36C383.913 6.472 383.625 5.728 383.025 5.128C382.425 4.552 381.585 4.264 380.457 4.264C378.945 4.264 377.913 4.72 377.361 5.656C377.049 6.208 376.857 7.048 376.809 8.224H371.937C372.033 6.448 372.417 5.008 373.113 3.904C374.457 1.816 376.833 0.759999 380.241 0.759999C382.929 0.759999 385.065 1.384 386.649 2.608C388.257 3.832 389.049 5.464 389.049 7.504C389.049 9.04 388.473 10.432 387.345 11.632C386.625 12.424 385.401 13.312 383.721 14.296L381.705 15.472C380.457 16.216 379.593 16.744 379.137 17.056C378.681 17.392 378.297 17.776 377.985 18.208H389.073V21.832H371.673C371.721 20.32 372.105 18.952 372.849 17.704ZM397.929 15.16C397.929 16 398.097 16.672 398.409 17.224C399.033 18.208 400.113 18.712 401.721 18.712C402.705 18.712 403.569 18.424 404.289 17.896C405.033 17.344 405.393 16.552 405.393 15.544C405.393 14.176 404.721 13.264 403.353 12.808C402.585 12.568 401.361 12.424 399.705 12.424V9.544C401.337 9.52 402.465 9.376 403.113 9.16C404.217 8.752 404.769 7.936 404.769 6.736C404.769 5.944 404.481 5.296 403.929 4.816C403.353 4.312 402.561 4.072 401.529 4.072C400.353 4.072 399.489 4.384 398.937 4.984C398.385 5.584 398.121 6.4 398.145 7.408H393.465C393.513 6.4 393.729 5.416 394.113 4.504C394.521 3.688 395.169 2.944 396.033 2.272C396.705 1.792 397.473 1.408 398.385 1.144C399.273 0.903998 400.377 0.759999 401.697 0.759999C404.121 0.759999 406.089 1.288 407.577 2.296C409.065 3.328 409.809 4.696 409.809 6.4C409.809 7.624 409.377 8.632 408.465 9.472C407.913 10 407.337 10.36 406.713 10.552C407.169 10.552 407.841 10.864 408.681 11.488C409.953 12.448 410.601 13.768 410.601 15.424C410.601 17.176 409.857 18.712 408.369 20.032C406.881 21.352 404.673 22 401.745 22C398.145 22 395.649 21.064 394.233 19.144C393.489 18.136 393.081 16.816 393.009 15.16H397.929Z" fill="white"/>
<g filter="url(#filter0_bd_1963_77)">
<rect x="25" y="48" width="560" height="68" rx="30" fill="url(#paint0_linear_1963_77)" shape-rendering="crispEdges"/>
<path d="M59.344 69.672V75.84H65.824C66.808 75.84 67.6 75.6 68.152 75.096C68.704 74.592 68.992 73.8 68.992 72.696C68.992 71.616 68.704 70.824 68.152 70.368C67.6 69.912 66.808 69.672 65.824 69.672H59.344ZM59.344 79.464V87H55V66.024H66.52C68.584 66.024 70.24 66.552 71.488 67.656C72.712 68.736 73.336 70.392 73.336 72.672C73.336 75.144 72.712 76.896 71.488 77.928C70.264 78.96 68.512 79.464 66.232 79.464H59.344ZM82.7468 71.352C83.7068 70.992 84.6908 70.8 85.7228 70.8C86.1548 70.8 86.5628 70.824 86.9708 70.872V75.264C86.3948 74.664 85.5068 74.184 84.2348 74.184C82.9388 74.184 81.9548 74.544 81.2828 75.264C80.6108 75.984 80.2508 76.992 80.2508 78.336V86.952H80.1788H77.1788H75.8828C75.8828 83.256 75.8828 70.8 75.8828 70.8H80.1068L79.0268 76.68L79.8428 74.4C80.3228 73.08 81.2588 71.976 82.5308 71.448C82.6028 71.4 82.6748 71.376 82.7468 71.352ZM92.4216 77.448H101.95C101.782 76.584 101.398 75.888 100.798 75.312C99.9576 74.496 98.7336 74.088 97.1736 74.088C95.6376 74.088 94.4136 74.496 93.5736 75.312C92.9736 75.888 92.5896 76.584 92.4216 77.448ZM102.046 79.008L97.5336 78.984H92.3256C92.3736 80.208 92.8056 81.192 93.5736 81.936C94.4136 82.776 95.6136 83.184 97.1736 83.184C98.7336 83.184 99.9576 82.776 100.798 81.936C100.87 81.864 100.942 81.792 101.014 81.72H105.55C105.238 82.8 104.71 83.688 103.99 84.408C102.43 86.136 100.15 87 97.1736 87C94.1496 87 91.8936 86.136 90.3576 84.408C89.0856 83.112 88.4376 81.24 88.4376 78.792C88.4376 76.344 89.0856 74.472 90.3576 73.176C91.8936 71.448 94.1496 70.584 97.1736 70.584C100.15 70.584 102.43 71.448 103.99 73.176C105.286 74.472 105.934 76.344 105.934 78.792C105.934 78.84 105.934 78.888 105.934 78.936V79.008H102.046ZM112.076 75.288C112.076 77.832 121.892 76.968 122.972 81.816C124.34 87.96 107.996 89.4 107.012 82.272H111.044C112.364 84.384 118.34 84.672 118.34 82.464C118.34 79.272 108.356 81.312 107.492 76.032C106.436 69.552 121.7 68.76 122.492 75.96H118.436C118.148 73.656 112.076 73.008 112.076 75.288ZM130.412 82.008C129.86 84.192 134.78 85.368 136.964 81.696C136.964 80.784 136.964 79.848 136.964 78.984C134.804 79.392 131.012 79.536 130.412 82.008ZM127.148 71.952C127.148 71.952 137.852 68.712 140.972 74.016C141.452 74.832 141.548 75.816 141.548 76.752V87.168H136.964L137.708 82.608C137.66 82.728 137.612 82.848 137.54 82.944C134.804 88.416 123.788 89.136 125.156 82.584C126.068 78.192 132.692 77.064 136.916 76.8C136.292 71.856 127.124 75.36 127.124 75.36L127.148 71.952ZM143.781 87.024V66.144H147.669V87.024H143.781ZM154.859 77.448H164.387C164.219 76.584 163.835 75.888 163.235 75.312C162.395 74.496 161.171 74.088 159.611 74.088C158.075 74.088 156.851 74.496 156.011 75.312C155.411 75.888 155.027 76.584 154.859 77.448ZM164.483 79.008L159.971 78.984H154.763C154.811 80.208 155.243 81.192 156.011 81.936C156.851 82.776 158.051 83.184 159.611 83.184C161.171 83.184 162.395 82.776 163.235 81.936C163.307 81.864 163.379 81.792 163.451 81.72H167.987C167.675 82.8 167.147 83.688 166.427 84.408C164.867 86.136 162.587 87 159.611 87C156.587 87 154.331 86.136 152.795 84.408C151.523 83.112 150.875 81.24 150.875 78.792C150.875 76.344 151.523 74.472 152.795 73.176C154.331 71.448 156.587 70.584 159.611 70.584C162.587 70.584 164.867 71.448 166.427 73.176C167.723 74.472 168.371 76.344 168.371 78.792C168.371 78.84 168.371 78.888 168.371 78.936V79.008H164.483ZM186.755 82.704C187.451 81.312 189.131 79.848 191.795 78.264C194.099 76.92 195.587 75.936 196.259 75.36C197.315 74.448 197.819 73.44 197.819 72.36C197.819 71.472 197.531 70.728 196.931 70.128C196.331 69.552 195.491 69.264 194.363 69.264C192.851 69.264 191.819 69.72 191.267 70.656C190.955 71.208 190.763 72.048 190.715 73.224H185.843C185.939 71.448 186.323 70.008 187.019 68.904C188.363 66.816 190.739 65.76 194.147 65.76C196.835 65.76 198.971 66.384 200.555 67.608C202.163 68.832 202.955 70.464 202.955 72.504C202.955 74.04 202.379 75.432 201.251 76.632C200.531 77.424 199.307 78.312 197.627 79.296L195.611 80.472C194.363 81.216 193.499 81.744 193.043 82.056C192.587 82.392 192.203 82.776 191.891 83.208H202.979V86.832H185.579C185.627 85.32 186.011 83.952 186.755 82.704Z" fill="white"/>
<rect x="26.5" y="49.5" width="557" height="65" rx="28.5" stroke="url(#paint1_linear_1963_77)" stroke-width="3" shape-rendering="crispEdges"/>
</g>
<defs>
<filter id="filter0_bd_1963_77" x="-15" y="8" width="640" height="148" filterUnits="userSpaceOnUse" color-interpolation-filters="sRGB">
<feFlood flood-opacity="0" result="BackgroundImageFix"/>
<feGaussianBlur in="BackgroundImageFix" stdDeviation="20"/>
<feComposite in2="SourceAlpha" operator="in" result="effect1_backgroundBlur_1963_77"/>
<feColorMatrix in="SourceAlpha" type="matrix" values="0 0 0 0 0 0 0 0 0 0 0 0 0 0 0 0 0 0 127 0" result="hardAlpha"/>
<feOffset dy="4"/>
<feGaussianBlur stdDeviation="12.5"/>
<feComposite in2="hardAlpha" operator="out"/>
<feColorMatrix type="matrix" values="0 0 0 0 0 0 0 0 0 0 0 0 0 0 0 0 0 0 0.25 0"/>
<feBlend mode="normal" in2="effect1_backgroundBlur_1963_77" result="effect2_dropShadow_1963_77"/>
<feBlend mode="normal" in="SourceGraphic" in2="effect2_dropShadow_1963_77" result="shape"/>
</filter>
<linearGradient id="paint0_linear_1963_77" x1="25" y1="48" x2="145.292" y2="316" gradientUnits="userSpaceOnUse">
<stop stop-color="white" stop-opacity="0.5"/>
<stop offset="1" stop-color="white" stop-opacity="0"/>
</linearGradient>
<linearGradient id="paint1_linear_1963_77" x1="25" y1="48" x2="138.544" y2="309.702" gradientUnits="userSpaceOnUse">
<stop stop-color="white"/>
<stop offset="1" stop-opacity="0"/>
</linearGradient>
</defs>
</svg>
