<svg width="1014" height="195" viewBox="0 0 1014 195" fill="none" xmlns="http://www.w3.org/2000/svg">
<path d="M459.7 30.4C461.78 29.68 462.82 28.32 462.82 26.32C462.82 25.2 462.3 24.28 461.26 23.64C460.317 23.0741 457.879 22.5438 455.76 22.0826L455.38 22L450.54 21.2C446.82 20.36 444.26 19.48 442.86 18.52C440.5 16.88 439.34 14.36 439.34 10.92C439.34 7.8 440.5 5.2 442.78 3.12C445.1 1.04 449.54 0 453.98 0C457.74 0 461.98 0.999998 464.58 2.96C467.22 4.92 468.62 7.72 468.74 11.44H461.7C461.58 9.36 460.66 7.84 458.9 6.96C457.74 6.4 455.22 6.08 453.5 6.08C451.58 6.08 448.98 6.48 447.82 7.24C446.66 8 446.1 9.04 446.1 10.4C446.1 11.68 446.66 12.6 447.78 13.2C448.339 13.5232 449.89 13.868 451.609 14.2502C452.23 14.3883 452.874 14.5314 453.5 14.68L460.66 16.12C463.38 16.76 465.38 17.6 466.74 18.64C468.82 20.28 469.86 22.68 469.86 25.8C469.86 29 468.62 31.64 466.14 33.76C463.7 35.88 459.14 36.92 454.62 36.92C450.02 36.92 445.34 35.88 442.7 33.8C440.06 31.72 438.78 28.88 438.78 25.24H445.74C445.98 26.8 446.42 28 447.06 28.8C448.3 30.24 451.42 30.96 454.34 30.96C456.1 30.96 458.58 30.76 459.7 30.4Z" fill="white"/>
<path fill-rule="evenodd" clip-rule="evenodd" d="M481.294 23.44V36H474.054V1.04H493.254C496.694 1.04 499.454 1.92 501.534 3.76C503.574 5.56 504.614 8.32 504.614 12.12C504.614 16.24 503.574 19.16 501.534 20.88C499.494 22.6 496.574 23.44 492.774 23.44H481.294ZM481.294 7.12V17.4H492.094C493.734 17.4 495.054 17 495.974 16.16C496.894 15.32 497.374 14 497.374 12.16C497.374 10.36 496.894 9.04 495.974 8.28C495.054 7.52 493.734 7.12 492.094 7.12H481.294Z" fill="white"/>
<path d="M582.78 1V7H515.78V15H576.78V21H515.78V30H582.78V36H508.78V1H582.78Z" fill="white"/>
<path d="M268.22 36L276.26 6.68C276.26 6.95007 276.253 7.27713 276.245 7.65516C276.234 8.17292 276.22 8.78648 276.22 9.48C276.22 10.1922 276.207 10.812 276.196 11.3394C276.188 11.7301 276.18 12.0707 276.18 12.36V36H283.02V1.04H270.62L261.34 35.64L251.14 1.04H238.78V36H245.58V12.36C245.58 11.68 245.58 10.72 245.54 9.48V6.68L254.46 36H268.22Z" fill="white"/>
<path fill-rule="evenodd" clip-rule="evenodd" d="M305.938 36.24C312.298 36.24 317.138 34.4 320.538 30.68C323.298 27.88 324.658 23.88 324.658 18.64C324.658 13.4 323.298 9.4 320.538 6.64C317.138 2.92 312.298 1.08 305.938 1.08C299.458 1.08 294.578 2.92 291.338 6.64C288.578 9.4 287.218 13.4 287.218 18.64C287.218 23.88 288.578 27.88 291.338 30.68C294.578 34.4 299.458 36.24 305.938 36.24ZM317.698 18.64C317.698 21.92 316.698 24.52 314.658 26.48C312.618 28.44 309.698 29.4 305.938 29.4C302.138 29.4 299.258 28.44 297.218 26.48C295.178 24.52 294.138 21.92 294.138 18.64C294.138 15.36 295.178 12.76 297.218 10.84C299.258 8.92 302.178 7.96 305.938 7.96C309.698 7.96 312.618 8.92 314.658 10.84C316.698 12.76 317.698 15.36 317.698 18.64Z" fill="white"/>
<path fill-rule="evenodd" clip-rule="evenodd" d="M336.098 36V23.44H344.778C346.498 23.44 348.018 24.44 348.658 26C348.778 26.32 348.858 26.64 348.938 26.96L350.458 36.08H358.898C358.898 36.08 358.138 23.96 351.978 22.2C352.12 22.1229 352.459 22.0624 352.906 21.9825C353.852 21.8137 355.279 21.5589 356.338 20.88C358.618 19.48 359.418 16.24 359.418 12.12C359.418 8.32 358.378 5.56 356.338 3.76C354.258 1.92 351.498 1.04 348.058 1.04H328.858V36H336.098ZM336.098 17.4V7.12H346.898C348.538 7.12 349.858 7.52 350.778 8.28C351.698 9.04 352.178 10.36 352.178 12.16C352.178 14 351.698 15.32 350.778 16.16C349.858 17 348.538 17.4 346.898 17.4H336.098Z" fill="white"/>
<path d="M394.343 36V29.72H370.783V20.72H391.983V14.68H370.783V7.24H393.503V1.04H363.663V36H394.343Z" fill="white"/>
<path fill-rule="evenodd" clip-rule="evenodd" d="M620.66 28.84L622.94 36H630.9L618.5 1.04H603.26L590.78 36H598.42L600.78 28.84H620.66ZM618.7 22.8H602.78L610.78 2.04L618.7 22.8Z" fill="white"/>
<path d="M670.196 36L654.676 15.2L669.436 1.04H658.596L642.276 15.44V1.04H635.116V36H642.276V24.96L648.196 19.64L660.796 36H670.196Z" fill="white"/>
<path d="M705.093 36V29.72H681.533V20.72H702.733V14.68H681.533V7.24H704.253V1.04H674.413V36H705.093Z" fill="white"/>
<path fill-rule="evenodd" clip-rule="evenodd" d="M716.575 36V23.44H725.255C726.975 23.44 728.495 24.44 729.135 26C729.255 26.32 729.335 26.64 729.415 26.96L730.935 36.08H739.375C739.375 36.08 738.615 23.96 732.455 22.2C732.596 22.1229 732.936 22.0624 733.383 21.9825C734.328 21.8137 735.756 21.5589 736.815 20.88C739.095 19.48 739.895 16.24 739.895 12.12C739.895 8.32 738.855 5.56 736.815 3.76C734.735 1.92 731.975 1.04 728.535 1.04H709.335V36H716.575ZM716.575 17.4V7.12H727.375C729.015 7.12 730.335 7.52 731.255 8.28C732.175 9.04 732.655 10.36 732.655 12.16C732.655 14 732.175 15.32 731.255 16.16C730.335 17 729.015 17.4 727.375 17.4H716.575Z" fill="white"/>
<path d="M766.62 23.64C767.66 24.28 768.18 25.2 768.18 26.32C768.18 28.32 767.14 29.68 765.06 30.4C763.94 30.76 761.46 30.96 759.7 30.96C756.78 30.96 753.66 30.24 752.42 28.8C751.78 28 751.34 26.8 751.1 25.24H744.14C744.14 28.88 745.42 31.72 748.06 33.8C750.7 35.88 755.38 36.92 759.98 36.92C764.5 36.92 769.06 35.88 771.5 33.76C773.98 31.64 775.22 29 775.22 25.8C775.22 22.68 774.18 20.28 772.1 18.64C770.74 17.6 768.74 16.76 766.02 16.12L758.86 14.68C758.233 14.5313 757.59 14.3883 756.968 14.2502C755.249 13.868 753.698 13.5232 753.14 13.2C752.02 12.6 751.46 11.68 751.46 10.4C751.46 9.04 752.02 8 753.18 7.24C754.34 6.48 756.94 6.08 758.86 6.08C760.58 6.08 763.1 6.4 764.26 6.96C766.02 7.84 766.94 9.36 767.06 11.44H774.1C773.98 7.72 772.58 4.92 769.94 2.96C767.34 0.999998 763.1 0 759.34 0C754.9 0 750.46 1.04 748.14 3.12C745.86 5.2 744.7 7.8 744.7 10.92C744.7 14.36 745.86 16.88 748.22 18.52C749.62 19.48 752.18 20.36 755.9 21.2L760.74 22L761.119 22.0826C763.239 22.5437 765.676 23.0741 766.62 23.64Z" fill="white"/>
<path d="M47.3 157.52C31.1 157.52 18.9 152.92 10.8 143.62C3.9 136.62 0.5 126.62 0.5 113.52C0.5 100.42 3.9 90.42 10.8 83.52C18.9 74.22 31.1 69.62 47.3 69.62C63.2 69.62 75.3 74.22 83.8 83.52C88.2 87.92 91.2 93.62 92.7 100.52H73.9C72.7 98.12 71.1 95.92 69.1 94.02C64 89.22 56.7 86.82 47.3 86.82C37.9 86.82 30.6 89.22 25.5 94.02C20.4 98.82 17.8 105.32 17.8 113.52C17.8 121.72 20.4 128.22 25.5 133.12C30.6 138.02 37.8 140.42 47.3 140.42C56.7 140.42 64 138.02 69.1 133.12C71.1 131.22 72.7 129.02 73.9 126.62H92.7C91.1 133.52 88.2 139.22 83.8 143.62C75.3 152.92 63.2 157.52 47.3 157.52ZM171.932 133.12C177.032 128.22 179.532 121.72 179.532 113.52C179.532 105.32 177.032 98.82 171.932 94.02C166.832 89.22 159.532 86.82 150.132 86.82C140.732 86.82 133.432 89.22 128.332 94.02C123.232 98.82 120.632 105.32 120.632 113.52C120.632 121.72 123.232 128.22 128.332 133.12C133.432 138.02 140.632 140.42 150.132 140.42C159.532 140.42 166.832 138.02 171.932 133.12ZM186.632 143.62C178.132 152.92 166.032 157.52 150.132 157.52C133.932 157.52 121.732 152.92 113.632 143.62C106.732 136.62 103.332 126.62 103.332 113.52C103.332 100.42 106.732 90.42 113.632 83.52C121.732 74.22 133.932 69.62 150.132 69.62C166.032 69.62 178.132 74.22 186.632 83.52C193.532 90.42 196.932 100.42 196.932 113.52C196.932 126.62 193.532 136.62 186.632 143.62ZM301.134 83.62L281.034 156.92H246.634L224.334 83.62C224.334 85.22 224.334 87.62 224.334 90.62C224.434 93.72 224.434 96.12 224.434 97.82V156.92H207.434V69.52H238.334L263.834 156.02L287.034 69.52H318.034V156.92H300.934V97.82C300.934 96.12 301.034 93.72 301.034 90.62C301.034 87.62 301.134 85.22 301.134 83.62ZM328.527 156.92V69.52H346.627V156.92H328.527ZM428.538 130.52V69.52H445.538V156.92H427.238L374.238 94.92V156.92H357.238V69.52H376.338L428.538 130.52ZM499.164 127.12V111.42H548.664V157.92H530.364V142.52C525.164 150.12 516.564 157.32 502.964 157.52C486.764 157.82 474.564 152.92 466.464 143.62C459.564 136.62 456.164 126.62 456.164 113.52C456.164 100.42 459.564 90.42 466.464 83.52C474.564 74.22 486.764 69.62 502.964 69.62C518.864 69.62 530.964 74.22 539.464 83.52C543.864 87.92 546.864 93.62 548.364 100.52H529.564C528.364 98.12 526.764 95.92 524.764 94.02C519.664 89.22 512.364 86.82 502.964 86.82C493.564 86.82 486.264 89.22 481.164 94.02C476.064 98.82 473.464 105.32 473.464 113.52C473.464 121.72 476.064 128.22 481.164 133.12C486.264 138.02 493.464 140.42 502.964 140.42C512.364 140.42 519.664 138.02 524.764 133.12C526.564 131.32 528.064 129.32 529.264 127.12H499.164ZM669.597 142.92C674.797 141.12 677.397 137.72 677.397 132.72C677.397 129.92 676.097 127.62 673.497 126.02C670.997 124.52 664.297 123.12 658.797 121.92L646.697 119.92C637.397 117.82 630.997 115.62 627.497 113.22C621.597 109.12 618.697 102.82 618.697 94.22C618.697 86.42 621.597 79.92 627.297 74.72C633.097 69.52 644.197 66.92 655.297 66.92C664.697 66.92 675.297 69.42 681.797 74.32C688.397 79.22 691.897 86.22 692.197 95.52H674.597C674.297 90.32 671.997 86.52 667.597 84.32C664.697 82.92 658.397 82.12 654.097 82.12C649.297 82.12 642.797 83.12 639.897 85.02C636.997 86.92 635.597 89.52 635.597 92.92C635.597 96.12 636.997 98.42 639.797 99.92C641.697 101.02 648.197 102.22 654.097 103.62L671.997 107.22C678.797 108.82 683.797 110.92 687.197 113.52C692.397 117.62 694.997 123.62 694.997 131.42C694.997 139.42 691.897 146.02 685.697 151.32C679.597 156.62 668.197 159.22 656.897 159.22C645.397 159.22 633.697 156.62 627.097 151.42C620.497 146.22 617.297 139.12 617.297 130.02H634.697C635.297 133.92 636.397 136.92 637.997 138.92C641.097 142.52 648.897 144.32 656.197 144.32C660.597 144.32 666.797 143.82 669.597 142.92ZM774.08 133.12C779.18 128.22 781.68 121.72 781.68 113.52C781.68 105.32 779.18 98.82 774.08 94.02C768.98 89.22 761.68 86.82 752.28 86.82C742.88 86.82 735.58 89.22 730.48 94.02C725.38 98.82 722.78 105.32 722.78 113.52C722.78 121.72 725.38 128.22 730.48 133.12C735.58 138.02 742.78 140.42 752.28 140.42C761.68 140.42 768.98 138.02 774.08 133.12ZM788.78 143.62C780.28 152.92 768.18 157.52 752.28 157.52C736.08 157.52 723.88 152.92 715.78 143.62C708.88 136.62 705.48 126.62 705.48 113.52C705.48 100.42 708.88 90.42 715.78 83.52C723.88 74.22 736.08 69.62 752.28 69.62C768.18 69.62 780.28 74.22 788.78 83.52C795.68 90.42 799.08 100.42 799.08 113.52C799.08 126.62 795.68 136.62 788.78 143.62ZM878.182 133.12C883.282 128.22 885.782 121.72 885.782 113.52C885.782 105.32 883.282 98.82 878.182 94.02C873.082 89.22 865.782 86.82 856.382 86.82C846.982 86.82 839.682 89.22 834.582 94.02C829.482 98.82 826.882 105.32 826.882 113.52C826.882 121.72 829.482 128.22 834.582 133.12C839.682 138.02 846.882 140.42 856.382 140.42C865.782 140.42 873.082 138.02 878.182 133.12ZM892.882 143.62C884.382 152.92 872.282 157.52 856.382 157.52C840.182 157.52 827.982 152.92 819.882 143.62C812.982 136.62 809.582 126.62 809.582 113.52C809.582 100.42 812.982 90.42 819.882 83.52C827.982 74.22 840.182 69.62 856.382 69.62C872.282 69.62 884.382 74.22 892.882 83.52C899.782 90.42 903.182 100.42 903.182 113.52C903.182 126.62 899.782 136.62 892.882 143.62ZM984.984 130.52V69.52H1001.98V156.92H983.684L930.684 94.92V156.92H913.684V69.52H932.784L984.984 130.52Z" fill="white"/>
</svg>
