<svg width="600" height="47" viewBox="0 0 600 47" fill="none" xmlns="http://www.w3.org/2000/svg">
<path d="M33.732 6.77411L26.496 33.1621H14.112L6.084 6.77411C6.084 7.35011 6.084 8.21411 6.084 9.29411C6.12 10.4101 6.12 11.2741 6.12 11.8861V33.1621H0V1.69811H11.124L20.304 32.8381L28.656 1.69811H39.816V33.1621H33.66V11.8861C33.66 11.2741 33.696 10.4101 33.696 9.29411C33.696 8.21411 33.732 7.35011 33.732 6.77411Z" fill="white"/>
<path d="M153.612 27.5101V33.1621H126V1.69811H152.856V7.27811H132.408V13.9741H151.488V19.4101H132.408V27.5101H153.612ZM189.218 1.69811V7.27811H176.654V33.1621H170.03V7.27811H157.43V1.69811H189.218ZM238.622 24.5941C240.458 22.8301 241.358 20.4901 241.358 17.5381C241.358 14.5861 240.458 12.2461 238.622 10.5181C236.786 8.79011 234.158 7.92611 230.774 7.92611C227.39 7.92611 224.762 8.79011 222.926 10.5181C221.09 12.2461 220.154 14.5861 220.154 17.5381C220.154 20.4901 221.09 22.8301 222.926 24.5941C224.762 26.3581 227.354 27.2221 230.774 27.2221C234.158 27.2221 236.786 26.3581 238.622 24.5941ZM243.914 28.3741C240.854 31.7221 236.498 33.3781 230.774 33.3781C224.942 33.3781 220.55 31.7221 217.634 28.3741C215.15 25.8541 213.926 22.2541 213.926 17.5381C213.926 12.8221 215.15 9.22211 217.634 6.73811C220.55 3.39011 224.942 1.73411 230.774 1.73411C236.498 1.73411 240.854 3.39011 243.914 6.73811C246.398 9.22211 247.622 12.8221 247.622 17.5381C247.622 22.2541 246.398 25.8541 243.914 28.3741ZM268.034 33.4861H262.274C256.262 33.4861 251.402 28.6261 251.402 22.6141V1.84211C251.402 1.77011 251.438 1.69811 251.546 1.69811H257.99C257.918 1.84211 257.918 1.98611 257.918 2.13011V22.1101C257.918 25.0261 260.258 27.7261 263.174 27.7261H267.134C270.05 27.7261 272.39 25.0261 272.39 22.1101V2.13011C272.39 1.98611 272.354 1.84211 272.318 1.69811H278.762C278.834 1.69811 278.906 1.77011 278.906 1.84211V22.6141C278.906 28.6261 274.046 33.4861 268.034 33.4861ZM289.243 7.17011V16.4221H298.963C300.439 16.4221 301.627 16.0621 302.455 15.3061C303.283 14.5501 303.715 13.3621 303.715 11.7061C303.715 10.0861 303.283 8.89811 302.455 8.21411C301.627 7.53011 300.439 7.17011 298.963 7.17011H289.243ZM289.243 21.8581V33.1621H282.727V1.69811H300.007C303.103 1.69811 305.587 2.49011 307.459 4.14611C309.295 5.76611 310.231 8.25011 310.231 11.6701C310.231 15.3781 309.511 18.2941 307.459 19.5541C306.055 20.4541 303.931 20.5261 303.535 20.7421C309.079 22.3261 309.763 33.2341 309.763 33.2341H302.167L300.799 25.0261C300.727 24.7381 300.655 24.4501 300.547 24.1621C299.971 22.7581 298.603 21.8581 297.055 21.8581C293.887 21.8581 289.243 21.8581 289.243 21.8581ZM353.797 28.1221C355.669 27.4741 356.605 26.2501 356.605 24.4501C356.605 23.4421 356.137 22.6141 355.201 22.0381C354.301 21.4981 351.889 20.9941 349.909 20.5621L345.553 19.8421C342.205 19.0861 339.901 18.2941 338.641 17.4301C336.517 15.9541 335.473 13.6861 335.473 10.5901C335.473 7.78211 336.517 5.44211 338.569 3.57011C340.657 1.69811 344.653 0.762108 348.649 0.762108C352.033 0.762108 355.849 1.66211 358.189 3.42611C360.565 5.19011 361.825 7.71011 361.933 11.0581H355.597C355.489 9.18611 354.661 7.81811 353.077 7.02611C352.033 6.52211 349.765 6.23411 348.217 6.23411C346.489 6.23411 344.149 6.59411 343.105 7.27811C342.061 7.96211 341.557 8.89811 341.557 10.1221C341.557 11.2741 342.061 12.1021 343.069 12.6421C343.753 13.0381 346.093 13.4701 348.217 13.9741L354.661 15.2701C357.109 15.8461 358.909 16.6021 360.133 17.5381C362.005 19.0141 362.941 21.1741 362.941 23.9821C362.941 26.8621 361.825 29.2381 359.593 31.1461C357.397 33.0541 353.293 33.9901 349.225 33.9901C345.085 33.9901 340.873 33.0541 338.497 31.1821C336.121 29.3101 334.969 26.7541 334.969 23.4781H341.233C341.449 24.8821 341.845 25.9621 342.421 26.6821C343.537 27.9781 346.345 28.6261 348.973 28.6261C350.557 28.6261 352.789 28.4461 353.797 28.1221ZM373.231 7.17011V16.4221H382.951C384.427 16.4221 385.615 16.0621 386.443 15.3061C387.271 14.5501 387.703 13.3621 387.703 11.7061C387.703 10.0861 387.271 8.89811 386.443 8.21411C385.615 7.53011 384.427 7.17011 382.951 7.17011H373.231ZM373.231 21.8581V33.1621H366.715V1.69811H383.995C387.091 1.69811 389.575 2.49011 391.447 4.14611C393.283 5.76611 394.219 8.25011 394.219 11.6701C394.219 15.3781 393.283 18.0061 391.447 19.5541C389.611 21.1021 386.983 21.8581 383.563 21.8581H373.231ZM425.651 27.5101V33.1621H398.039V1.69811H424.895V7.27811H404.447V13.9741H423.527V19.4101H404.447V27.5101H425.651ZM440.269 21.2821H454.597L447.469 2.59811L440.269 21.2821ZM458.413 33.1621L456.361 26.7181H438.469L436.345 33.1621H429.469L440.701 1.69811H454.417L465.577 33.1621H458.413ZM486.975 14.4421L500.943 33.1621H492.483L481.143 18.4381L475.815 23.2261V33.1621H469.371V1.69811H475.815V14.6581L490.503 1.69811H500.259L486.975 14.4421ZM532.35 27.5101V33.1621H504.738V1.69811H531.594V7.27811H511.146V13.9741H530.226V19.4101H511.146V27.5101H532.35ZM542.684 7.17011V16.4221H552.404C553.88 16.4221 555.068 16.0621 555.896 15.3061C556.724 14.5501 557.156 13.3621 557.156 11.7061C557.156 10.0861 556.724 8.89811 555.896 8.21411C555.068 7.53011 553.88 7.17011 552.404 7.17011H542.684ZM542.684 21.8581V33.1621H536.168V1.69811H553.448C556.544 1.69811 559.028 2.49011 560.9 4.14611C562.736 5.76611 563.672 8.25011 563.672 11.6701C563.672 15.3781 562.952 18.2941 560.9 19.5541C559.496 20.4541 557.372 20.5261 556.976 20.7421C562.52 22.3261 563.204 33.2341 563.204 33.2341H555.608L554.24 25.0261C554.168 24.7381 554.096 24.4501 553.988 24.1621C553.412 22.7581 552.044 21.8581 550.496 21.8581C547.328 21.8581 542.684 21.8581 542.684 21.8581ZM586.32 28.1221C588.192 27.4741 589.128 26.2501 589.128 24.4501C589.128 23.4421 588.66 22.6141 587.724 22.0381C586.824 21.4981 584.412 20.9941 582.432 20.5621L578.076 19.8421C574.728 19.0861 572.424 18.2941 571.164 17.4301C569.04 15.9541 567.996 13.6861 567.996 10.5901C567.996 7.78211 569.04 5.44211 571.092 3.57011C573.18 1.69811 577.176 0.762108 581.172 0.762108C584.556 0.762108 588.372 1.66211 590.712 3.42611C593.088 5.19011 594.348 7.71011 594.456 11.0581H588.12C588.012 9.18611 587.184 7.81811 585.6 7.02611C584.556 6.52211 582.288 6.23411 580.74 6.23411C579.012 6.23411 576.672 6.59411 575.628 7.27811C574.584 7.96211 574.08 8.89811 574.08 10.1221C574.08 11.2741 574.584 12.1021 575.592 12.6421C576.276 13.0381 578.616 13.4701 580.74 13.9741L587.184 15.2701C589.632 15.8461 591.432 16.6021 592.656 17.5381C594.528 19.0141 595.464 21.1741 595.464 23.9821C595.464 26.8621 594.348 29.2381 592.116 31.1461C589.92 33.0541 585.816 33.9901 581.748 33.9901C577.608 33.9901 573.396 33.0541 571.02 31.1821C568.644 29.3101 567.492 26.7541 567.492 23.4781H573.756C573.972 24.8821 574.368 25.9621 574.944 26.6821C576.06 27.9781 578.868 28.6261 581.496 28.6261C583.08 28.6261 585.312 28.4461 586.32 28.1221Z" fill="white"/>
<rect x="57.4326" y="1" width="61.5676" height="5.51351" fill="white"/>
<rect x="51" y="27.6487" width="68" height="5.51351" fill="white"/>
<rect x="51" y="13.865" width="62.4865" height="5.51351" fill="white"/>
<rect x="51" y="1" width="6.43243" height="32.1622" fill="white"/>
</svg>
